<ttFont>
    <TTGlyph name="A" xMin="106" yMin="28" xMax="1218" yMax="1408">
      <contour>
        <pt x="837" y="597" on="1"/>
        <pt x="837" y="611" on="1"/>
        <pt x="837" y="631" on="0"/>
        <pt x="804" y="743" on="1"/>
        <pt x="750" y="973" on="0"/>
        <pt x="663" y="1190" on="0"/>
        <pt x="650" y="1190" on="0"/>
        <pt x="553" y="982" on="0"/>
        <pt x="478" y="727" on="1"/>
        <pt x="472" y="710" on="1"/>
        <pt x="467" y="693" on="1"/>
        <pt x="440" y="621" on="0"/>
        <pt x="440" y="598" on="1"/>
        <pt x="440" y="568" on="0"/>
        <pt x="540" y="568" on="1"/>
        <pt x="627" y="568" on="1"/>
        <pt x="636" y="569" on="1"/>
        <pt x="662" y="568" on="1"/>
        <pt x="696" y="568" on="1"/>
        <pt x="837" y="568" on="0"/>
      </contour>
      <contour>
        <pt x="1218" y="177" on="1"/>
        <pt x="1218" y="158" on="1"/>
        <pt x="1218" y="99" on="0"/>
        <pt x="1170" y="55" on="1"/>
        <pt x="1143" y="30" on="0"/>
        <pt x="1017" y="30" on="0"/>
        <pt x="993" y="74" on="1"/>
        <pt x="985" y="89" on="0"/>
        <pt x="971" y="179" on="0"/>
        <pt x="960" y="212" on="1"/>
        <pt x="909" y="360" on="0"/>
        <pt x="817" y="442" on="0"/>
        <pt x="679" y="442" on="1"/>
        <pt x="458" y="442" on="0"/>
        <pt x="370" y="371" on="0"/>
        <pt x="284" y="169" on="0"/>
        <pt x="284" y="28" on="0"/>
        <pt x="222" y="28" on="1"/>
        <pt x="171" y="28" on="0"/>
        <pt x="106" y="103" on="0"/>
        <pt x="106" y="164" on="1"/>
        <pt x="106" y="184" on="1"/>
        <pt x="106" y="211" on="0"/>
        <pt x="162" y="304" on="1"/>
        <pt x="168" y="313" on="0"/>
        <pt x="498" y="1230" on="0"/>
        <pt x="498" y="1231" on="1"/>
        <pt x="551" y="1350" on="0"/>
        <pt x="609" y="1408" on="0"/>
        <pt x="716" y="1408" on="0"/>
        <pt x="802" y="1304" on="0"/>
        <pt x="895" y="1095" on="0"/>
        <pt x="1026" y="717" on="0"/>
        <pt x="1070" y="596" on="0"/>
        <pt x="1079" y="566" on="1"/>
        <pt x="1109" y="464" on="1"/>
        <pt x="1144" y="348" on="0"/>
        <pt x="1159" y="305" on="0"/>
        <pt x="1218" y="210" on="0"/>
      </contour>
    </TTGlyph>
    <TTGlyph name="AE" xMin="106" yMin="17" xMax="1650" yMax="1389">
      <contour>
        <pt x="858" y="1179" on="1"/>
        <pt x="858" y="1232" on="0"/>
        <pt x="841" y="1232" on="1"/>
        <pt x="802" y="1232" on="0"/>
        <pt x="718" y="1082" on="1"/>
        <pt x="494" y="684" on="0"/>
        <pt x="494" y="614" on="1"/>
        <pt x="494" y="599" on="0"/>
        <pt x="543" y="599" on="1"/>
        <pt x="578" y="599" on="1"/>
        <pt x="595" y="597" on="0"/>
        <pt x="620" y="597" on="1"/>
        <pt x="644" y="595" on="1"/>
        <pt x="652" y="594" on="0"/>
        <pt x="661" y="594" on="1"/>
        <pt x="677" y="592" on="1"/>
        <pt x="749" y="589" on="1"/>
        <pt x="843" y="589" on="0"/>
        <pt x="843" y="642" on="1"/>
        <pt x="845" y="658" on="1"/>
        <pt x="847" y="690" on="1"/>
        <pt x="847" y="708" on="0"/>
        <pt x="847" y="725" on="1"/>
        <pt x="848" y="781" on="1"/>
        <pt x="848" y="898" on="1"/>
        <pt x="849" y="918" on="1"/>
        <pt x="849" y="928" on="0"/>
        <pt x="849" y="938" on="1"/>
        <pt x="852" y="985" on="1"/>
        <pt x="852" y="1004" on="1"/>
        <pt x="854" y="1032" on="1"/>
        <pt x="854" y="1051" on="1"/>
        <pt x="858" y="1138" on="1"/>
      </contour>
      <contour>
        <pt x="782" y="468" on="0"/>
        <pt x="512" y="468" on="0"/>
        <pt x="438" y="404" on="1"/>
        <pt x="390" y="363" on="0"/>
        <pt x="290" y="75" on="1"/>
        <pt x="278" y="41" on="0"/>
        <pt x="178" y="41" on="0"/>
        <pt x="106" y="109" on="0"/>
        <pt x="106" y="190" on="0"/>
        <pt x="201" y="318" on="0"/>
        <pt x="270" y="449" on="0"/>
        <pt x="344" y="609" on="1"/>
        <pt x="649" y="1266" on="0"/>
        <pt x="768" y="1385" on="0"/>
        <pt x="1100" y="1385" on="1"/>
        <pt x="1144" y="1385" on="0"/>
        <pt x="1191" y="1386" on="1"/>
        <pt x="1331" y="1389" on="1"/>
        <pt x="1377" y="1389" on="1"/>
        <pt x="1488" y="1389" on="0"/>
        <pt x="1542" y="1367" on="1"/>
        <pt x="1619" y="1335" on="0"/>
        <pt x="1619" y="1259" on="1"/>
        <pt x="1619" y="1235" on="0"/>
        <pt x="1578" y="1235" on="1"/>
        <pt x="1575" y="1235" on="0"/>
        <pt x="1391" y="1266" on="0"/>
        <pt x="1145" y="1266" on="0"/>
        <pt x="1070" y="1164" on="0"/>
        <pt x="1070" y="888" on="0"/>
        <pt x="1145" y="805" on="0"/>
        <pt x="1238" y="805" on="1"/>
        <pt x="1263" y="805" on="0"/>
        <pt x="1311" y="816" on="1"/>
        <pt x="1381" y="832" on="1"/>
        <pt x="1439" y="832" on="0"/>
        <pt x="1514" y="768" on="0"/>
        <pt x="1514" y="713" on="1"/>
        <pt x="1514" y="620" on="0"/>
        <pt x="1447" y="620" on="1"/>
        <pt x="1431" y="620" on="0"/>
        <pt x="1313" y="641" on="0"/>
        <pt x="1265" y="641" on="1"/>
        <pt x="1154" y="641" on="0"/>
        <pt x="1105" y="575" on="1"/>
        <pt x="1073" y="532" on="0"/>
        <pt x="1073" y="272" on="0"/>
        <pt x="1134" y="205" on="1"/>
        <pt x="1179" y="156" on="0"/>
        <pt x="1302" y="156" on="1"/>
        <pt x="1372" y="156" on="0"/>
        <pt x="1563" y="198" on="0"/>
        <pt x="1587" y="198" on="1"/>
        <pt x="1650" y="198" on="0"/>
        <pt x="1650" y="59" on="0"/>
        <pt x="1576" y="34" on="1"/>
        <pt x="1526" y="17" on="0"/>
        <pt x="1409" y="17" on="1"/>
        <pt x="1363" y="17" on="1"/>
        <pt x="871" y="17" on="0"/>
        <pt x="871" y="134" on="1"/>
        <pt x="876" y="266" on="1"/>
        <pt x="876" y="387" on="0"/>
        <pt x="819" y="436" on="1"/>
      </contour>
    </TTGlyph>
    <TTGlyph name="Aacute" xMin="83" yMin="34" xMax="1214" yMax="1821">
      <contour>
        <pt x="440" y="583" on="1"/>
        <pt x="481" y="583" on="1"/>
        <pt x="490" y="584" on="1"/>
        <pt x="625" y="588" on="1"/>
        <pt x="829" y="588" on="0"/>
        <pt x="829" y="604" on="1"/>
        <pt x="829" y="611" on="1"/>
        <pt x="828" y="618" on="1"/>
        <pt x="828" y="666" on="0"/>
        <pt x="794" y="768" on="1"/>
        <pt x="649" y="1202" on="0"/>
        <pt x="628" y="1202" on="1"/>
        <pt x="625" y="1202" on="0"/>
        <pt x="532" y="1016" on="0"/>
        <pt x="406" y="638" on="0"/>
        <pt x="406" y="601" on="1"/>
        <pt x="406" y="583" on="0"/>
      </contour>
      <contour>
        <pt x="570" y="1494" on="1"/>
        <pt x="554" y="1494" on="1"/>
        <pt x="521" y="1494" on="0"/>
        <pt x="521" y="1527" on="1"/>
        <pt x="522" y="1532" on="1"/>
        <pt x="522" y="1607" on="0"/>
        <pt x="699" y="1764" on="1"/>
        <pt x="763" y="1821" on="0"/>
        <pt x="819" y="1821" on="1"/>
        <pt x="835" y="1821" on="1"/>
        <pt x="910" y="1821" on="0"/>
        <pt x="910" y="1765" on="1"/>
        <pt x="909" y="1760" on="1"/>
        <pt x="909" y="1723" on="0"/>
        <pt x="840" y="1663" on="1"/>
        <pt x="647" y="1494" on="0"/>
      </contour>
      <contour>
        <pt x="287" y="42" on="0"/>
        <pt x="174" y="42" on="0"/>
        <pt x="141" y="72" on="1"/>
        <pt x="83" y="125" on="0"/>
        <pt x="83" y="210" on="0"/>
        <pt x="156" y="307" on="0"/>
        <pt x="193" y="405" on="0"/>
        <pt x="452" y="1180" on="0"/>
        <pt x="533" y="1351" on="0"/>
        <pt x="595" y="1397" on="0"/>
        <pt x="696" y="1397" on="0"/>
        <pt x="770" y="1313" on="0"/>
        <pt x="862" y="1112" on="0"/>
        <pt x="1034" y="615" on="0"/>
        <pt x="1122" y="341" on="0"/>
        <pt x="1153" y="278" on="0"/>
        <pt x="1214" y="202" on="0"/>
        <pt x="1214" y="173" on="1"/>
        <pt x="1214" y="153" on="1"/>
        <pt x="1214" y="106" on="0"/>
        <pt x="1150" y="60" on="1"/>
        <pt x="1114" y="34" on="0"/>
        <pt x="1056" y="34" on="1"/>
        <pt x="947" y="34" on="0"/>
        <pt x="947" y="110" on="1"/>
        <pt x="951" y="174" on="0"/>
        <pt x="951" y="179" on="1"/>
        <pt x="951" y="232" on="0"/>
        <pt x="882" y="380" on="0"/>
        <pt x="811" y="442" on="0"/>
        <pt x="420" y="442" on="0"/>
        <pt x="377" y="404" on="1"/>
        <pt x="353" y="383" on="0"/>
        <pt x="281" y="203" on="0"/>
        <pt x="281" y="151" on="1"/>
        <pt x="287" y="88" on="1"/>
      </contour>
    </TTGlyph>
    <TTGlyph name="Acircumflex" xMin="77" yMin="19" xMax="1221" yMax="1821">
      <contour>
        <pt x="410" y="614" on="1"/>
        <pt x="410" y="601" on="1"/>
        <pt x="410" y="582" on="0"/>
        <pt x="493" y="582" on="1"/>
        <pt x="589" y="582" on="1"/>
        <pt x="598" y="583" on="1"/>
        <pt x="625" y="583" on="1"/>
        <pt x="829" y="583" on="0"/>
        <pt x="829" y="602" on="1"/>
        <pt x="829" y="609" on="1"/>
        <pt x="829" y="627" on="0"/>
        <pt x="729" y="967" on="0"/>
        <pt x="625" y="1189" on="0"/>
        <pt x="622" y="1189" on="1"/>
        <pt x="618" y="1189" on="1"/>
        <pt x="615" y="1189" on="0"/>
        <pt x="521" y="988" on="0"/>
        <pt x="410" y="632" on="0"/>
      </contour>
      <contour>
        <pt x="638" y="1821" on="1"/>
        <pt x="654" y="1821" on="1"/>
        <pt x="697" y="1821" on="0"/>
        <pt x="759" y="1765" on="0"/>
        <pt x="912" y="1581" on="1"/>
        <pt x="939" y="1549" on="0"/>
        <pt x="939" y="1536" on="1"/>
        <pt x="939" y="1530" on="1"/>
        <pt x="939" y="1505" on="0"/>
        <pt x="835" y="1505" on="0"/>
        <pt x="646" y="1679" on="0"/>
        <pt x="635" y="1679" on="0"/>
        <pt x="458" y="1502" on="0"/>
        <pt x="407" y="1502" on="1"/>
        <pt x="393" y="1502" on="1"/>
        <pt x="348" y="1502" on="0"/>
        <pt x="348" y="1561" on="0"/>
        <pt x="534" y="1764" on="1"/>
        <pt x="586" y="1821" on="0"/>
      </contour>
      <contour>
        <pt x="285" y="25" on="0"/>
        <pt x="170" y="25" on="0"/>
        <pt x="139" y="51" on="1"/>
        <pt x="77" y="103" on="0"/>
        <pt x="77" y="166" on="1"/>
        <pt x="77" y="195" on="0"/>
        <pt x="153" y="301" on="0"/>
        <pt x="201" y="429" on="0"/>
        <pt x="281" y="678" on="0"/>
        <pt x="461" y="1198" on="0"/>
        <pt x="533" y="1348" on="0"/>
        <pt x="588" y="1400" on="0"/>
        <pt x="694" y="1400" on="0"/>
        <pt x="770" y="1321" on="0"/>
        <pt x="880" y="1075" on="0"/>
        <pt x="1139" y="300" on="0"/>
        <pt x="1164" y="262" on="1"/>
        <pt x="1221" y="176" on="0"/>
        <pt x="1221" y="99" on="0"/>
        <pt x="1126" y="19" on="0"/>
        <pt x="1070" y="19" on="1"/>
        <pt x="1047" y="19" on="1"/>
        <pt x="996" y="20" on="0"/>
        <pt x="974" y="40" on="1"/>
        <pt x="954" y="59" on="0"/>
        <pt x="953" y="103" on="1"/>
        <pt x="954" y="106" on="0"/>
        <pt x="954" y="109" on="1"/>
        <pt x="956" y="148" on="0"/>
        <pt x="956" y="173" on="1"/>
        <pt x="956" y="179" on="0"/>
        <pt x="956" y="185" on="1"/>
        <pt x="956" y="212" on="0"/>
        <pt x="894" y="366" on="0"/>
        <pt x="863" y="396" on="1"/>
        <pt x="818" y="440" on="0"/>
        <pt x="422" y="440" on="0"/>
        <pt x="354" y="382" on="0"/>
        <pt x="279" y="201" on="0"/>
        <pt x="279" y="128" on="1"/>
        <pt x="285" y="66" on="1"/>
      </contour>
    </TTGlyph>
    <TTGlyph name="Adieresis" xMin="65" yMin="18" xMax="1206" yMax="1768">
      <contour>
        <pt x="494" y="578" on="1"/>
        <pt x="537" y="578" on="1"/>
        <pt x="546" y="579" on="1"/>
        <pt x="607" y="579" on="1"/>
        <pt x="810" y="579" on="0"/>
        <pt x="810" y="598" on="1"/>
        <pt x="810" y="605" on="1"/>
        <pt x="810" y="620" on="0"/>
        <pt x="698" y="1001" on="0"/>
        <pt x="608" y="1194" on="0"/>
        <pt x="607" y="1194" on="1"/>
        <pt x="602" y="1194" on="1"/>
        <pt x="601" y="1194" on="0"/>
        <pt x="506" y="991" on="0"/>
        <pt x="396" y="616" on="0"/>
        <pt x="396" y="604" on="1"/>
        <pt x="396" y="597" on="1"/>
        <pt x="396" y="578" on="0"/>
      </contour>
      <contour>
        <pt x="415" y="1559" on="1"/>
        <pt x="352" y="1559" on="0"/>
        <pt x="352" y="1626" on="1"/>
        <pt x="350" y="1632" on="0"/>
        <pt x="350" y="1636" on="1"/>
        <pt x="348" y="1654" on="1"/>
        <pt x="348" y="1669" on="1"/>
        <pt x="352" y="1697" on="1"/>
        <pt x="352" y="1726" on="0"/>
        <pt x="405" y="1768" on="0"/>
        <pt x="446" y="1768" on="1"/>
        <pt x="460" y="1768" on="1"/>
        <pt x="497" y="1762" on="1"/>
        <pt x="549" y="1762" on="0"/>
        <pt x="549" y="1704" on="1"/>
        <pt x="553" y="1692" on="0"/>
        <pt x="553" y="1687" on="1"/>
        <pt x="555" y="1666" on="1"/>
        <pt x="555" y="1658" on="1"/>
        <pt x="549" y="1620" on="1"/>
        <pt x="549" y="1560" on="0"/>
        <pt x="484" y="1560" on="1"/>
        <pt x="478" y="1558" on="0"/>
        <pt x="474" y="1558" on="1"/>
        <pt x="460" y="1556" on="1"/>
        <pt x="435" y="1556" on="1"/>
        <pt x="432" y="1557" on="1"/>
        <pt x="425" y="1557" on="1"/>
        <pt x="419" y="1559" on="0"/>
      </contour>
      <contour>
        <pt x="723" y="1635" on="1"/>
        <pt x="723" y="1661" on="1"/>
        <pt x="727" y="1685" on="1"/>
        <pt x="727" y="1713" on="0"/>
        <pt x="782" y="1757" on="0"/>
        <pt x="827" y="1757" on="1"/>
        <pt x="831" y="1756" on="1"/>
        <pt x="854" y="1754" on="1"/>
        <pt x="858" y="1753" on="0"/>
        <pt x="861" y="1753" on="1"/>
        <pt x="923" y="1753" on="0"/>
        <pt x="923" y="1667" on="1"/>
        <pt x="923" y="1634" on="1"/>
        <pt x="920" y="1622" on="0"/>
        <pt x="920" y="1584" on="0"/>
        <pt x="865" y="1540" on="0"/>
        <pt x="831" y="1540" on="1"/>
        <pt x="810" y="1540" on="1"/>
        <pt x="784" y="1544" on="1"/>
        <pt x="723" y="1544" on="0"/>
      </contour>
      <contour>
        <pt x="800" y="441" on="0"/>
        <pt x="402" y="441" on="0"/>
        <pt x="361" y="404" on="1"/>
        <pt x="333" y="379" on="0"/>
        <pt x="265" y="204" on="0"/>
        <pt x="265" y="144" on="1"/>
        <pt x="265" y="136" on="0"/>
        <pt x="269" y="110" on="1"/>
        <pt x="274" y="79" on="1"/>
        <pt x="274" y="27" on="0"/>
        <pt x="156" y="27" on="0"/>
        <pt x="124" y="55" on="1"/>
        <pt x="65" y="107" on="0"/>
        <pt x="65" y="151" on="1"/>
        <pt x="65" y="170" on="1"/>
        <pt x="65" y="187" on="0"/>
        <pt x="146" y="305" on="0"/>
        <pt x="170" y="374" on="1"/>
        <pt x="489" y="1294" on="0"/>
        <pt x="493" y="1302" on="1"/>
        <pt x="541" y="1403" on="0"/>
        <pt x="613" y="1403" on="1"/>
        <pt x="639" y="1403" on="1"/>
        <pt x="685" y="1403" on="0"/>
        <pt x="760" y="1318" on="0"/>
        <pt x="863" y="1082" on="0"/>
        <pt x="1137" y="275" on="0"/>
        <pt x="1153" y="253" on="1"/>
        <pt x="1206" y="180" on="0"/>
        <pt x="1206" y="158" on="1"/>
        <pt x="1206" y="138" on="1"/>
        <pt x="1206" y="106" on="0"/>
        <pt x="1122" y="18" on="0"/>
        <pt x="1070" y="18" on="1"/>
        <pt x="1048" y="18" on="1"/>
        <pt x="993" y="18" on="0"/>
        <pt x="938" y="52" on="0"/>
        <pt x="938" y="95" on="1"/>
        <pt x="944" y="167" on="1"/>
        <pt x="944" y="217" on="0"/>
        <pt x="878" y="372" on="0"/>
      </contour>
    </TTGlyph>
    <TTGlyph name="Agrave" xMin="81" yMin="15" xMax="1217" yMax="1835">
      <contour>
        <pt x="537" y="572" on="1"/>
        <pt x="740" y="572" on="1"/>
        <pt x="749" y="573" on="1"/>
        <pt x="774" y="574" on="1"/>
        <pt x="782" y="575" on="0"/>
        <pt x="790" y="575" on="1"/>
        <pt x="829" y="575" on="0"/>
        <pt x="829" y="594" on="1"/>
        <pt x="829" y="601" on="1"/>
        <pt x="829" y="715" on="0"/>
        <pt x="658" y="1106" on="1"/>
        <pt x="623" y="1186" on="0"/>
        <pt x="619" y="1186" on="1"/>
        <pt x="610" y="1186" on="0"/>
        <pt x="575" y="1105" on="1"/>
        <pt x="410" y="728" on="0"/>
        <pt x="410" y="600" on="1"/>
        <pt x="410" y="572" on="0"/>
      </contour>
      <contour>
        <pt x="376" y="1774" on="1"/>
        <pt x="376" y="1788" on="1"/>
        <pt x="376" y="1835" on="0"/>
        <pt x="454" y="1835" on="1"/>
        <pt x="464" y="1835" on="1"/>
        <pt x="530" y="1835" on="0"/>
        <pt x="591" y="1774" on="1"/>
        <pt x="762" y="1603" on="0"/>
        <pt x="762" y="1556" on="1"/>
        <pt x="762" y="1547" on="1"/>
        <pt x="762" y="1517" on="0"/>
        <pt x="732" y="1517" on="1"/>
        <pt x="711" y="1517" on="1"/>
        <pt x="701" y="1519" on="0"/>
        <pt x="695" y="1519" on="1"/>
        <pt x="649" y="1519" on="0"/>
        <pt x="376" y="1731" on="0"/>
      </contour>
      <contour>
        <pt x="287" y="21" on="0"/>
        <pt x="172" y="21" on="0"/>
        <pt x="142" y="47" on="1"/>
        <pt x="81" y="100" on="0"/>
        <pt x="81" y="163" on="1"/>
        <pt x="81" y="191" on="0"/>
        <pt x="157" y="301" on="0"/>
        <pt x="205" y="420" on="0"/>
        <pt x="272" y="644" on="0"/>
        <pt x="473" y="1224" on="0"/>
        <pt x="532" y="1352" on="0"/>
        <pt x="588" y="1403" on="0"/>
        <pt x="692" y="1403" on="0"/>
        <pt x="767" y="1325" on="0"/>
        <pt x="876" y="1078" on="0"/>
        <pt x="1147" y="278" on="0"/>
        <pt x="1160" y="259" on="1"/>
        <pt x="1217" y="173" on="0"/>
        <pt x="1217" y="93" on="0"/>
        <pt x="1125" y="15" on="0"/>
        <pt x="996" y="15" on="0"/>
        <pt x="951" y="57" on="0"/>
        <pt x="951" y="103" on="1"/>
        <pt x="955" y="156" on="1"/>
        <pt x="955" y="215" on="0"/>
        <pt x="885" y="380" on="0"/>
        <pt x="803" y="439" on="0"/>
        <pt x="422" y="439" on="0"/>
        <pt x="351" y="378" on="0"/>
        <pt x="279" y="190" on="0"/>
        <pt x="279" y="143" on="1"/>
        <pt x="287" y="62" on="1"/>
      </contour>
    </TTGlyph>
    <TTGlyph name="Aring" xMin="53" yMin="28" xMax="1212" yMax="1879">
      <contour>
        <pt x="652" y="1587" on="0"/>
        <pt x="688" y="1587" on="0"/>
        <pt x="739" y="1651" on="0"/>
        <pt x="739" y="1680" on="1"/>
        <pt x="739" y="1702" on="1"/>
        <pt x="739" y="1739" on="0"/>
        <pt x="679" y="1799" on="0"/>
        <pt x="642" y="1799" on="1"/>
        <pt x="619" y="1799" on="1"/>
        <pt x="615" y="1798" on="1"/>
        <pt x="608" y="1798" on="1"/>
        <pt x="598" y="1795" on="0"/>
        <pt x="570" y="1795" on="0"/>
        <pt x="523" y="1736" on="0"/>
        <pt x="523" y="1717" on="1"/>
        <pt x="520" y="1696" on="1"/>
        <pt x="520" y="1689" on="1"/>
        <pt x="521" y="1685" on="1"/>
        <pt x="521" y="1638" on="0"/>
        <pt x="585" y="1587" on="0"/>
        <pt x="604" y="1587" on="1"/>
        <pt x="625" y="1584" on="1"/>
        <pt x="640" y="1584" on="1"/>
      </contour>
      <contour>
        <pt x="815" y="595" on="1"/>
        <pt x="815" y="609" on="1"/>
        <pt x="815" y="611" on="0"/>
        <pt x="717" y="964" on="0"/>
        <pt x="614" y="1199" on="0"/>
        <pt x="606" y="1199" on="1"/>
        <pt x="605" y="1199" on="0"/>
        <pt x="504" y="983" on="0"/>
        <pt x="424" y="695" on="0"/>
        <pt x="398" y="620" on="0"/>
        <pt x="398" y="602" on="1"/>
        <pt x="398" y="595" on="1"/>
        <pt x="398" y="576" on="0"/>
        <pt x="462" y="576" on="1"/>
        <pt x="549" y="576" on="1"/>
        <pt x="558" y="577" on="1"/>
        <pt x="610" y="577" on="1"/>
        <pt x="815" y="577" on="0"/>
      </contour>
      <contour>
        <pt x="616" y="1879" on="1"/>
        <pt x="649" y="1879" on="1"/>
        <pt x="723" y="1879" on="0"/>
        <pt x="829" y="1773" on="0"/>
        <pt x="829" y="1706" on="1"/>
        <pt x="829" y="1681" on="1"/>
        <pt x="827" y="1667" on="0"/>
        <pt x="827" y="1662" on="1"/>
        <pt x="827" y="1606" on="0"/>
        <pt x="715" y="1506" on="0"/>
        <pt x="656" y="1506" on="1"/>
        <pt x="643" y="1504" on="1"/>
        <pt x="610" y="1504" on="1"/>
        <pt x="598" y="1506" on="0"/>
        <pt x="591" y="1506" on="1"/>
        <pt x="521" y="1506" on="0"/>
        <pt x="430" y="1624" on="0"/>
        <pt x="430" y="1690" on="1"/>
        <pt x="431" y="1696" on="1"/>
        <pt x="431" y="1771" on="0"/>
        <pt x="539" y="1879" on="0"/>
      </contour>
      <contour>
        <pt x="187" y="37" on="1"/>
        <pt x="143" y="37" on="0"/>
        <pt x="53" y="132" on="0"/>
        <pt x="53" y="175" on="1"/>
        <pt x="53" y="191" on="0"/>
        <pt x="114" y="289" on="1"/>
        <pt x="120" y="298" on="0"/>
        <pt x="411" y="1141" on="0"/>
        <pt x="499" y="1337" on="0"/>
        <pt x="561" y="1406" on="0"/>
        <pt x="611" y="1406" on="1"/>
        <pt x="637" y="1406" on="1"/>
        <pt x="686" y="1406" on="0"/>
        <pt x="771" y="1310" on="0"/>
        <pt x="863" y="1112" on="0"/>
        <pt x="1058" y="529" on="0"/>
        <pt x="1123" y="304" on="0"/>
        <pt x="1212" y="184" on="0"/>
        <pt x="1212" y="161" on="1"/>
        <pt x="1212" y="109" on="0"/>
        <pt x="1120" y="28" on="0"/>
        <pt x="1063" y="28" on="1"/>
        <pt x="1040" y="28" on="1"/>
        <pt x="986" y="28" on="0"/>
        <pt x="930" y="63" on="0"/>
        <pt x="930" y="107" on="1"/>
        <pt x="930" y="117" on="0"/>
        <pt x="943" y="174" on="0"/>
        <pt x="943" y="237" on="0"/>
        <pt x="882" y="385" on="0"/>
        <pt x="795" y="463" on="0"/>
        <pt x="402" y="463" on="0"/>
        <pt x="361" y="423" on="1"/>
        <pt x="336" y="399" on="0"/>
        <pt x="259" y="212" on="0"/>
        <pt x="259" y="158" on="1"/>
        <pt x="268" y="77" on="1"/>
        <pt x="268" y="37" on="0"/>
      </contour>
    </TTGlyph>
    <TTGlyph name="Atilde" xMin="85" yMin="23" xMax="1221" yMax="1758">
      <contour>
        <pt x="770" y="587" on="1"/>
        <pt x="836" y="587" on="0"/>
        <pt x="836" y="633" on="0"/>
        <pt x="743" y="949" on="0"/>
        <pt x="628" y="1195" on="0"/>
        <pt x="626" y="1195" on="1"/>
        <pt x="621" y="1195" on="1"/>
        <pt x="615" y="1195" on="0"/>
        <pt x="580" y="1114" on="1"/>
        <pt x="411" y="728" on="0"/>
        <pt x="411" y="611" on="1"/>
        <pt x="411" y="588" on="0"/>
        <pt x="628" y="588" on="1"/>
        <pt x="673" y="587" on="1"/>
      </contour>
      <contour>
        <pt x="799" y="1538" on="1"/>
        <pt x="767" y="1538" on="1"/>
        <pt x="726" y="1538" on="0"/>
        <pt x="550" y="1626" on="0"/>
        <pt x="478" y="1626" on="0"/>
        <pt x="373" y="1547" on="0"/>
        <pt x="362" y="1547" on="1"/>
        <pt x="328" y="1547" on="0"/>
        <pt x="328" y="1586" on="1"/>
        <pt x="328" y="1594" on="1"/>
        <pt x="328" y="1653" on="0"/>
        <pt x="453" y="1758" on="0"/>
        <pt x="516" y="1758" on="1"/>
        <pt x="524" y="1758" on="1"/>
        <pt x="532" y="1757" on="1"/>
        <pt x="577" y="1757" on="0"/>
        <pt x="759" y="1666" on="0"/>
        <pt x="826" y="1666" on="0"/>
        <pt x="919" y="1744" on="0"/>
        <pt x="935" y="1744" on="1"/>
        <pt x="969" y="1744" on="0"/>
        <pt x="969" y="1649" on="0"/>
        <pt x="858" y="1538" on="0"/>
      </contour>
      <contour>
        <pt x="293" y="28" on="0"/>
        <pt x="177" y="28" on="0"/>
        <pt x="145" y="56" on="1"/>
        <pt x="85" y="109" on="0"/>
        <pt x="85" y="151" on="1"/>
        <pt x="85" y="171" on="1"/>
        <pt x="85" y="191" on="0"/>
        <pt x="166" y="306" on="0"/>
        <pt x="215" y="448" on="0"/>
        <pt x="263" y="598" on="0"/>
        <pt x="272" y="625" on="1"/>
        <pt x="350" y="859" on="1"/>
        <pt x="469" y="1216" on="0"/>
        <pt x="539" y="1360" on="0"/>
        <pt x="596" y="1404" on="0"/>
        <pt x="699" y="1404" on="0"/>
        <pt x="773" y="1319" on="0"/>
        <pt x="870" y="1098" on="0"/>
        <pt x="1156" y="273" on="0"/>
        <pt x="1169" y="255" on="1"/>
        <pt x="1221" y="184" on="0"/>
        <pt x="1221" y="161" on="1"/>
        <pt x="1221" y="141" on="1"/>
        <pt x="1221" y="108" on="0"/>
        <pt x="1132" y="23" on="0"/>
        <pt x="1082" y="23" on="1"/>
        <pt x="1060" y="23" on="1"/>
        <pt x="1006" y="23" on="0"/>
        <pt x="951" y="56" on="0"/>
        <pt x="951" y="99" on="1"/>
        <pt x="958" y="170" on="1"/>
        <pt x="958" y="221" on="0"/>
        <pt x="891" y="375" on="0"/>
        <pt x="816" y="443" on="0"/>
        <pt x="422" y="443" on="0"/>
        <pt x="378" y="404" on="1"/>
        <pt x="352" y="381" on="0"/>
        <pt x="283" y="204" on="0"/>
        <pt x="283" y="145" on="1"/>
        <pt x="293" y="80" on="1"/>
      </contour>
    </TTGlyph>
    <TTGlyph name="B" xMin="154" yMin="-2" xMax="1125" yMax="1401">
      <contour>
        <pt x="395" y="866" on="1"/>
        <pt x="395" y="792" on="0"/>
        <pt x="459" y="792" on="1"/>
        <pt x="475" y="790" on="1"/>
        <pt x="507" y="789" on="1"/>
        <pt x="515" y="789" on="1"/>
        <pt x="524" y="790" on="1"/>
        <pt x="532" y="790" on="1"/>
        <pt x="690" y="790" on="0"/>
        <pt x="853" y="926" on="0"/>
        <pt x="853" y="1040" on="1"/>
        <pt x="853" y="1068" on="1"/>
        <pt x="853" y="1165" on="0"/>
        <pt x="718" y="1288" on="0"/>
        <pt x="598" y="1288" on="1"/>
        <pt x="523" y="1288" on="1"/>
        <pt x="507" y="1286" on="0"/>
        <pt x="500" y="1286" on="1"/>
        <pt x="422" y="1286" on="0"/>
        <pt x="396" y="1217" on="0"/>
        <pt x="396" y="1109" on="1"/>
        <pt x="396" y="971" on="1"/>
        <pt x="395" y="944" on="1"/>
      </contour>
      <contour>
        <pt x="933" y="393" on="1"/>
        <pt x="933" y="446" on="1"/>
        <pt x="933" y="560" on="0"/>
        <pt x="755" y="691" on="0"/>
        <pt x="627" y="691" on="1"/>
        <pt x="530" y="691" on="1"/>
        <pt x="425" y="691" on="0"/>
        <pt x="392" y="624" on="0"/>
        <pt x="392" y="412" on="1"/>
        <pt x="392" y="382" on="1"/>
        <pt x="392" y="188" on="0"/>
        <pt x="425" y="135" on="0"/>
        <pt x="508" y="135" on="1"/>
        <pt x="526" y="133" on="0"/>
        <pt x="536" y="133" on="1"/>
        <pt x="546" y="133" on="1"/>
        <pt x="576" y="132" on="1"/>
        <pt x="586" y="133" on="1"/>
        <pt x="626" y="134" on="1"/>
        <pt x="666" y="136" on="1"/>
        <pt x="781" y="136" on="0"/>
        <pt x="933" y="288" on="0"/>
      </contour>
      <contour>
        <pt x="603" y="1401" on="1"/>
        <pt x="942" y="1401" on="0"/>
        <pt x="1019" y="1190" on="1"/>
        <pt x="1038" y="1137" on="0"/>
        <pt x="1038" y="1058" on="1"/>
        <pt x="1038" y="910" on="0"/>
        <pt x="915" y="802" on="1"/>
        <pt x="881" y="772" on="0"/>
        <pt x="881" y="760" on="0"/>
        <pt x="950" y="714" on="1"/>
        <pt x="1125" y="599" on="0"/>
        <pt x="1125" y="413" on="1"/>
        <pt x="1125" y="388" on="1"/>
        <pt x="1125" y="386" on="0"/>
        <pt x="1125" y="382" on="0"/>
        <pt x="1125" y="380" on="1"/>
        <pt x="1125" y="299" on="0"/>
        <pt x="1086" y="222" on="1"/>
        <pt x="1004" y="61" on="0"/>
        <pt x="778" y="17" on="1"/>
        <pt x="679" y="-2" on="0"/>
        <pt x="538" y="-2" on="1"/>
        <pt x="444" y="-2" on="1"/>
        <pt x="253" y="-2" on="0"/>
        <pt x="159" y="26" on="0"/>
        <pt x="159" y="59" on="1"/>
        <pt x="159" y="74" on="0"/>
        <pt x="191" y="160" on="0"/>
        <pt x="199" y="209" on="0"/>
        <pt x="199" y="336" on="1"/>
        <pt x="200" y="408" on="1"/>
        <pt x="200" y="432" on="0"/>
        <pt x="200" y="456" on="1"/>
        <pt x="201" y="504" on="1"/>
        <pt x="201" y="553" on="1"/>
        <pt x="200" y="601" on="1"/>
        <pt x="200" y="889" on="1"/>
        <pt x="200" y="1129" on="0"/>
        <pt x="191" y="1228" on="0"/>
        <pt x="154" y="1320" on="0"/>
        <pt x="154" y="1331" on="1"/>
        <pt x="154" y="1369" on="0"/>
        <pt x="272" y="1396" on="0"/>
        <pt x="412" y="1396" on="1"/>
        <pt x="459" y="1398" on="1"/>
        <pt x="483" y="1399" on="0"/>
        <pt x="507" y="1399" on="1"/>
        <pt x="554" y="1401" on="1"/>
      </contour>
    </TTGlyph>
    <TTGlyph name="C" xMin="106" yMin="-5" xMax="1158" yMax="1407">
      <contour>
        <pt x="319" y="676" on="1"/>
        <pt x="319" y="412" on="0"/>
        <pt x="539" y="150" on="0"/>
        <pt x="739" y="150" on="1"/>
        <pt x="851" y="150" on="0"/>
        <pt x="959" y="206" on="1"/>
        <pt x="974" y="214" on="0"/>
        <pt x="1088" y="291" on="0"/>
        <pt x="1158" y="291" on="0"/>
        <pt x="1158" y="208" on="0"/>
        <pt x="1076" y="104" on="0"/>
        <pt x="1016" y="71" on="1"/>
        <pt x="878" y="-5" on="0"/>
        <pt x="691" y="-5" on="1"/>
        <pt x="659" y="-5" on="1"/>
        <pt x="537" y="-4" on="0"/>
        <pt x="432" y="44" on="1"/>
        <pt x="226" y="139" on="0"/>
        <pt x="152" y="361" on="1"/>
        <pt x="106" y="497" on="0"/>
        <pt x="106" y="643" on="1"/>
        <pt x="106" y="709" on="1"/>
        <pt x="106" y="841" on="0"/>
        <pt x="152" y="976" on="1"/>
        <pt x="243" y="1244" on="0"/>
        <pt x="461" y="1347" on="1"/>
        <pt x="588" y="1407" on="0"/>
        <pt x="918" y="1407" on="0"/>
        <pt x="1026" y="1348" on="1"/>
        <pt x="1063" y="1328" on="0"/>
        <pt x="1122" y="1218" on="0"/>
        <pt x="1122" y="1177" on="1"/>
        <pt x="1122" y="1100" on="0"/>
        <pt x="1069" y="1100" on="1"/>
        <pt x="1042" y="1100" on="0"/>
        <pt x="988" y="1149" on="1"/>
        <pt x="876" y="1252" on="0"/>
        <pt x="731" y="1252" on="1"/>
        <pt x="625" y="1252" on="0"/>
        <pt x="544" y="1209" on="1"/>
        <pt x="319" y="1088" on="0"/>
      </contour>
    </TTGlyph>
    <TTGlyph name="Ccedilla" xMin="98" yMin="-450" xMax="1149" yMax="1376">
      <contour>
        <pt x="626" y="-450" on="1"/>
        <pt x="600" y="-450" on="1"/>
        <pt x="525" y="-450" on="0"/>
        <pt x="525" y="-403" on="1"/>
        <pt x="525" y="-366" on="0"/>
        <pt x="548" y="-354" on="1"/>
        <pt x="551" y="-353" on="0"/>
        <pt x="650" y="-336" on="0"/>
        <pt x="692" y="-294" on="0"/>
        <pt x="692" y="-211" on="0"/>
        <pt x="601" y="-147" on="0"/>
        <pt x="601" y="-87" on="0"/>
        <pt x="633" y="-29" on="1"/>
        <pt x="535" y="-21" on="0"/>
        <pt x="448" y="16" on="1"/>
        <pt x="228" y="110" on="0"/>
        <pt x="145" y="351" on="1"/>
        <pt x="98" y="487" on="0"/>
        <pt x="98" y="633" on="1"/>
        <pt x="98" y="701" on="1"/>
        <pt x="98" y="836" on="0"/>
        <pt x="143" y="970" on="1"/>
        <pt x="229" y="1225" on="0"/>
        <pt x="430" y="1319" on="1"/>
        <pt x="553" y="1376" on="0"/>
        <pt x="669" y="1376" on="1"/>
        <pt x="701" y="1376" on="1"/>
        <pt x="772" y="1376" on="0"/>
        <pt x="1046" y="1296" on="0"/>
        <pt x="1055" y="1290" on="1"/>
        <pt x="1140" y="1230" on="0"/>
        <pt x="1140" y="1053" on="0"/>
        <pt x="1084" y="1053" on="1"/>
        <pt x="1054" y="1053" on="0"/>
        <pt x="903" y="1167" on="0"/>
        <pt x="765" y="1223" on="0"/>
        <pt x="586" y="1223" on="0"/>
        <pt x="450" y="1157" on="0"/>
        <pt x="396" y="1075" on="1"/>
        <pt x="302" y="931" on="0"/>
        <pt x="302" y="650" on="1"/>
        <pt x="302" y="514" on="0"/>
        <pt x="367" y="313" on="0"/>
        <pt x="446" y="204" on="0"/>
        <pt x="590" y="130" on="0"/>
        <pt x="686" y="130" on="1"/>
        <pt x="840" y="130" on="0"/>
        <pt x="1010" y="239" on="1"/>
        <pt x="1074" y="280" on="0"/>
        <pt x="1097" y="280" on="1"/>
        <pt x="1149" y="280" on="0"/>
        <pt x="1149" y="233" on="1"/>
        <pt x="1149" y="203" on="0"/>
        <pt x="1079" y="98" on="0"/>
        <pt x="1023" y="63" on="1"/>
        <pt x="880" y="-28" on="0"/>
        <pt x="722" y="-31" on="1"/>
        <pt x="718" y="-66" on="1"/>
        <pt x="718" y="-82" on="0"/>
        <pt x="761" y="-110" on="1"/>
        <pt x="860" y="-176" on="0"/>
        <pt x="860" y="-275" on="1"/>
        <pt x="860" y="-283" on="1"/>
        <pt x="859" y="-291" on="1"/>
        <pt x="859" y="-356" on="0"/>
        <pt x="798" y="-395" on="1"/>
        <pt x="712" y="-450" on="0"/>
      </contour>
    </TTGlyph>
    <TTGlyph name="D" xMin="161" yMin="3" xMax="1259" yMax="1403">
      <contour>
        <pt x="1034" y="674" on="1"/>
        <pt x="1034" y="744" on="1"/>
        <pt x="1034" y="857" on="0"/>
        <pt x="1003" y="963" on="1"/>
        <pt x="941" y="1174" on="0"/>
        <pt x="778" y="1246" on="1"/>
        <pt x="697" y="1282" on="0"/>
        <pt x="603" y="1282" on="1"/>
        <pt x="557" y="1282" on="1"/>
        <pt x="464" y="1282" on="0"/>
        <pt x="428" y="1250" on="1"/>
        <pt x="409" y="1233" on="0"/>
        <pt x="407" y="1142" on="0"/>
        <pt x="407" y="1128" on="1"/>
        <pt x="406" y="1096" on="1"/>
        <pt x="406" y="809" on="1"/>
        <pt x="407" y="777" on="1"/>
        <pt x="407" y="679" on="1"/>
        <pt x="406" y="646" on="1"/>
        <pt x="406" y="564" on="1"/>
        <pt x="405" y="499" on="1"/>
        <pt x="405" y="419" on="1"/>
        <pt x="405" y="204" on="0"/>
        <pt x="421" y="179" on="1"/>
        <pt x="448" y="138" on="0"/>
        <pt x="573" y="138" on="1"/>
        <pt x="587" y="139" on="1"/>
        <pt x="788" y="139" on="0"/>
        <pt x="905" y="272" on="1"/>
        <pt x="967" y="343" on="0"/>
        <pt x="1034" y="567" on="0"/>
      </contour>
      <contour>
        <pt x="161" y="1328" on="1"/>
        <pt x="161" y="1368" on="0"/>
        <pt x="241" y="1382" on="1"/>
        <pt x="361" y="1403" on="0"/>
        <pt x="543" y="1403" on="1"/>
        <pt x="612" y="1403" on="1"/>
        <pt x="1052" y="1403" on="0"/>
        <pt x="1206" y="1043" on="1"/>
        <pt x="1259" y="920" on="0"/>
        <pt x="1259" y="766" on="1"/>
        <pt x="1259" y="760" on="1"/>
        <pt x="1259" y="710" on="1"/>
        <pt x="1259" y="707" on="0"/>
        <pt x="1259" y="704" on="1"/>
        <pt x="1259" y="559" on="0"/>
        <pt x="1212" y="423" on="1"/>
        <pt x="1068" y="3" on="0"/>
        <pt x="538" y="3" on="1"/>
        <pt x="493" y="3" on="1"/>
        <pt x="471" y="4" on="1"/>
        <pt x="302" y="4" on="0"/>
        <pt x="220" y="24" on="1"/>
        <pt x="169" y="36" on="0"/>
        <pt x="169" y="75" on="1"/>
        <pt x="169" y="91" on="0"/>
        <pt x="212" y="184" on="0"/>
        <pt x="222" y="268" on="0"/>
        <pt x="222" y="474" on="1"/>
        <pt x="222" y="783" on="1"/>
        <pt x="221" y="852" on="1"/>
        <pt x="213" y="1074" on="1"/>
        <pt x="213" y="1169" on="0"/>
        <pt x="195" y="1234" on="0"/>
        <pt x="161" y="1307" on="0"/>
      </contour>
    </TTGlyph>
    <TTGlyph name="E" xMin="150" yMin="4" xMax="1043" yMax="1408">
      <contour>
        <pt x="805" y="837" on="1"/>
        <pt x="890" y="837" on="0"/>
        <pt x="890" y="719" on="1"/>
        <pt x="890" y="691" on="0"/>
        <pt x="841" y="626" on="0"/>
        <pt x="771" y="626" on="0"/>
        <pt x="663" y="648" on="0"/>
        <pt x="489" y="648" on="0"/>
        <pt x="401" y="575" on="0"/>
        <pt x="401" y="463" on="1"/>
        <pt x="401" y="286" on="0"/>
        <pt x="446" y="210" on="1"/>
        <pt x="481" y="151" on="0"/>
        <pt x="644" y="151" on="1"/>
        <pt x="746" y="151" on="0"/>
        <pt x="993" y="197" on="0"/>
        <pt x="996" y="197" on="1"/>
        <pt x="1043" y="197" on="0"/>
        <pt x="1043" y="94" on="0"/>
        <pt x="1005" y="38" on="0"/>
        <pt x="878" y="4" on="0"/>
        <pt x="552" y="4" on="1"/>
        <pt x="515" y="5" on="1"/>
        <pt x="307" y="5" on="0"/>
        <pt x="150" y="46" on="0"/>
        <pt x="150" y="122" on="1"/>
        <pt x="156" y="149" on="1"/>
        <pt x="165" y="176" on="1"/>
        <pt x="173" y="205" on="1"/>
        <pt x="194" y="287" on="0"/>
        <pt x="194" y="639" on="0"/>
        <pt x="202" y="765" on="1"/>
        <pt x="210" y="890" on="0"/>
        <pt x="210" y="1038" on="1"/>
        <pt x="210" y="1042" on="0"/>
        <pt x="211" y="1046" on="1"/>
        <pt x="211" y="1188" on="0"/>
        <pt x="192" y="1236" on="1"/>
        <pt x="173" y="1286" on="0"/>
        <pt x="173" y="1312" on="1"/>
        <pt x="173" y="1364" on="0"/>
        <pt x="285" y="1381" on="1"/>
        <pt x="463" y="1408" on="0"/>
        <pt x="749" y="1408" on="1"/>
        <pt x="858" y="1408" on="1"/>
        <pt x="939" y="1408" on="0"/>
        <pt x="1014" y="1354" on="0"/>
        <pt x="1014" y="1238" on="0"/>
        <pt x="947" y="1238" on="1"/>
        <pt x="935" y="1238" on="0"/>
        <pt x="904" y="1242" on="1"/>
        <pt x="852" y="1249" on="1"/>
        <pt x="805" y="1254" on="0"/>
        <pt x="727" y="1254" on="1"/>
        <pt x="693" y="1255" on="1"/>
        <pt x="659" y="1256" on="0"/>
        <pt x="625" y="1256" on="1"/>
        <pt x="506" y="1256" on="0"/>
        <pt x="471" y="1196" on="1"/>
        <pt x="423" y="1114" on="0"/>
        <pt x="423" y="953" on="1"/>
        <pt x="423" y="875" on="0"/>
        <pt x="506" y="811" on="0"/>
        <pt x="627" y="811" on="1"/>
        <pt x="661" y="811" on="0"/>
        <pt x="763" y="837" on="0"/>
      </contour>
    </TTGlyph>
    <TTGlyph name="Eacute" xMin="143" yMin="42" xMax="1040" yMax="1829">
      <contour>
        <pt x="538" y="1489" on="1"/>
        <pt x="511" y="1489" on="1"/>
        <pt x="476" y="1489" on="0"/>
        <pt x="476" y="1527" on="1"/>
        <pt x="476" y="1532" on="1"/>
        <pt x="476" y="1568" on="0"/>
        <pt x="656" y="1774" on="1"/>
        <pt x="704" y="1829" on="0"/>
        <pt x="760" y="1829" on="1"/>
        <pt x="783" y="1829" on="1"/>
        <pt x="854" y="1829" on="0"/>
        <pt x="854" y="1795" on="1"/>
        <pt x="854" y="1791" on="1"/>
        <pt x="853" y="1787" on="1"/>
        <pt x="853" y="1755" on="0"/>
        <pt x="587" y="1489" on="0"/>
      </contour>
      <contour>
        <pt x="858" y="1410" on="1"/>
        <pt x="1007" y="1410" on="0"/>
        <pt x="1007" y="1311" on="1"/>
        <pt x="1007" y="1230" on="0"/>
        <pt x="952" y="1230" on="1"/>
        <pt x="933" y="1230" on="0"/>
        <pt x="887" y="1244" on="1"/>
        <pt x="776" y="1277" on="0"/>
        <pt x="577" y="1277" on="1"/>
        <pt x="571" y="1277" on="0"/>
        <pt x="565" y="1277" on="1"/>
        <pt x="470" y="1277" on="0"/>
        <pt x="408" y="1151" on="0"/>
        <pt x="408" y="888" on="0"/>
        <pt x="504" y="828" on="0"/>
        <pt x="629" y="828" on="1"/>
        <pt x="655" y="828" on="0"/>
        <pt x="774" y="863" on="0"/>
        <pt x="775" y="863" on="1"/>
        <pt x="842" y="863" on="0"/>
        <pt x="866" y="820" on="1"/>
        <pt x="878" y="798" on="0"/>
        <pt x="878" y="677" on="0"/>
        <pt x="821" y="632" on="0"/>
        <pt x="774" y="632" on="0"/>
        <pt x="659" y="673" on="0"/>
        <pt x="615" y="673" on="1"/>
        <pt x="488" y="673" on="0"/>
        <pt x="404" y="602" on="0"/>
        <pt x="404" y="488" on="1"/>
        <pt x="404" y="298" on="0"/>
        <pt x="440" y="229" on="1"/>
        <pt x="466" y="178" on="0"/>
        <pt x="590" y="178" on="1"/>
        <pt x="780" y="178" on="0"/>
        <pt x="964" y="236" on="0"/>
        <pt x="992" y="236" on="1"/>
        <pt x="1040" y="236" on="0"/>
        <pt x="1040" y="177" on="1"/>
        <pt x="1040" y="90" on="0"/>
        <pt x="978" y="61" on="1"/>
        <pt x="938" y="42" on="0"/>
        <pt x="656" y="42" on="1"/>
        <pt x="618" y="42" on="1"/>
        <pt x="580" y="43" on="1"/>
        <pt x="468" y="44" on="1"/>
        <pt x="431" y="45" on="0"/>
        <pt x="252" y="45" on="0"/>
        <pt x="143" y="87" on="0"/>
        <pt x="143" y="125" on="1"/>
        <pt x="143" y="152" on="0"/>
        <pt x="190" y="250" on="0"/>
        <pt x="202" y="395" on="0"/>
        <pt x="202" y="1109" on="0"/>
        <pt x="190" y="1223" on="0"/>
        <pt x="150" y="1306" on="0"/>
        <pt x="150" y="1334" on="1"/>
        <pt x="150" y="1374" on="0"/>
        <pt x="358" y="1410" on="0"/>
        <pt x="595" y="1410" on="1"/>
      </contour>
    </TTGlyph>
    <TTGlyph name="Ecircumflex" xMin="136" yMin="8" xMax="1049" yMax="1837">
      <contour>
        <pt x="845" y="1518" on="1"/>
        <pt x="831" y="1518" on="1"/>
        <pt x="787" y="1518" on="0"/>
        <pt x="611" y="1694" on="0"/>
        <pt x="587" y="1694" on="0"/>
        <pt x="415" y="1522" on="0"/>
        <pt x="306" y="1522" on="0"/>
        <pt x="306" y="1548" on="1"/>
        <pt x="306" y="1554" on="1"/>
        <pt x="306" y="1610" on="0"/>
        <pt x="509" y="1796" on="1"/>
        <pt x="554" y="1837" on="0"/>
        <pt x="647" y="1837" on="0"/>
        <pt x="694" y="1790" on="1"/>
        <pt x="891" y="1593" on="0"/>
        <pt x="891" y="1549" on="1"/>
        <pt x="891" y="1543" on="1"/>
        <pt x="891" y="1518" on="0"/>
      </contour>
      <contour>
        <pt x="882" y="742" on="1"/>
        <pt x="882" y="609" on="0"/>
        <pt x="794" y="609" on="1"/>
        <pt x="769" y="609" on="0"/>
        <pt x="658" y="650" on="0"/>
        <pt x="484" y="650" on="0"/>
        <pt x="398" y="580" on="0"/>
        <pt x="398" y="464" on="1"/>
        <pt x="398" y="273" on="0"/>
        <pt x="435" y="200" on="1"/>
        <pt x="463" y="146" on="0"/>
        <pt x="587" y="146" on="1"/>
        <pt x="789" y="146" on="0"/>
        <pt x="964" y="205" on="0"/>
        <pt x="997" y="205" on="1"/>
        <pt x="1049" y="205" on="0"/>
        <pt x="1049" y="148" on="1"/>
        <pt x="1049" y="56" on="0"/>
        <pt x="987" y="28" on="1"/>
        <pt x="943" y="8" on="0"/>
        <pt x="660" y="8" on="1"/>
        <pt x="621" y="8" on="1"/>
        <pt x="312" y="8" on="0"/>
        <pt x="136" y="44" on="0"/>
        <pt x="136" y="92" on="1"/>
        <pt x="136" y="119" on="0"/>
        <pt x="185" y="226" on="0"/>
        <pt x="195" y="366" on="0"/>
        <pt x="195" y="1083" on="0"/>
        <pt x="182" y="1211" on="0"/>
        <pt x="143" y="1297" on="0"/>
        <pt x="143" y="1323" on="1"/>
        <pt x="143" y="1365" on="0"/>
        <pt x="346" y="1403" on="0"/>
        <pt x="592" y="1403" on="1"/>
        <pt x="784" y="1403" on="1"/>
        <pt x="911" y="1403" on="0"/>
        <pt x="1013" y="1362" on="0"/>
        <pt x="1013" y="1303" on="1"/>
        <pt x="1013" y="1217" on="0"/>
        <pt x="956" y="1217" on="1"/>
        <pt x="931" y="1218" on="0"/>
        <pt x="885" y="1232" on="1"/>
        <pt x="776" y="1266" on="0"/>
        <pt x="560" y="1266" on="1"/>
        <pt x="461" y="1266" on="0"/>
        <pt x="400" y="1137" on="0"/>
        <pt x="400" y="868" on="0"/>
        <pt x="493" y="806" on="0"/>
        <pt x="624" y="806" on="1"/>
        <pt x="649" y="806" on="0"/>
        <pt x="767" y="842" on="0"/>
        <pt x="827" y="842" on="0"/>
        <pt x="882" y="795" on="0"/>
      </contour>
    </TTGlyph>
    <TTGlyph name="Edieresis" xMin="136" yMin="22" xMax="1041" yMax="1770">
      <contour>
        <pt x="499" y="1646" on="1"/>
        <pt x="496" y="1616" on="1"/>
        <pt x="496" y="1547" on="0"/>
        <pt x="439" y="1547" on="1"/>
        <pt x="409" y="1541" on="1"/>
        <pt x="398" y="1541" on="1"/>
        <pt x="369" y="1545" on="1"/>
        <pt x="305" y="1545" on="0"/>
        <pt x="305" y="1604" on="1"/>
        <pt x="300" y="1632" on="1"/>
        <pt x="300" y="1662" on="1"/>
        <pt x="301" y="1666" on="1"/>
        <pt x="301" y="1673" on="1"/>
        <pt x="304" y="1697" on="1"/>
        <pt x="305" y="1700" on="0"/>
        <pt x="305" y="1704" on="1"/>
        <pt x="305" y="1762" on="0"/>
        <pt x="372" y="1762" on="1"/>
        <pt x="375" y="1763" on="1"/>
        <pt x="379" y="1764" on="1"/>
        <pt x="411" y="1767" on="1"/>
        <pt x="415" y="1767" on="1"/>
        <pt x="439" y="1763" on="1"/>
        <pt x="459" y="1763" on="0"/>
        <pt x="500" y="1712" on="0"/>
        <pt x="500" y="1658" on="1"/>
        <pt x="500" y="1650" on="1"/>
      </contour>
      <contour>
        <pt x="738" y="1562" on="1"/>
        <pt x="681" y="1562" on="0"/>
        <pt x="681" y="1627" on="1"/>
        <pt x="679" y="1635" on="0"/>
        <pt x="679" y="1638" on="1"/>
        <pt x="677" y="1652" on="1"/>
        <pt x="677" y="1674" on="1"/>
        <pt x="678" y="1678" on="1"/>
        <pt x="678" y="1685" on="1"/>
        <pt x="680" y="1691" on="0"/>
        <pt x="680" y="1695" on="1"/>
        <pt x="680" y="1767" on="0"/>
        <pt x="754" y="1767" on="1"/>
        <pt x="774" y="1770" on="1"/>
        <pt x="796" y="1770" on="1"/>
        <pt x="814" y="1764" on="0"/>
        <pt x="829" y="1764" on="1"/>
        <pt x="884" y="1764" on="0"/>
        <pt x="884" y="1672" on="1"/>
        <pt x="884" y="1661" on="1"/>
        <pt x="879" y="1626" on="1"/>
        <pt x="879" y="1563" on="0"/>
        <pt x="817" y="1563" on="1"/>
        <pt x="803" y="1559" on="0"/>
        <pt x="800" y="1559" on="1"/>
        <pt x="775" y="1557" on="1"/>
        <pt x="772" y="1558" on="1"/>
        <pt x="744" y="1561" on="1"/>
        <pt x="740" y="1562" on="0"/>
      </contour>
      <contour>
        <pt x="851" y="1403" on="1"/>
        <pt x="1006" y="1403" on="0"/>
        <pt x="1006" y="1306" on="1"/>
        <pt x="1006" y="1218" on="0"/>
        <pt x="949" y="1218" on="1"/>
        <pt x="928" y="1218" on="0"/>
        <pt x="878" y="1234" on="1"/>
        <pt x="754" y="1274" on="0"/>
        <pt x="551" y="1275" on="1"/>
        <pt x="449" y="1275" on="0"/>
        <pt x="386" y="1152" on="0"/>
        <pt x="386" y="957" on="1"/>
        <pt x="386" y="877" on="0"/>
        <pt x="479" y="813" on="0"/>
        <pt x="628" y="813" on="0"/>
        <pt x="769" y="849" on="0"/>
        <pt x="812" y="849" on="0"/>
        <pt x="869" y="804" on="0"/>
        <pt x="869" y="744" on="1"/>
        <pt x="869" y="616" on="0"/>
        <pt x="786" y="615" on="1"/>
        <pt x="758" y="615" on="0"/>
        <pt x="645" y="658" on="0"/>
        <pt x="474" y="658" on="0"/>
        <pt x="386" y="589" on="0"/>
        <pt x="386" y="473" on="1"/>
        <pt x="386" y="282" on="0"/>
        <pt x="421" y="208" on="1"/>
        <pt x="447" y="152" on="0"/>
        <pt x="564" y="152" on="1"/>
        <pt x="765" y="152" on="0"/>
        <pt x="964" y="215" on="0"/>
        <pt x="985" y="215" on="1"/>
        <pt x="1041" y="215" on="0"/>
        <pt x="1041" y="55" on="0"/>
        <pt x="956" y="33" on="1"/>
        <pt x="914" y="22" on="0"/>
        <pt x="663" y="22" on="1"/>
        <pt x="624" y="22" on="1"/>
        <pt x="311" y="22" on="0"/>
        <pt x="136" y="52" on="0"/>
        <pt x="136" y="98" on="1"/>
        <pt x="136" y="124" on="1"/>
        <pt x="145" y="150" on="1"/>
        <pt x="158" y="174" on="1"/>
        <pt x="170" y="200" on="1"/>
        <pt x="183" y="233" on="0"/>
        <pt x="195" y="382" on="0"/>
        <pt x="195" y="1083" on="0"/>
        <pt x="180" y="1217" on="0"/>
        <pt x="141" y="1302" on="0"/>
        <pt x="141" y="1323" on="1"/>
        <pt x="141" y="1366" on="0"/>
        <pt x="339" y="1400" on="0"/>
        <pt x="548" y="1400" on="1"/>
        <pt x="624" y="1402" on="1"/>
        <pt x="776" y="1403" on="1"/>
      </contour>
    </TTGlyph>
    <TTGlyph name="Egrave" xMin="141" yMin="13" xMax="1050" yMax="1841">
      <contour>
        <pt x="697" y="1520" on="1"/>
        <pt x="677" y="1520" on="1"/>
        <pt x="614" y="1520" on="0"/>
        <pt x="536" y="1588" on="1"/>
        <pt x="341" y="1759" on="0"/>
        <pt x="341" y="1780" on="1"/>
        <pt x="341" y="1785" on="1"/>
        <pt x="341" y="1841" on="0"/>
        <pt x="413" y="1841" on="1"/>
        <pt x="438" y="1841" on="1"/>
        <pt x="483" y="1841" on="0"/>
        <pt x="539" y="1792" on="1"/>
        <pt x="598" y="1726" on="1"/>
        <pt x="604" y="1719" on="0"/>
        <pt x="615" y="1705" on="0"/>
        <pt x="634" y="1686" on="0"/>
        <pt x="665" y="1646" on="0"/>
        <pt x="725" y="1578" on="0"/>
        <pt x="725" y="1554" on="1"/>
        <pt x="725" y="1544" on="1"/>
        <pt x="725" y="1520" on="0"/>
      </contour>
      <contour>
        <pt x="800" y="844" on="1"/>
        <pt x="878" y="844" on="0"/>
        <pt x="878" y="719" on="1"/>
        <pt x="878" y="656" on="0"/>
        <pt x="820" y="609" on="0"/>
        <pt x="768" y="609" on="0"/>
        <pt x="656" y="651" on="0"/>
        <pt x="481" y="651" on="0"/>
        <pt x="394" y="582" on="0"/>
        <pt x="394" y="466" on="1"/>
        <pt x="394" y="274" on="0"/>
        <pt x="429" y="200" on="1"/>
        <pt x="456" y="144" on="0"/>
        <pt x="576" y="144" on="1"/>
        <pt x="773" y="144" on="0"/>
        <pt x="970" y="205" on="0"/>
        <pt x="995" y="205" on="1"/>
        <pt x="1050" y="205" on="0"/>
        <pt x="1050" y="59" on="0"/>
        <pt x="946" y="13" on="0"/>
        <pt x="783" y="13" on="1"/>
        <pt x="591" y="13" on="1"/>
        <pt x="553" y="14" on="1"/>
        <pt x="477" y="15" on="1"/>
        <pt x="439" y="16" on="0"/>
        <pt x="255" y="16" on="0"/>
        <pt x="141" y="54" on="0"/>
        <pt x="141" y="123" on="0"/>
        <pt x="188" y="219" on="0"/>
        <pt x="200" y="393" on="0"/>
        <pt x="200" y="1081" on="0"/>
        <pt x="185" y="1212" on="0"/>
        <pt x="147" y="1299" on="0"/>
        <pt x="147" y="1320" on="1"/>
        <pt x="147" y="1364" on="0"/>
        <pt x="229" y="1378" on="1"/>
        <pt x="361" y="1401" on="0"/>
        <pt x="668" y="1401" on="1"/>
        <pt x="858" y="1401" on="1"/>
        <pt x="1013" y="1401" on="0"/>
        <pt x="1013" y="1305" on="1"/>
        <pt x="1013" y="1218" on="0"/>
        <pt x="957" y="1218" on="1"/>
        <pt x="933" y="1218" on="0"/>
        <pt x="825" y="1251" on="0"/>
        <pt x="708" y="1271" on="0"/>
        <pt x="559" y="1271" on="1"/>
        <pt x="457" y="1271" on="0"/>
        <pt x="429" y="1214" on="1"/>
        <pt x="393" y="1142" on="0"/>
        <pt x="393" y="953" on="1"/>
        <pt x="393" y="872" on="0"/>
        <pt x="486" y="808" on="0"/>
        <pt x="617" y="808" on="1"/>
        <pt x="644" y="808" on="0"/>
        <pt x="760" y="844" on="0"/>
      </contour>
    </TTGlyph>
    <TTGlyph name="Eth" xMin="90" yMin="0" xMax="1285" yMax="1403">
      <contour>
        <pt x="606" y="1284" on="1"/>
        <pt x="532" y="1284" on="1"/>
        <pt x="457" y="1284" on="0"/>
        <pt x="418" y="1214" on="0"/>
        <pt x="418" y="1035" on="1"/>
        <pt x="418" y="1016" on="1"/>
        <pt x="418" y="842" on="0"/>
        <pt x="447" y="811" on="1"/>
        <pt x="464" y="793" on="0"/>
        <pt x="668" y="770" on="0"/>
        <pt x="673" y="768" on="1"/>
        <pt x="694" y="757" on="0"/>
        <pt x="694" y="679" on="0"/>
        <pt x="665" y="665" on="1"/>
        <pt x="659" y="662" on="0"/>
        <pt x="469" y="635" on="0"/>
        <pt x="420" y="578" on="0"/>
        <pt x="420" y="188" on="0"/>
        <pt x="459" y="118" on="0"/>
        <pt x="548" y="118" on="1"/>
        <pt x="604" y="118" on="1"/>
        <pt x="1062" y="118" on="0"/>
        <pt x="1062" y="688" on="1"/>
        <pt x="1061" y="709" on="1"/>
        <pt x="1061" y="1284" on="0"/>
      </contour>
      <contour>
        <pt x="228" y="1044" on="1"/>
        <pt x="227" y="1068" on="0"/>
        <pt x="227" y="1212" on="0"/>
        <pt x="164" y="1326" on="0"/>
        <pt x="164" y="1344" on="1"/>
        <pt x="164" y="1381" on="0"/>
        <pt x="273" y="1399" on="0"/>
        <pt x="399" y="1399" on="1"/>
        <pt x="472" y="1402" on="1"/>
        <pt x="573" y="1403" on="1"/>
        <pt x="598" y="1403" on="1"/>
        <pt x="1102" y="1403" on="0"/>
        <pt x="1236" y="1018" on="1"/>
        <pt x="1285" y="877" on="0"/>
        <pt x="1285" y="744" on="1"/>
        <pt x="1285" y="689" on="1"/>
        <pt x="1284" y="528" on="0"/>
        <pt x="1234" y="392" on="1"/>
        <pt x="1133" y="119" on="0"/>
        <pt x="869" y="35" on="1"/>
        <pt x="759" y="0" on="0"/>
        <pt x="569" y="0" on="1"/>
        <pt x="420" y="0" on="1"/>
        <pt x="258" y="0" on="0"/>
        <pt x="171" y="20" on="0"/>
        <pt x="171" y="60" on="1"/>
        <pt x="171" y="77" on="0"/>
        <pt x="219" y="172" on="0"/>
        <pt x="231" y="288" on="0"/>
        <pt x="231" y="615" on="0"/>
        <pt x="207" y="648" on="0"/>
        <pt x="120" y="665" on="0"/>
        <pt x="90" y="685" on="0"/>
        <pt x="90" y="769" on="0"/>
        <pt x="131" y="782" on="1"/>
        <pt x="217" y="809" on="0"/>
        <pt x="221" y="815" on="1"/>
        <pt x="231" y="831" on="0"/>
        <pt x="231" y="923" on="1"/>
        <pt x="229" y="1020" on="1"/>
      </contour>
    </TTGlyph>
    <TTGlyph name="Euro" xMin="94" yMin="-6" xMax="1104" yMax="1366">
      <contour>
        <pt x="817" y="595" on="0"/>
        <pt x="817" y="518" on="0"/>
        <pt x="726" y="491" on="1"/>
        <pt x="586" y="450" on="0"/>
        <pt x="523" y="407" on="0"/>
        <pt x="523" y="288" on="0"/>
        <pt x="706" y="166" on="0"/>
        <pt x="831" y="166" on="1"/>
        <pt x="871" y="166" on="0"/>
        <pt x="1051" y="214" on="0"/>
        <pt x="1064" y="214" on="1"/>
        <pt x="1104" y="214" on="0"/>
        <pt x="1104" y="173" on="1"/>
        <pt x="1104" y="149" on="0"/>
        <pt x="1035" y="69" on="0"/>
        <pt x="869" y="-6" on="0"/>
        <pt x="763" y="-6" on="1"/>
        <pt x="543" y="-6" on="0"/>
        <pt x="412" y="107" on="1"/>
        <pt x="336" y="172" on="0"/>
        <pt x="208" y="440" on="0"/>
        <pt x="166" y="471" on="1"/>
        <pt x="94" y="524" on="0"/>
        <pt x="94" y="544" on="1"/>
        <pt x="94" y="581" on="0"/>
        <pt x="205" y="636" on="0"/>
        <pt x="205" y="658" on="1"/>
        <pt x="205" y="717" on="0"/>
        <pt x="177" y="738" on="1"/>
        <pt x="109" y="790" on="0"/>
        <pt x="109" y="797" on="1"/>
        <pt x="109" y="829" on="0"/>
        <pt x="177" y="886" on="1"/>
        <pt x="216" y="918" on="0"/>
        <pt x="286" y="1044" on="1"/>
        <pt x="356" y="1172" on="0"/>
        <pt x="436" y="1240" on="1"/>
        <pt x="586" y="1366" on="0"/>
        <pt x="796" y="1366" on="1"/>
        <pt x="933" y="1366" on="0"/>
        <pt x="1099" y="1277" on="0"/>
        <pt x="1099" y="1201" on="1"/>
        <pt x="1099" y="1155" on="0"/>
        <pt x="1031" y="1155" on="1"/>
        <pt x="1024" y="1155" on="0"/>
        <pt x="866" y="1202" on="0"/>
        <pt x="815" y="1202" on="1"/>
        <pt x="725" y="1202" on="0"/>
        <pt x="547" y="1079" on="0"/>
        <pt x="547" y="996" on="1"/>
        <pt x="548" y="916" on="0"/>
        <pt x="746" y="876" on="1"/>
        <pt x="847" y="856" on="0"/>
        <pt x="847" y="823" on="1"/>
        <pt x="846" y="764" on="0"/>
        <pt x="621" y="749" on="1"/>
        <pt x="508" y="741" on="0"/>
        <pt x="485" y="731" on="1"/>
        <pt x="446" y="714" on="0"/>
        <pt x="446" y="630" on="0"/>
        <pt x="501" y="618" on="1"/>
        <pt x="514" y="615" on="0"/>
        <pt x="573" y="612" on="1"/>
        <pt x="686" y="606" on="1"/>
      </contour>
    </TTGlyph>
    <TTGlyph name="F" xMin="165" yMin="34" xMax="1017" yMax="1407">
      <contour>
        <pt x="304" y="34" on="1"/>
        <pt x="281" y="34" on="1"/>
        <pt x="231" y="34" on="0"/>
        <pt x="165" y="98" on="0"/>
        <pt x="165" y="139" on="1"/>
        <pt x="165" y="162" on="1"/>
        <pt x="165" y="180" on="0"/>
        <pt x="202" y="279" on="0"/>
        <pt x="213" y="350" on="0"/>
        <pt x="213" y="477" on="1"/>
        <pt x="215" y="537" on="1"/>
        <pt x="216" y="567" on="0"/>
        <pt x="216" y="627" on="1"/>
        <pt x="217" y="657" on="1"/>
        <pt x="219" y="687" on="1"/>
        <pt x="221" y="726" on="0"/>
        <pt x="221" y="774" on="1"/>
        <pt x="221" y="896" on="1"/>
        <pt x="221" y="1154" on="0"/>
        <pt x="198" y="1225" on="1"/>
        <pt x="174" y="1301" on="1"/>
        <pt x="174" y="1354" on="0"/>
        <pt x="268" y="1367" on="1"/>
        <pt x="565" y="1407" on="0"/>
        <pt x="852" y="1407" on="1"/>
        <pt x="882" y="1407" on="1"/>
        <pt x="945" y="1407" on="0"/>
        <pt x="1017" y="1355" on="0"/>
        <pt x="1017" y="1306" on="1"/>
        <pt x="1017" y="1285" on="1"/>
        <pt x="1017" y="1236" on="0"/>
        <pt x="958" y="1236" on="1"/>
        <pt x="955" y="1236" on="0"/>
        <pt x="799" y="1265" on="0"/>
        <pt x="717" y="1265" on="1"/>
        <pt x="689" y="1264" on="1"/>
        <pt x="661" y="1263" on="0"/>
        <pt x="633" y="1263" on="1"/>
        <pt x="514" y="1263" on="0"/>
        <pt x="435" y="1149" on="0"/>
        <pt x="435" y="868" on="0"/>
        <pt x="509" y="796" on="0"/>
        <pt x="609" y="796" on="1"/>
        <pt x="638" y="796" on="0"/>
        <pt x="741" y="818" on="0"/>
        <pt x="813" y="818" on="0"/>
        <pt x="883" y="746" on="0"/>
        <pt x="883" y="695" on="1"/>
        <pt x="883" y="614" on="0"/>
        <pt x="794" y="614" on="1"/>
        <pt x="701" y="620" on="1"/>
        <pt x="540" y="620" on="0"/>
        <pt x="418" y="467" on="0"/>
        <pt x="418" y="239" on="1"/>
        <pt x="430" y="110" on="1"/>
        <pt x="430" y="86" on="0"/>
        <pt x="370" y="34" on="0"/>
      </contour>
    </TTGlyph>
    <TTGlyph name="G" xMin="112" yMin="-13" xMax="1191" yMax="1412">
      <contour>
        <pt x="999" y="433" on="1"/>
        <pt x="999" y="504" on="0"/>
        <pt x="962" y="540" on="1"/>
        <pt x="959" y="543" on="0"/>
        <pt x="886" y="593" on="0"/>
        <pt x="886" y="605" on="1"/>
        <pt x="886" y="640" on="0"/>
        <pt x="1079" y="640" on="0"/>
        <pt x="1145" y="610" on="1"/>
        <pt x="1191" y="589" on="0"/>
        <pt x="1191" y="543" on="1"/>
        <pt x="1191" y="193" on="0"/>
        <pt x="1129" y="107" on="1"/>
        <pt x="1101" y="67" on="0"/>
        <pt x="1033" y="42" on="1"/>
        <pt x="886" y="-13" on="0"/>
        <pt x="782" y="-13" on="1"/>
        <pt x="747" y="-13" on="1"/>
        <pt x="620" y="-13" on="0"/>
        <pt x="498" y="32" on="1"/>
        <pt x="258" y="120" on="0"/>
        <pt x="162" y="386" on="1"/>
        <pt x="112" y="526" on="0"/>
        <pt x="112" y="693" on="1"/>
        <pt x="112" y="733" on="1"/>
        <pt x="112" y="864" on="0"/>
        <pt x="163" y="1000" on="1"/>
        <pt x="264" y="1272" on="0"/>
        <pt x="517" y="1369" on="1"/>
        <pt x="630" y="1412" on="0"/>
        <pt x="743" y="1412" on="1"/>
        <pt x="782" y="1412" on="1"/>
        <pt x="969" y="1412" on="0"/>
        <pt x="1151" y="1315" on="0"/>
        <pt x="1151" y="1209" on="1"/>
        <pt x="1151" y="1136" on="0"/>
        <pt x="1076" y="1136" on="1"/>
        <pt x="1065" y="1136" on="0"/>
        <pt x="955" y="1210" on="0"/>
        <pt x="841" y="1249" on="0"/>
        <pt x="662" y="1249" on="0"/>
        <pt x="578" y="1209" on="1"/>
        <pt x="329" y="1090" on="0"/>
        <pt x="329" y="685" on="1"/>
        <pt x="329" y="558" on="0"/>
        <pt x="366" y="453" on="1"/>
        <pt x="402" y="348" on="0"/>
        <pt x="454" y="290" on="1"/>
        <pt x="560" y="171" on="0"/>
        <pt x="746" y="171" on="1"/>
        <pt x="865" y="171" on="0"/>
        <pt x="999" y="305" on="0"/>
      </contour>
    </TTGlyph>
    <TTGlyph name="H" xMin="150" yMin="18" xMax="1284" yMax="1389">
      <contour>
        <pt x="156" y="1295" on="1"/>
        <pt x="156" y="1383" on="0"/>
        <pt x="296" y="1383" on="1"/>
        <pt x="360" y="1383" on="0"/>
        <pt x="433" y="1324" on="0"/>
        <pt x="433" y="1280" on="1"/>
        <pt x="433" y="1270" on="0"/>
        <pt x="409" y="1178" on="0"/>
        <pt x="409" y="1133" on="1"/>
        <pt x="409" y="870" on="0"/>
        <pt x="470" y="831" on="1"/>
        <pt x="521" y="798" on="0"/>
        <pt x="950" y="798" on="0"/>
        <pt x="1021" y="908" on="0"/>
        <pt x="1021" y="1137" on="1"/>
        <pt x="1021" y="1162" on="0"/>
        <pt x="997" y="1253" on="0"/>
        <pt x="997" y="1321" on="0"/>
        <pt x="1092" y="1389" on="0"/>
        <pt x="1163" y="1389" on="1"/>
        <pt x="1197" y="1389" on="1"/>
        <pt x="1229" y="1389" on="0"/>
        <pt x="1284" y="1347" on="0"/>
        <pt x="1284" y="1289" on="0"/>
        <pt x="1274" y="1262" on="1"/>
        <pt x="1252" y="1203" on="1"/>
        <pt x="1240" y="1157" on="0"/>
        <pt x="1240" y="1011" on="1"/>
        <pt x="1238" y="929" on="1"/>
        <pt x="1236" y="847" on="0"/>
        <pt x="1236" y="806" on="1"/>
        <pt x="1225" y="309" on="1"/>
        <pt x="1225" y="246" on="0"/>
        <pt x="1242" y="200" on="1"/>
        <pt x="1256" y="171" on="1"/>
        <pt x="1277" y="128" on="0"/>
        <pt x="1277" y="113" on="1"/>
        <pt x="1277" y="60" on="0"/>
        <pt x="1210" y="18" on="0"/>
        <pt x="1071" y="18" on="0"/>
        <pt x="995" y="85" on="0"/>
        <pt x="995" y="129" on="1"/>
        <pt x="999" y="158" on="1"/>
        <pt x="1015" y="216" on="1"/>
        <pt x="1025" y="264" on="0"/>
        <pt x="1025" y="365" on="1"/>
        <pt x="1025" y="567" on="0"/>
        <pt x="951" y="657" on="0"/>
        <pt x="785" y="657" on="1"/>
        <pt x="520" y="657" on="0"/>
        <pt x="407" y="561" on="0"/>
        <pt x="407" y="249" on="1"/>
        <pt x="407" y="229" on="0"/>
        <pt x="427" y="136" on="0"/>
        <pt x="427" y="134" on="1"/>
        <pt x="427" y="25" on="0"/>
        <pt x="260" y="25" on="1"/>
        <pt x="203" y="25" on="0"/>
        <pt x="150" y="80" on="0"/>
        <pt x="150" y="137" on="0"/>
        <pt x="163" y="170" on="1"/>
        <pt x="187" y="230" on="1"/>
        <pt x="200" y="276" on="0"/>
        <pt x="210" y="657" on="0"/>
        <pt x="210" y="705" on="1"/>
        <pt x="211" y="746" on="1"/>
        <pt x="213" y="801" on="0"/>
        <pt x="213" y="828" on="1"/>
        <pt x="214" y="868" on="1"/>
        <pt x="214" y="1004" on="1"/>
        <pt x="214" y="1154" on="0"/>
        <pt x="156" y="1276" on="0"/>
      </contour>
    </TTGlyph>
    <TTGlyph name="I" xMin="153" yMin="7" xMax="518" yMax="1400">
      <contour>
        <pt x="243" y="901" on="1"/>
        <pt x="241" y="1040" on="1"/>
        <pt x="241" y="1163" on="0"/>
        <pt x="153" y="1271" on="0"/>
        <pt x="153" y="1300" on="1"/>
        <pt x="153" y="1350" on="0"/>
        <pt x="220" y="1380" on="1"/>
        <pt x="265" y="1400" on="0"/>
        <pt x="358" y="1400" on="1"/>
        <pt x="377" y="1400" on="1"/>
        <pt x="443" y="1400" on="0"/>
        <pt x="493" y="1364" on="1"/>
        <pt x="518" y="1346" on="0"/>
        <pt x="518" y="1318" on="1"/>
        <pt x="518" y="1304" on="1"/>
        <pt x="518" y="1291" on="0"/>
        <pt x="475" y="1219" on="0"/>
        <pt x="453" y="1130" on="0"/>
        <pt x="453" y="1013" on="1"/>
        <pt x="451" y="973" on="1"/>
        <pt x="449" y="874" on="1"/>
        <pt x="449" y="844" on="0"/>
        <pt x="449" y="814" on="1"/>
        <pt x="447" y="714" on="1"/>
        <pt x="447" y="694" on="0"/>
        <pt x="447" y="674" on="1"/>
        <pt x="446" y="614" on="1"/>
        <pt x="446" y="277" on="0"/>
        <pt x="457" y="205" on="0"/>
        <pt x="512" y="126" on="0"/>
        <pt x="512" y="57" on="0"/>
        <pt x="427" y="7" on="0"/>
        <pt x="357" y="7" on="1"/>
        <pt x="320" y="7" on="1"/>
        <pt x="225" y="7" on="0"/>
        <pt x="173" y="49" on="1"/>
        <pt x="153" y="65" on="0"/>
        <pt x="153" y="82" on="1"/>
        <pt x="153" y="96" on="1"/>
        <pt x="153" y="122" on="0"/>
        <pt x="186" y="177" on="1"/>
        <pt x="238" y="264" on="0"/>
        <pt x="240" y="456" on="1"/>
        <pt x="241" y="544" on="0"/>
        <pt x="241" y="564" on="1"/>
        <pt x="242" y="624" on="1"/>
        <pt x="242" y="654" on="0"/>
        <pt x="242" y="684" on="1"/>
        <pt x="243" y="724" on="1"/>
        <pt x="243" y="744" on="0"/>
        <pt x="243" y="764" on="1"/>
        <pt x="244" y="783" on="1"/>
        <pt x="244" y="881" on="1"/>
      </contour>
    </TTGlyph>
    <TTGlyph name="Iacute" xMin="137" yMin="32" xMax="577" yMax="1833">
      <contour>
        <pt x="236" y="1493" on="1"/>
        <pt x="204" y="1493" on="0"/>
        <pt x="204" y="1528" on="1"/>
        <pt x="204" y="1533" on="1"/>
        <pt x="204" y="1573" on="0"/>
        <pt x="376" y="1770" on="1"/>
        <pt x="431" y="1833" on="0"/>
        <pt x="491" y="1833" on="1"/>
        <pt x="515" y="1833" on="1"/>
        <pt x="577" y="1833" on="0"/>
        <pt x="577" y="1784" on="1"/>
        <pt x="577" y="1769" on="1"/>
        <pt x="577" y="1723" on="0"/>
        <pt x="462" y="1634" on="1"/>
        <pt x="283" y="1495" on="0"/>
        <pt x="259" y="1495" on="1"/>
        <pt x="250" y="1493" on="1"/>
      </contour>
      <contour>
        <pt x="354" y="32" on="1"/>
        <pt x="280" y="32" on="1"/>
        <pt x="215" y="32" on="0"/>
        <pt x="163" y="68" on="1"/>
        <pt x="137" y="86" on="0"/>
        <pt x="137" y="144" on="0"/>
        <pt x="208" y="231" on="0"/>
        <pt x="222" y="353" on="0"/>
        <pt x="222" y="1084" on="0"/>
        <pt x="203" y="1211" on="0"/>
        <pt x="137" y="1289" on="0"/>
        <pt x="137" y="1314" on="1"/>
        <pt x="137" y="1329" on="1"/>
        <pt x="137" y="1362" on="0"/>
        <pt x="232" y="1407" on="0"/>
        <pt x="324" y="1407" on="1"/>
        <pt x="379" y="1407" on="1"/>
        <pt x="430" y="1407" on="0"/>
        <pt x="479" y="1375" on="1"/>
        <pt x="505" y="1358" on="0"/>
        <pt x="505" y="1301" on="0"/>
        <pt x="441" y="1219" on="0"/>
        <pt x="425" y="1113" on="0"/>
        <pt x="425" y="324" on="0"/>
        <pt x="443" y="230" on="0"/>
        <pt x="508" y="142" on="0"/>
        <pt x="508" y="124" on="1"/>
        <pt x="508" y="109" on="1"/>
        <pt x="508" y="84" on="0"/>
        <pt x="432" y="32" on="0"/>
      </contour>
    </TTGlyph>
    <TTGlyph name="Icircumflex" xMin="35" yMin="15" xMax="615" yMax="1832">
      <contour>
        <pt x="615" y="1545" on="1"/>
        <pt x="615" y="1539" on="1"/>
        <pt x="615" y="1513" on="0"/>
        <pt x="561" y="1513" on="1"/>
        <pt x="554" y="1513" on="1"/>
        <pt x="510" y="1513" on="0"/>
        <pt x="328" y="1680" on="0"/>
        <pt x="318" y="1680" on="0"/>
        <pt x="136" y="1513" on="0"/>
        <pt x="35" y="1513" on="0"/>
        <pt x="35" y="1540" on="1"/>
        <pt x="35" y="1546" on="1"/>
        <pt x="35" y="1589" on="0"/>
        <pt x="237" y="1791" on="1"/>
        <pt x="278" y="1832" on="0"/>
        <pt x="326" y="1832" on="1"/>
        <pt x="334" y="1832" on="1"/>
        <pt x="374" y="1832" on="0"/>
        <pt x="615" y="1569" on="0"/>
      </contour>
      <contour>
        <pt x="354" y="15" on="1"/>
        <pt x="279" y="15" on="1"/>
        <pt x="220" y="15" on="0"/>
        <pt x="139" y="68" on="0"/>
        <pt x="139" y="128" on="0"/>
        <pt x="206" y="213" on="0"/>
        <pt x="222" y="323" on="0"/>
        <pt x="222" y="1079" on="0"/>
        <pt x="204" y="1205" on="0"/>
        <pt x="135" y="1285" on="0"/>
        <pt x="135" y="1310" on="1"/>
        <pt x="135" y="1326" on="1"/>
        <pt x="135" y="1365" on="0"/>
        <pt x="203" y="1389" on="1"/>
        <pt x="239" y="1402" on="0"/>
        <pt x="326" y="1402" on="1"/>
        <pt x="381" y="1402" on="1"/>
        <pt x="432" y="1402" on="0"/>
        <pt x="504" y="1350" on="0"/>
        <pt x="504" y="1291" on="0"/>
        <pt x="441" y="1210" on="0"/>
        <pt x="426" y="1106" on="0"/>
        <pt x="426" y="303" on="0"/>
        <pt x="443" y="211" on="0"/>
        <pt x="511" y="128" on="0"/>
        <pt x="511" y="105" on="1"/>
        <pt x="511" y="90" on="1"/>
        <pt x="511" y="70" on="0"/>
        <pt x="491" y="53" on="1"/>
        <pt x="447" y="15" on="0"/>
      </contour>
    </TTGlyph>
    <TTGlyph name="Idieresis" xMin="29" yMin="24" xMax="609" yMax="1769">
      <contour>
        <pt x="29" y="1640" on="1"/>
        <pt x="29" y="1655" on="1"/>
        <pt x="29" y="1710" on="0"/>
        <pt x="83" y="1764" on="0"/>
        <pt x="116" y="1764" on="1"/>
        <pt x="143" y="1764" on="1"/>
        <pt x="177" y="1764" on="0"/>
        <pt x="230" y="1711" on="0"/>
        <pt x="230" y="1661" on="1"/>
        <pt x="230" y="1634" on="1"/>
        <pt x="225" y="1614" on="0"/>
        <pt x="225" y="1582" on="0"/>
        <pt x="177" y="1534" on="0"/>
        <pt x="146" y="1534" on="1"/>
        <pt x="130" y="1532" on="1"/>
        <pt x="123" y="1532" on="1"/>
        <pt x="77" y="1532" on="0"/>
        <pt x="29" y="1592" on="0"/>
      </contour>
      <contour>
        <pt x="463" y="1561" on="1"/>
        <pt x="406" y="1561" on="0"/>
        <pt x="406" y="1626" on="1"/>
        <pt x="404" y="1634" on="0"/>
        <pt x="404" y="1637" on="1"/>
        <pt x="402" y="1655" on="1"/>
        <pt x="402" y="1673" on="1"/>
        <pt x="402" y="1719" on="0"/>
        <pt x="449" y="1766" on="0"/>
        <pt x="479" y="1766" on="1"/>
        <pt x="499" y="1769" on="1"/>
        <pt x="521" y="1769" on="1"/>
        <pt x="530" y="1766" on="0"/>
        <pt x="541" y="1766" on="1"/>
        <pt x="604" y="1766" on="0"/>
        <pt x="604" y="1703" on="1"/>
        <pt x="607" y="1693" on="0"/>
        <pt x="607" y="1689" on="1"/>
        <pt x="609" y="1671" on="1"/>
        <pt x="609" y="1657" on="1"/>
        <pt x="605" y="1628" on="1"/>
        <pt x="605" y="1562" on="0"/>
        <pt x="542" y="1562" on="1"/>
        <pt x="530" y="1558" on="0"/>
        <pt x="525" y="1558" on="1"/>
        <pt x="501" y="1556" on="1"/>
        <pt x="497" y="1557" on="1"/>
        <pt x="470" y="1560" on="1"/>
        <pt x="466" y="1561" on="0"/>
      </contour>
      <contour>
        <pt x="504" y="112" on="1"/>
        <pt x="504" y="24" on="0"/>
        <pt x="328" y="24" on="1"/>
        <pt x="309" y="24" on="1"/>
        <pt x="233" y="24" on="0"/>
        <pt x="141" y="74" on="0"/>
        <pt x="141" y="142" on="0"/>
        <pt x="209" y="224" on="0"/>
        <pt x="225" y="336" on="0"/>
        <pt x="225" y="1091" on="0"/>
        <pt x="207" y="1214" on="0"/>
        <pt x="136" y="1292" on="0"/>
        <pt x="136" y="1319" on="1"/>
        <pt x="136" y="1334" on="1"/>
        <pt x="136" y="1352" on="0"/>
        <pt x="156" y="1368" on="1"/>
        <pt x="203" y="1406" on="0"/>
        <pt x="308" y="1406" on="1"/>
        <pt x="380" y="1406" on="1"/>
        <pt x="428" y="1406" on="0"/>
        <pt x="475" y="1370" on="1"/>
        <pt x="496" y="1354" on="0"/>
        <pt x="496" y="1299" on="0"/>
        <pt x="432" y="1211" on="0"/>
        <pt x="418" y="1115" on="0"/>
        <pt x="418" y="315" on="0"/>
        <pt x="432" y="220" on="0"/>
        <pt x="504" y="136" on="0"/>
      </contour>
    </TTGlyph>
    <TTGlyph name="Igrave" xMin="63" yMin="15" xMax="504" yMax="1838">
      <contour>
        <pt x="63" y="1778" on="1"/>
        <pt x="63" y="1788" on="1"/>
        <pt x="63" y="1838" on="0"/>
        <pt x="139" y="1838" on="1"/>
        <pt x="144" y="1838" on="1"/>
        <pt x="200" y="1838" on="0"/>
        <pt x="324" y="1729" on="0"/>
        <pt x="418" y="1604" on="1"/>
        <pt x="444" y="1569" on="0"/>
        <pt x="444" y="1553" on="1"/>
        <pt x="444" y="1534" on="1"/>
        <pt x="444" y="1510" on="0"/>
        <pt x="409" y="1510" on="1"/>
        <pt x="399" y="1510" on="1"/>
        <pt x="348" y="1510" on="0"/>
        <pt x="257" y="1581" on="1"/>
        <pt x="63" y="1732" on="0"/>
      </contour>
      <contour>
        <pt x="347" y="15" on="1"/>
        <pt x="291" y="15" on="1"/>
        <pt x="226" y="15" on="0"/>
        <pt x="183" y="40" on="1"/>
        <pt x="140" y="64" on="0"/>
        <pt x="140" y="128" on="0"/>
        <pt x="207" y="218" on="0"/>
        <pt x="222" y="322" on="0"/>
        <pt x="222" y="1086" on="0"/>
        <pt x="204" y="1208" on="0"/>
        <pt x="133" y="1291" on="0"/>
        <pt x="133" y="1316" on="1"/>
        <pt x="133" y="1403" on="0"/>
        <pt x="306" y="1403" on="1"/>
        <pt x="379" y="1403" on="1"/>
        <pt x="426" y="1403" on="0"/>
        <pt x="475" y="1367" on="1"/>
        <pt x="495" y="1352" on="0"/>
        <pt x="495" y="1297" on="0"/>
        <pt x="432" y="1207" on="0"/>
        <pt x="419" y="1118" on="0"/>
        <pt x="419" y="315" on="0"/>
        <pt x="434" y="209" on="0"/>
        <pt x="504" y="129" on="0"/>
        <pt x="504" y="103" on="1"/>
        <pt x="504" y="87" on="1"/>
        <pt x="504" y="69" on="0"/>
        <pt x="483" y="52" on="1"/>
        <pt x="437" y="15" on="0"/>
      </contour>
    </TTGlyph>
    <TTGlyph name="J" xMin="38" yMin="-112" xMax="738" yMax="1407">
      <contour>
        <pt x="374" y="1300" on="1"/>
        <pt x="374" y="1347" on="0"/>
        <pt x="489" y="1407" on="0"/>
        <pt x="554" y="1407" on="1"/>
        <pt x="577" y="1407" on="1"/>
        <pt x="647" y="1407" on="0"/>
        <pt x="738" y="1340" on="0"/>
        <pt x="738" y="1302" on="1"/>
        <pt x="738" y="1288" on="1"/>
        <pt x="738" y="1284" on="0"/>
        <pt x="716" y="1179" on="0"/>
        <pt x="711" y="1065" on="0"/>
        <pt x="698" y="906" on="0"/>
        <pt x="698" y="830" on="1"/>
        <pt x="697" y="806" on="1"/>
        <pt x="696" y="782" on="0"/>
        <pt x="696" y="758" on="1"/>
        <pt x="694" y="710" on="1"/>
        <pt x="692" y="662" on="0"/>
        <pt x="692" y="550" on="1"/>
        <pt x="692" y="63" on="0"/>
        <pt x="453" y="-65" on="1"/>
        <pt x="366" y="-112" on="0"/>
        <pt x="161" y="-112" on="0"/>
        <pt x="38" y="-35" on="0"/>
        <pt x="38" y="56" on="0"/>
        <pt x="89" y="100" on="0"/>
        <pt x="122" y="100" on="1"/>
        <pt x="243" y="80" on="1"/>
        <pt x="283" y="80" on="0"/>
        <pt x="376" y="143" on="0"/>
        <pt x="410" y="211" on="1"/>
        <pt x="484" y="359" on="0"/>
        <pt x="484" y="591" on="1"/>
        <pt x="486" y="639" on="1"/>
        <pt x="487" y="710" on="1"/>
        <pt x="487" y="1082" on="0"/>
        <pt x="416" y="1201" on="1"/>
        <pt x="374" y="1272" on="0"/>
      </contour>
    </TTGlyph>
    <TTGlyph name="K" xMin="166" yMin="15" xMax="1208" yMax="1386">
      <contour>
        <pt x="436" y="167" on="1"/>
        <pt x="436" y="104" on="0"/>
        <pt x="335" y="27" on="0"/>
        <pt x="218" y="27" on="0"/>
        <pt x="166" y="62" on="0"/>
        <pt x="166" y="87" on="1"/>
        <pt x="166" y="116" on="1"/>
        <pt x="173" y="144" on="1"/>
        <pt x="194" y="202" on="1"/>
        <pt x="217" y="276" on="0"/>
        <pt x="217" y="580" on="1"/>
        <pt x="217" y="697" on="1"/>
        <pt x="216" y="736" on="1"/>
        <pt x="215" y="775" on="0"/>
        <pt x="215" y="1127" on="0"/>
        <pt x="170" y="1305" on="0"/>
        <pt x="170" y="1343" on="0"/>
        <pt x="227" y="1386" on="0"/>
        <pt x="365" y="1386" on="0"/>
        <pt x="442" y="1309" on="0"/>
        <pt x="442" y="1251" on="1"/>
        <pt x="438" y="1225" on="1"/>
        <pt x="429" y="1162" on="0"/>
        <pt x="429" y="1064" on="1"/>
        <pt x="429" y="828" on="0"/>
        <pt x="480" y="828" on="1"/>
        <pt x="523" y="828" on="0"/>
        <pt x="789" y="1132" on="0"/>
        <pt x="911" y="1332" on="0"/>
        <pt x="913" y="1335" on="1"/>
        <pt x="950" y="1376" on="0"/>
        <pt x="1123" y="1376" on="0"/>
        <pt x="1123" y="1334" on="1"/>
        <pt x="1123" y="1310" on="0"/>
        <pt x="862" y="1017" on="0"/>
        <pt x="770" y="886" on="1"/>
        <pt x="730" y="829" on="0"/>
        <pt x="730" y="770" on="1"/>
        <pt x="730" y="756" on="0"/>
        <pt x="1042" y="280" on="0"/>
        <pt x="1208" y="74" on="0"/>
        <pt x="1208" y="71" on="1"/>
        <pt x="1208" y="15" on="0"/>
        <pt x="1028" y="15" on="0"/>
        <pt x="974" y="69" on="1"/>
        <pt x="960" y="83" on="0"/>
        <pt x="701" y="474" on="0"/>
        <pt x="674" y="508" on="1"/>
        <pt x="597" y="603" on="0"/>
        <pt x="494" y="603" on="0"/>
        <pt x="417" y="424" on="0"/>
        <pt x="417" y="318" on="1"/>
        <pt x="417" y="280" on="0"/>
        <pt x="421" y="253" on="1"/>
        <pt x="427" y="223" on="1"/>
        <pt x="436" y="176" on="0"/>
      </contour>
    </TTGlyph>
    <TTGlyph name="L" xMin="147" yMin="2" xMax="1051" yMax="1402">
      <contour>
        <pt x="535" y="156" on="0"/>
        <pt x="769" y="156" on="0"/>
        <pt x="863" y="188" on="0"/>
        <pt x="962" y="232" on="0"/>
        <pt x="983" y="232" on="1"/>
        <pt x="1051" y="232" on="0"/>
        <pt x="1051" y="49" on="0"/>
        <pt x="988" y="20" on="1"/>
        <pt x="949" y="2" on="0"/>
        <pt x="672" y="2" on="1"/>
        <pt x="647" y="3" on="1"/>
        <pt x="571" y="4" on="1"/>
        <pt x="326" y="4" on="0"/>
        <pt x="253" y="14" on="1"/>
        <pt x="150" y="28" on="0"/>
        <pt x="150" y="82" on="1"/>
        <pt x="150" y="107" on="0"/>
        <pt x="180" y="189" on="0"/>
        <pt x="194" y="271" on="0"/>
        <pt x="194" y="373" on="1"/>
        <pt x="197" y="548" on="1"/>
        <pt x="197" y="675" on="1"/>
        <pt x="198" y="726" on="1"/>
        <pt x="198" y="1101" on="0"/>
        <pt x="189" y="1183" on="0"/>
        <pt x="147" y="1272" on="0"/>
        <pt x="147" y="1346" on="0"/>
        <pt x="215" y="1402" on="0"/>
        <pt x="268" y="1402" on="1"/>
        <pt x="292" y="1402" on="1"/>
        <pt x="373" y="1402" on="0"/>
        <pt x="459" y="1334" on="0"/>
        <pt x="459" y="1282" on="1"/>
        <pt x="459" y="1264" on="0"/>
        <pt x="422" y="1167" on="0"/>
        <pt x="410" y="1106" on="0"/>
        <pt x="410" y="993" on="1"/>
        <pt x="406" y="818" on="1"/>
        <pt x="405" y="793" on="1"/>
        <pt x="405" y="742" on="1"/>
        <pt x="403" y="641" on="1"/>
        <pt x="403" y="270" on="0"/>
        <pt x="432" y="217" on="1"/>
        <pt x="451" y="182" on="0"/>
      </contour>
    </TTGlyph>
    <TTGlyph name="Lslash" xMin="99" yMin="-2" xMax="1077" yMax="1381">
      <contour>
        <pt x="441" y="1017" on="1"/>
        <pt x="441" y="868" on="0"/>
        <pt x="540" y="868" on="1"/>
        <pt x="544" y="868" on="0"/>
        <pt x="659" y="903" on="0"/>
        <pt x="723" y="903" on="0"/>
        <pt x="723" y="818" on="0"/>
        <pt x="518" y="672" on="0"/>
        <pt x="441" y="530" on="0"/>
        <pt x="441" y="245" on="0"/>
        <pt x="527" y="134" on="0"/>
        <pt x="665" y="134" on="1"/>
        <pt x="754" y="134" on="0"/>
        <pt x="991" y="226" on="0"/>
        <pt x="1014" y="226" on="1"/>
        <pt x="1077" y="226" on="0"/>
        <pt x="1077" y="43" on="0"/>
        <pt x="1001" y="17" on="1"/>
        <pt x="946" y="-2" on="0"/>
        <pt x="649" y="-2" on="1"/>
        <pt x="588" y="-2" on="1"/>
        <pt x="289" y="-2" on="0"/>
        <pt x="180" y="38" on="0"/>
        <pt x="180" y="98" on="1"/>
        <pt x="180" y="109" on="0"/>
        <pt x="212" y="197" on="0"/>
        <pt x="231" y="273" on="0"/>
        <pt x="231" y="465" on="0"/>
        <pt x="205" y="515" on="0"/>
        <pt x="143" y="528" on="1"/>
        <pt x="99" y="538" on="0"/>
        <pt x="99" y="585" on="1"/>
        <pt x="99" y="603" on="0"/>
        <pt x="192" y="736" on="0"/>
        <pt x="235" y="868" on="0"/>
        <pt x="235" y="1127" on="0"/>
        <pt x="188" y="1284" on="0"/>
        <pt x="188" y="1285" on="1"/>
        <pt x="188" y="1330" on="0"/>
        <pt x="247" y="1381" on="0"/>
        <pt x="299" y="1381" on="1"/>
        <pt x="483" y="1381" on="0"/>
        <pt x="483" y="1234" on="1"/>
        <pt x="483" y="1209" on="0"/>
        <pt x="441" y="1081" on="0"/>
      </contour>
    </TTGlyph>
    <TTGlyph name="M" xMin="148" yMin="56" xMax="1587" yMax="1356">
      <contour>
        <pt x="827" y="188" on="1"/>
        <pt x="793" y="188" on="0"/>
        <pt x="744" y="287" on="1"/>
        <pt x="724" y="332" on="1"/>
        <pt x="713" y="358" on="0"/>
        <pt x="666" y="478" on="1"/>
        <pt x="588" y="678" on="1"/>
        <pt x="458" y="1005" on="0"/>
        <pt x="429" y="1005" on="1"/>
        <pt x="414" y="1005" on="0"/>
        <pt x="396" y="944" on="0"/>
        <pt x="347" y="437" on="0"/>
        <pt x="347" y="166" on="0"/>
        <pt x="327" y="129" on="1"/>
        <pt x="295" y="70" on="0"/>
        <pt x="148" y="70" on="0"/>
        <pt x="148" y="146" on="1"/>
        <pt x="148" y="155" on="0"/>
        <pt x="197" y="273" on="0"/>
        <pt x="204" y="345" on="1"/>
        <pt x="234" y="636" on="0"/>
        <pt x="234" y="1073" on="1"/>
        <pt x="234" y="1107" on="0"/>
        <pt x="225" y="1171" on="1"/>
        <pt x="218" y="1215" on="1"/>
        <pt x="207" y="1275" on="0"/>
        <pt x="207" y="1315" on="0"/>
        <pt x="262" y="1351" on="0"/>
        <pt x="300" y="1351" on="1"/>
        <pt x="406" y="1351" on="0"/>
        <pt x="536" y="1184" on="0"/>
        <pt x="744" y="744" on="1"/>
        <pt x="811" y="603" on="0"/>
        <pt x="834" y="566" on="1"/>
        <pt x="856" y="538" on="1"/>
        <pt x="875" y="538" on="0"/>
        <pt x="1212" y="1191" on="0"/>
        <pt x="1253" y="1247" on="1"/>
        <pt x="1333" y="1356" on="0"/>
        <pt x="1426" y="1356" on="1"/>
        <pt x="1465" y="1356" on="1"/>
        <pt x="1541" y="1356" on="0"/>
        <pt x="1541" y="1276" on="1"/>
        <pt x="1536" y="1239" on="1"/>
        <pt x="1529" y="1197" on="1"/>
        <pt x="1526" y="1170" on="0"/>
        <pt x="1526" y="1098" on="1"/>
        <pt x="1528" y="1045" on="1"/>
        <pt x="1529" y="991" on="1"/>
        <pt x="1531" y="774" on="1"/>
        <pt x="1531" y="665" on="1"/>
        <pt x="1531" y="352" on="0"/>
        <pt x="1541" y="250" on="0"/>
        <pt x="1587" y="134" on="0"/>
        <pt x="1587" y="110" on="1"/>
        <pt x="1587" y="56" on="0"/>
        <pt x="1482" y="56" on="1"/>
        <pt x="1427" y="56" on="0"/>
        <pt x="1344" y="139" on="0"/>
        <pt x="1344" y="225" on="1"/>
        <pt x="1352" y="456" on="1"/>
        <pt x="1352" y="633" on="0"/>
        <pt x="1310" y="986" on="0"/>
        <pt x="1302" y="999" on="1"/>
        <pt x="1292" y="1006" on="1"/>
        <pt x="1271" y="1006" on="0"/>
        <pt x="942" y="271" on="0"/>
        <pt x="928" y="250" on="1"/>
        <pt x="887" y="188" on="0"/>
      </contour>
    </TTGlyph>
    <TTGlyph name="N" xMin="147" yMin="35" xMax="1316" yMax="1352">
      <contour>
        <pt x="1221" y="57" on="0"/>
        <pt x="1100" y="57" on="0"/>
        <pt x="914" y="292" on="0"/>
        <pt x="619" y="776" on="0"/>
        <pt x="435" y="1030" on="0"/>
        <pt x="358" y="1030" on="0"/>
        <pt x="358" y="404" on="1"/>
        <pt x="358" y="352" on="0"/>
        <pt x="377" y="204" on="0"/>
        <pt x="377" y="194" on="1"/>
        <pt x="377" y="128" on="0"/>
        <pt x="293" y="35" on="0"/>
        <pt x="234" y="35" on="1"/>
        <pt x="147" y="35" on="0"/>
        <pt x="147" y="93" on="1"/>
        <pt x="147" y="119" on="0"/>
        <pt x="171" y="178" on="1"/>
        <pt x="214" y="284" on="0"/>
        <pt x="214" y="678" on="1"/>
        <pt x="216" y="721" on="1"/>
        <pt x="218" y="809" on="1"/>
        <pt x="220" y="897" on="0"/>
        <pt x="220" y="1155" on="0"/>
        <pt x="178" y="1309" on="0"/>
        <pt x="178" y="1312" on="1"/>
        <pt x="178" y="1352" on="0"/>
        <pt x="232" y="1352" on="1"/>
        <pt x="264" y="1352" on="1"/>
        <pt x="364" y="1352" on="0"/>
        <pt x="588" y="1105" on="0"/>
        <pt x="1047" y="427" on="0"/>
        <pt x="1072" y="427" on="1"/>
        <pt x="1085" y="439" on="1"/>
        <pt x="1116" y="503" on="0"/>
        <pt x="1116" y="1061" on="1"/>
        <pt x="1116" y="1132" on="0"/>
        <pt x="1110" y="1166" on="1"/>
        <pt x="1103" y="1196" on="1"/>
        <pt x="1096" y="1223" on="1"/>
        <pt x="1090" y="1248" on="0"/>
        <pt x="1090" y="1301" on="0"/>
        <pt x="1141" y="1350" on="0"/>
        <pt x="1248" y="1350" on="0"/>
        <pt x="1316" y="1280" on="0"/>
        <pt x="1316" y="1212" on="0"/>
        <pt x="1290" y="1128" on="1"/>
        <pt x="1250" y="994" on="0"/>
        <pt x="1250" y="223" on="0"/>
        <pt x="1233" y="125" on="1"/>
      </contour>
    </TTGlyph>
    <TTGlyph name="Nacute" xMin="140" yMin="40" xMax="1312" yMax="1856">
      <contour>
        <pt x="657" y="1521" on="1"/>
        <pt x="641" y="1521" on="1"/>
        <pt x="616" y="1521" on="0"/>
        <pt x="616" y="1551" on="1"/>
        <pt x="616" y="1561" on="1"/>
        <pt x="617" y="1566" on="1"/>
        <pt x="617" y="1623" on="0"/>
        <pt x="883" y="1856" on="0"/>
        <pt x="938" y="1856" on="1"/>
        <pt x="944" y="1855" on="1"/>
        <pt x="1017" y="1855" on="0"/>
        <pt x="1017" y="1799" on="1"/>
        <pt x="1017" y="1794" on="1"/>
        <pt x="1015" y="1784" on="0"/>
        <pt x="1015" y="1779" on="1"/>
        <pt x="1015" y="1744" on="0"/>
        <pt x="921" y="1681" on="1"/>
        <pt x="681" y="1521" on="0"/>
      </contour>
      <contour>
        <pt x="1166" y="1335" on="1"/>
        <pt x="1312" y="1335" on="0"/>
        <pt x="1312" y="1214" on="1"/>
        <pt x="1312" y="1177" on="0"/>
        <pt x="1255" y="1033" on="0"/>
        <pt x="1241" y="905" on="0"/>
        <pt x="1241" y="171" on="0"/>
        <pt x="1233" y="138" on="1"/>
        <pt x="1221" y="90" on="0"/>
        <pt x="1122" y="90" on="0"/>
        <pt x="1054" y="170" on="1"/>
        <pt x="1028" y="202" on="1"/>
        <pt x="957" y="292" on="0"/>
        <pt x="847" y="457" on="1"/>
        <pt x="439" y="1069" on="0"/>
        <pt x="369" y="1069" on="1"/>
        <pt x="343" y="1069" on="0"/>
        <pt x="343" y="836" on="1"/>
        <pt x="345" y="659" on="1"/>
        <pt x="345" y="432" on="0"/>
        <pt x="380" y="288" on="1"/>
        <pt x="396" y="220" on="0"/>
        <pt x="396" y="134" on="0"/>
        <pt x="298" y="40" on="0"/>
        <pt x="231" y="40" on="1"/>
        <pt x="196" y="40" on="1"/>
        <pt x="140" y="40" on="0"/>
        <pt x="140" y="94" on="1"/>
        <pt x="140" y="123" on="0"/>
        <pt x="189" y="225" on="0"/>
        <pt x="208" y="397" on="0"/>
        <pt x="208" y="1121" on="0"/>
        <pt x="190" y="1203" on="1"/>
        <pt x="185" y="1226" on="0"/>
        <pt x="156" y="1311" on="0"/>
        <pt x="156" y="1327" on="1"/>
        <pt x="156" y="1369" on="0"/>
        <pt x="284" y="1369" on="0"/>
        <pt x="416" y="1301" on="0"/>
        <pt x="509" y="1201" on="0"/>
        <pt x="708" y="941" on="0"/>
        <pt x="1100" y="445" on="0"/>
        <pt x="1101" y="445" on="1"/>
        <pt x="1128" y="445" on="0"/>
        <pt x="1128" y="1121" on="0"/>
        <pt x="1108" y="1180" on="1"/>
        <pt x="1097" y="1207" on="1"/>
        <pt x="1077" y="1251" on="0"/>
        <pt x="1077" y="1256" on="1"/>
        <pt x="1077" y="1298" on="0"/>
        <pt x="1133" y="1335" on="0"/>
      </contour>
    </TTGlyph>
    <TTGlyph name="Ntilde" xMin="134" yMin="39" xMax="1301" yMax="1769">
      <contour>
        <pt x="875" y="1541" on="1"/>
        <pt x="859" y="1541" on="1"/>
        <pt x="851" y="1542" on="1"/>
        <pt x="802" y="1542" on="0"/>
        <pt x="622" y="1643" on="0"/>
        <pt x="546" y="1643" on="0"/>
        <pt x="447" y="1552" on="0"/>
        <pt x="432" y="1552" on="1"/>
        <pt x="397" y="1552" on="0"/>
        <pt x="397" y="1586" on="1"/>
        <pt x="397" y="1593" on="1"/>
        <pt x="397" y="1652" on="0"/>
        <pt x="525" y="1769" on="0"/>
        <pt x="578" y="1769" on="1"/>
        <pt x="586" y="1768" on="1"/>
        <pt x="594" y="1768" on="1"/>
        <pt x="641" y="1768" on="0"/>
        <pt x="821" y="1667" on="0"/>
        <pt x="900" y="1667" on="0"/>
        <pt x="997" y="1756" on="0"/>
        <pt x="1013" y="1756" on="1"/>
        <pt x="1048" y="1756" on="0"/>
        <pt x="1048" y="1722" on="1"/>
        <pt x="1048" y="1669" on="0"/>
        <pt x="930" y="1541" on="0"/>
      </contour>
      <contour>
        <pt x="369" y="1071" on="1"/>
        <pt x="339" y="1071" on="0"/>
        <pt x="339" y="389" on="0"/>
        <pt x="389" y="187" on="0"/>
        <pt x="389" y="171" on="1"/>
        <pt x="389" y="114" on="0"/>
        <pt x="284" y="39" on="0"/>
        <pt x="235" y="39" on="1"/>
        <pt x="199" y="39" on="1"/>
        <pt x="134" y="39" on="0"/>
        <pt x="134" y="89" on="1"/>
        <pt x="134" y="115" on="0"/>
        <pt x="185" y="211" on="0"/>
        <pt x="202" y="309" on="0"/>
        <pt x="202" y="1099" on="0"/>
        <pt x="191" y="1200" on="0"/>
        <pt x="180" y="1231" on="1"/>
        <pt x="166" y="1262" on="1"/>
        <pt x="147" y="1306" on="0"/>
        <pt x="147" y="1317" on="1"/>
        <pt x="147" y="1361" on="0"/>
        <pt x="202" y="1361" on="1"/>
        <pt x="237" y="1361" on="1"/>
        <pt x="343" y="1361" on="0"/>
        <pt x="430" y="1272" on="1"/>
        <pt x="440" y="1262" on="0"/>
        <pt x="777" y="821" on="0"/>
        <pt x="1065" y="425" on="0"/>
        <pt x="1078" y="425" on="1"/>
        <pt x="1107" y="425" on="0"/>
        <pt x="1107" y="908" on="1"/>
        <pt x="1107" y="1054" on="0"/>
        <pt x="1099" y="1157" on="0"/>
        <pt x="1055" y="1264" on="0"/>
        <pt x="1055" y="1277" on="1"/>
        <pt x="1055" y="1342" on="0"/>
        <pt x="1171" y="1342" on="1"/>
        <pt x="1228" y="1342" on="0"/>
        <pt x="1301" y="1273" on="0"/>
        <pt x="1301" y="1198" on="0"/>
        <pt x="1245" y="1070" on="0"/>
        <pt x="1226" y="847" on="0"/>
        <pt x="1226" y="168" on="0"/>
        <pt x="1221" y="135" on="1"/>
        <pt x="1212" y="74" on="0"/>
        <pt x="1170" y="74" on="1"/>
        <pt x="1098" y="74" on="0"/>
        <pt x="1019" y="174" on="1"/>
        <pt x="966" y="241" on="0"/>
        <pt x="747" y="582" on="0"/>
        <pt x="706" y="642" on="1"/>
        <pt x="412" y="1071" on="0"/>
      </contour>
    </TTGlyph>
    <TTGlyph name="O" xMin="113" yMin="-21" xMax="1292" yMax="1416">
      <contour>
        <pt x="311" y="701" on="1"/>
        <pt x="311" y="667" on="1"/>
        <pt x="311" y="431" on="0"/>
        <pt x="404" y="280" on="1"/>
        <pt x="451" y="203" on="0"/>
        <pt x="602" y="113" on="0"/>
        <pt x="688" y="113" on="1"/>
        <pt x="689" y="113" on="0"/>
        <pt x="690" y="113" on="1"/>
        <pt x="957" y="113" on="0"/>
        <pt x="1040" y="436" on="1"/>
        <pt x="1069" y="546" on="0"/>
        <pt x="1069" y="657" on="1"/>
        <pt x="1069" y="661" on="0"/>
        <pt x="1069" y="664" on="1"/>
        <pt x="1069" y="734" on="1"/>
        <pt x="1069" y="738" on="0"/>
        <pt x="1069" y="741" on="1"/>
        <pt x="1069" y="850" on="0"/>
        <pt x="1040" y="962" on="1"/>
        <pt x="956" y="1288" on="0"/>
        <pt x="698" y="1288" on="1"/>
        <pt x="522" y="1288" on="0"/>
        <pt x="311" y="979" on="0"/>
      </contour>
      <contour>
        <pt x="1292" y="725" on="1"/>
        <pt x="1292" y="702" on="1"/>
        <pt x="1292" y="542" on="0"/>
        <pt x="1248" y="405" on="1"/>
        <pt x="1162" y="133" on="0"/>
        <pt x="938" y="32" on="1"/>
        <pt x="820" y="-21" on="0"/>
        <pt x="693" y="-21" on="1"/>
        <pt x="433" y="-21" on="0"/>
        <pt x="281" y="148" on="1"/>
        <pt x="200" y="238" on="0"/>
        <pt x="113" y="506" on="0"/>
        <pt x="113" y="634" on="1"/>
        <pt x="113" y="701" on="1"/>
        <pt x="113" y="847" on="0"/>
        <pt x="158" y="986" on="1"/>
        <pt x="244" y="1252" on="0"/>
        <pt x="444" y="1355" on="1"/>
        <pt x="563" y="1416" on="0"/>
        <pt x="701" y="1416" on="1"/>
        <pt x="724" y="1416" on="1"/>
        <pt x="980" y="1416" on="0"/>
        <pt x="1141" y="1224" on="1"/>
        <pt x="1207" y="1145" on="0"/>
        <pt x="1292" y="884" on="0"/>
      </contour>
    </TTGlyph>
    <TTGlyph name="OE" xMin="122" yMin="5" xMax="1737" yMax="1395">
      <contour>
        <pt x="725" y="1283" on="1"/>
        <pt x="695" y="1283" on="1"/>
        <pt x="693" y="1283" on="0"/>
        <pt x="692" y="1283" on="1"/>
        <pt x="612" y="1283" on="0"/>
        <pt x="537" y="1234" on="1"/>
        <pt x="316" y="1090" on="0"/>
        <pt x="316" y="696" on="1"/>
        <pt x="316" y="645" on="1"/>
        <pt x="316" y="525" on="0"/>
        <pt x="347" y="425" on="1"/>
        <pt x="406" y="234" on="0"/>
        <pt x="540" y="159" on="1"/>
        <pt x="608" y="121" on="0"/>
        <pt x="684" y="121" on="1"/>
        <pt x="715" y="121" on="1"/>
        <pt x="841" y="121" on="0"/>
        <pt x="934" y="261" on="0"/>
        <pt x="934" y="474" on="1"/>
        <pt x="936" y="506" on="0"/>
        <pt x="936" y="522" on="1"/>
        <pt x="939" y="619" on="1"/>
        <pt x="939" y="652" on="1"/>
        <pt x="940" y="686" on="1"/>
        <pt x="940" y="719" on="1"/>
        <pt x="941" y="752" on="1"/>
        <pt x="941" y="851" on="1"/>
        <pt x="941" y="1134" on="0"/>
        <pt x="860" y="1283" on="0"/>
      </contour>
      <contour>
        <pt x="1619" y="724" on="1"/>
        <pt x="1619" y="625" on="0"/>
        <pt x="1515" y="625" on="1"/>
        <pt x="1499" y="625" on="0"/>
        <pt x="1397" y="643" on="0"/>
        <pt x="1341" y="643" on="1"/>
        <pt x="1238" y="643" on="0"/>
        <pt x="1194" y="588" on="1"/>
        <pt x="1164" y="551" on="0"/>
        <pt x="1164" y="234" on="0"/>
        <pt x="1229" y="183" on="1"/>
        <pt x="1270" y="151" on="0"/>
        <pt x="1438" y="151" on="1"/>
        <pt x="1501" y="151" on="0"/>
        <pt x="1586" y="156" on="1"/>
        <pt x="1619" y="158" on="1"/>
        <pt x="1650" y="162" on="1"/>
        <pt x="1674" y="164" on="0"/>
        <pt x="1737" y="164" on="0"/>
        <pt x="1737" y="154" on="1"/>
        <pt x="1737" y="143" on="1"/>
        <pt x="1737" y="91" on="0"/>
        <pt x="1542" y="12" on="0"/>
        <pt x="1359" y="12" on="0"/>
        <pt x="1120" y="34" on="0"/>
        <pt x="985" y="34" on="0"/>
        <pt x="744" y="5" on="0"/>
        <pt x="702" y="5" on="1"/>
        <pt x="279" y="5" on="0"/>
        <pt x="160" y="397" on="1"/>
        <pt x="122" y="522" on="0"/>
        <pt x="122" y="650" on="1"/>
        <pt x="122" y="695" on="1"/>
        <pt x="122" y="850" on="0"/>
        <pt x="164" y="983" on="1"/>
        <pt x="294" y="1395" on="0"/>
        <pt x="740" y="1395" on="1"/>
        <pt x="781" y="1393" on="1"/>
        <pt x="821" y="1390" on="1"/>
        <pt x="899" y="1383" on="1"/>
        <pt x="1076" y="1369" on="0"/>
        <pt x="1131" y="1369" on="0"/>
        <pt x="1338" y="1388" on="0"/>
        <pt x="1530" y="1388" on="0"/>
        <pt x="1594" y="1366" on="1"/>
        <pt x="1708" y="1327" on="0"/>
        <pt x="1708" y="1279" on="1"/>
        <pt x="1708" y="1262" on="0"/>
        <pt x="1307" y="1262" on="0"/>
        <pt x="1215" y="1198" on="0"/>
        <pt x="1175" y="1089" on="0"/>
        <pt x="1175" y="889" on="0"/>
        <pt x="1258" y="810" on="0"/>
        <pt x="1360" y="810" on="1"/>
        <pt x="1496" y="831" on="1"/>
        <pt x="1619" y="831" on="0"/>
      </contour>
    </TTGlyph>
    <TTGlyph name="Oacute" xMin="108" yMin="-18" xMax="1291" yMax="1823">
      <contour>
        <pt x="302" y="767" on="1"/>
        <pt x="302" y="697" on="1"/>
        <pt x="302" y="436" on="0"/>
        <pt x="411" y="286" on="1"/>
        <pt x="458" y="221" on="0"/>
        <pt x="604" y="153" on="0"/>
        <pt x="679" y="153" on="1"/>
        <pt x="696" y="153" on="1"/>
        <pt x="887" y="153" on="0"/>
        <pt x="1091" y="453" on="0"/>
        <pt x="1091" y="739" on="1"/>
        <pt x="1091" y="757" on="1"/>
        <pt x="1091" y="900" on="0"/>
        <pt x="1026" y="1115" on="0"/>
        <pt x="941" y="1236" on="0"/>
        <pt x="799" y="1315" on="0"/>
        <pt x="717" y="1315" on="1"/>
        <pt x="683" y="1315" on="1"/>
        <pt x="510" y="1315" on="0"/>
        <pt x="404" y="1168" on="1"/>
        <pt x="368" y="1118" on="0"/>
        <pt x="302" y="898" on="0"/>
      </contour>
      <contour>
        <pt x="623" y="1485" on="1"/>
        <pt x="597" y="1485" on="1"/>
        <pt x="565" y="1485" on="0"/>
        <pt x="565" y="1519" on="1"/>
        <pt x="566" y="1524" on="1"/>
        <pt x="566" y="1550" on="0"/>
        <pt x="595" y="1587" on="1"/>
        <pt x="700" y="1722" on="0"/>
        <pt x="814" y="1823" on="0"/>
        <pt x="874" y="1823" on="1"/>
        <pt x="884" y="1823" on="1"/>
        <pt x="959" y="1823" on="0"/>
        <pt x="959" y="1773" on="1"/>
        <pt x="958" y="1768" on="1"/>
        <pt x="958" y="1763" on="1"/>
        <pt x="958" y="1712" on="0"/>
        <pt x="666" y="1485" on="0"/>
      </contour>
      <contour>
        <pt x="1291" y="737" on="1"/>
        <pt x="1291" y="691" on="1"/>
        <pt x="1291" y="687" on="0"/>
        <pt x="1291" y="684" on="1"/>
        <pt x="1291" y="547" on="0"/>
        <pt x="1254" y="414" on="1"/>
        <pt x="1182" y="155" on="0"/>
        <pt x="969" y="45" on="1"/>
        <pt x="846" y="-18" on="0"/>
        <pt x="726" y="-18" on="1"/>
        <pt x="658" y="-18" on="1"/>
        <pt x="545" y="-18" on="0"/>
        <pt x="435" y="32" on="1"/>
        <pt x="209" y="136" on="0"/>
        <pt x="137" y="431" on="1"/>
        <pt x="108" y="550" on="0"/>
        <pt x="108" y="670" on="1"/>
        <pt x="108" y="739" on="1"/>
        <pt x="108" y="876" on="0"/>
        <pt x="193" y="1144" on="0"/>
        <pt x="334" y="1319" on="0"/>
        <pt x="558" y="1422" on="0"/>
        <pt x="668" y="1422" on="1"/>
        <pt x="736" y="1422" on="1"/>
        <pt x="850" y="1422" on="0"/>
        <pt x="1073" y="1319" on="0"/>
        <pt x="1211" y="1143" on="0"/>
        <pt x="1291" y="871" on="0"/>
      </contour>
    </TTGlyph>
    <TTGlyph name="Ocircumflex" xMin="105" yMin="-21" xMax="1293" yMax="1821">
      <contour>
        <pt x="300" y="758" on="1"/>
        <pt x="300" y="723" on="1"/>
        <pt x="301" y="706" on="1"/>
        <pt x="301" y="581" on="0"/>
        <pt x="361" y="357" on="0"/>
        <pt x="452" y="222" on="0"/>
        <pt x="603" y="144" on="0"/>
        <pt x="697" y="144" on="1"/>
        <pt x="991" y="144" on="0"/>
        <pt x="1064" y="473" on="1"/>
        <pt x="1090" y="588" on="0"/>
        <pt x="1090" y="720" on="1"/>
        <pt x="1090" y="754" on="1"/>
        <pt x="1090" y="869" on="0"/>
        <pt x="1022" y="1101" on="0"/>
        <pt x="923" y="1240" on="0"/>
        <pt x="776" y="1308" on="0"/>
        <pt x="696" y="1308" on="1"/>
        <pt x="679" y="1308" on="1"/>
        <pt x="502" y="1308" on="0"/>
        <pt x="402" y="1160" on="1"/>
        <pt x="358" y="1095" on="0"/>
        <pt x="300" y="871" on="0"/>
      </contour>
      <contour>
        <pt x="452" y="1505" on="1"/>
        <pt x="438" y="1505" on="1"/>
        <pt x="393" y="1505" on="0"/>
        <pt x="393" y="1532" on="1"/>
        <pt x="393" y="1538" on="1"/>
        <pt x="393" y="1591" on="0"/>
        <pt x="600" y="1781" on="1"/>
        <pt x="644" y="1821" on="0"/>
        <pt x="744" y="1821" on="0"/>
        <pt x="788" y="1781" on="1"/>
        <pt x="986" y="1599" on="0"/>
        <pt x="986" y="1538" on="1"/>
        <pt x="986" y="1506" on="0"/>
        <pt x="880" y="1506" on="0"/>
        <pt x="772" y="1605" on="1"/>
        <pt x="766" y="1610" on="1"/>
        <pt x="755" y="1621" on="1"/>
        <pt x="697" y="1669" on="0"/>
        <pt x="693" y="1669" on="1"/>
        <pt x="637" y="1626" on="1"/>
        <pt x="630" y="1621" on="0"/>
        <pt x="603" y="1596" on="0"/>
        <pt x="580" y="1579" on="1"/>
        <pt x="484" y="1505" on="0"/>
      </contour>
      <contour>
        <pt x="1293" y="721" on="1"/>
        <pt x="1293" y="675" on="1"/>
        <pt x="1293" y="523" on="0"/>
        <pt x="1206" y="255" on="0"/>
        <pt x="1066" y="88" on="0"/>
        <pt x="842" y="-21" on="0"/>
        <pt x="712" y="-21" on="1"/>
        <pt x="667" y="-21" on="1"/>
        <pt x="545" y="-21" on="0"/>
        <pt x="434" y="30" on="1"/>
        <pt x="105" y="181" on="0"/>
        <pt x="105" y="705" on="1"/>
        <pt x="105" y="850" on="0"/>
        <pt x="142" y="989" on="1"/>
        <pt x="213" y="1256" on="0"/>
        <pt x="435" y="1368" on="1"/>
        <pt x="545" y="1423" on="0"/>
        <pt x="679" y="1423" on="1"/>
        <pt x="725" y="1423" on="1"/>
        <pt x="849" y="1423" on="0"/>
        <pt x="1069" y="1322" on="0"/>
        <pt x="1213" y="1145" on="0"/>
        <pt x="1293" y="871" on="0"/>
      </contour>
    </TTGlyph>
    <TTGlyph name="Odieresis" xMin="87" yMin="-20" xMax="1283" yMax="1771">
      <contour>
        <pt x="290" y="759" on="1"/>
        <pt x="290" y="706" on="1"/>
        <pt x="290" y="558" on="0"/>
        <pt x="354" y="337" on="0"/>
        <pt x="440" y="210" on="0"/>
        <pt x="583" y="131" on="0"/>
        <pt x="665" y="131" on="1"/>
        <pt x="699" y="131" on="1"/>
        <pt x="786" y="131" on="0"/>
        <pt x="860" y="174" on="1"/>
        <pt x="1068" y="294" on="0"/>
        <pt x="1068" y="702" on="1"/>
        <pt x="1068" y="755" on="1"/>
        <pt x="1068" y="863" on="0"/>
        <pt x="1008" y="1097" on="0"/>
        <pt x="915" y="1234" on="0"/>
        <pt x="766" y="1311" on="0"/>
        <pt x="680" y="1311" on="1"/>
        <pt x="663" y="1311" on="1"/>
        <pt x="580" y="1311" on="0"/>
        <pt x="508" y="1273" on="1"/>
        <pt x="371" y="1201" on="0"/>
        <pt x="321" y="1007" on="1"/>
        <pt x="290" y="887" on="0"/>
      </contour>
      <contour>
        <pt x="513" y="1771" on="1"/>
        <pt x="603" y="1771" on="0"/>
        <pt x="603" y="1705" on="1"/>
        <pt x="605" y="1697" on="0"/>
        <pt x="605" y="1694" on="1"/>
        <pt x="607" y="1680" on="1"/>
        <pt x="607" y="1658" on="1"/>
        <pt x="606" y="1655" on="1"/>
        <pt x="606" y="1648" on="1"/>
        <pt x="604" y="1640" on="0"/>
        <pt x="604" y="1638" on="1"/>
        <pt x="604" y="1607" on="0"/>
        <pt x="553" y="1566" on="0"/>
        <pt x="529" y="1566" on="1"/>
        <pt x="515" y="1563" on="1"/>
        <pt x="508" y="1563" on="1"/>
        <pt x="497" y="1562" on="1"/>
        <pt x="494" y="1562" on="1"/>
        <pt x="490" y="1563" on="1"/>
        <pt x="401" y="1563" on="0"/>
        <pt x="401" y="1626" on="1"/>
        <pt x="396" y="1657" on="1"/>
        <pt x="396" y="1672" on="1"/>
        <pt x="400" y="1700" on="1"/>
        <pt x="400" y="1768" on="0"/>
        <pt x="474" y="1768" on="1"/>
        <pt x="477" y="1769" on="1"/>
        <pt x="481" y="1770" on="1"/>
        <pt x="509" y="1771" on="1"/>
      </contour>
      <contour>
        <pt x="756" y="1642" on="1"/>
        <pt x="756" y="1656" on="1"/>
        <pt x="756" y="1707" on="0"/>
        <pt x="816" y="1757" on="0"/>
        <pt x="861" y="1757" on="1"/>
        <pt x="889" y="1757" on="1"/>
        <pt x="909" y="1752" on="0"/>
        <pt x="918" y="1752" on="1"/>
        <pt x="980" y="1752" on="0"/>
        <pt x="980" y="1683" on="1"/>
        <pt x="983" y="1662" on="1"/>
        <pt x="983" y="1636" on="1"/>
        <pt x="983" y="1595" on="0"/>
        <pt x="933" y="1545" on="0"/>
        <pt x="897" y="1545" on="1"/>
        <pt x="878" y="1542" on="1"/>
        <pt x="858" y="1542" on="1"/>
        <pt x="855" y="1543" on="1"/>
        <pt x="847" y="1543" on="1"/>
        <pt x="839" y="1545" on="0"/>
        <pt x="805" y="1545" on="0"/>
        <pt x="756" y="1594" on="0"/>
      </contour>
      <contour>
        <pt x="1283" y="723" on="1"/>
        <pt x="1283" y="677" on="1"/>
        <pt x="1283" y="532" on="0"/>
        <pt x="1195" y="253" on="0"/>
        <pt x="1044" y="79" on="0"/>
        <pt x="822" y="-20" on="0"/>
        <pt x="700" y="-20" on="1"/>
        <pt x="677" y="-20" on="1"/>
        <pt x="399" y="-20" on="0"/>
        <pt x="246" y="163" on="1"/>
        <pt x="176" y="247" on="0"/>
        <pt x="87" y="519" on="0"/>
        <pt x="87" y="686" on="1"/>
        <pt x="87" y="709" on="1"/>
        <pt x="87" y="879" on="0"/>
        <pt x="177" y="1156" on="0"/>
        <pt x="326" y="1327" on="0"/>
        <pt x="547" y="1426" on="0"/>
        <pt x="670" y="1426" on="1"/>
        <pt x="716" y="1426" on="1"/>
        <pt x="841" y="1426" on="0"/>
        <pt x="1064" y="1323" on="0"/>
        <pt x="1202" y="1148" on="0"/>
        <pt x="1283" y="869" on="0"/>
      </contour>
    </TTGlyph>
    <TTGlyph name="Ograve" xMin="105" yMin="-20" xMax="1294" yMax="1836">
      <contour>
        <pt x="302" y="773" on="1"/>
        <pt x="302" y="702" on="1"/>
        <pt x="302" y="581" on="0"/>
        <pt x="359" y="358" on="0"/>
        <pt x="447" y="217" on="0"/>
        <pt x="601" y="131" on="0"/>
        <pt x="686" y="131" on="1"/>
        <pt x="720" y="131" on="1"/>
        <pt x="893" y="131" on="0"/>
        <pt x="994" y="280" on="1"/>
        <pt x="1031" y="335" on="0"/>
        <pt x="1086" y="540" on="0"/>
        <pt x="1086" y="664" on="1"/>
        <pt x="1086" y="753" on="1"/>
        <pt x="1086" y="853" on="0"/>
        <pt x="1056" y="969" on="1"/>
        <pt x="999" y="1188" on="0"/>
        <pt x="859" y="1262" on="1"/>
        <pt x="778" y="1304" on="0"/>
        <pt x="690" y="1304" on="1"/>
        <pt x="673" y="1303" on="1"/>
        <pt x="656" y="1303" on="1"/>
        <pt x="586" y="1302" on="0"/>
        <pt x="516" y="1266" on="1"/>
        <pt x="381" y="1196" on="0"/>
        <pt x="336" y="1018" on="1"/>
        <pt x="302" y="886" on="0"/>
      </contour>
      <contour>
        <pt x="426" y="1770" on="1"/>
        <pt x="426" y="1785" on="1"/>
        <pt x="426" y="1836" on="0"/>
        <pt x="503" y="1836" on="1"/>
        <pt x="520" y="1836" on="1"/>
        <pt x="578" y="1836" on="0"/>
        <pt x="677" y="1750" on="0"/>
        <pt x="784" y="1612" on="1"/>
        <pt x="816" y="1571" on="0"/>
        <pt x="816" y="1546" on="1"/>
        <pt x="816" y="1536" on="1"/>
        <pt x="816" y="1507" on="0"/>
        <pt x="782" y="1507" on="1"/>
        <pt x="761" y="1507" on="1"/>
        <pt x="689" y="1507" on="0"/>
        <pt x="426" y="1737" on="0"/>
      </contour>
      <contour>
        <pt x="1294" y="738" on="1"/>
        <pt x="1294" y="669" on="1"/>
        <pt x="1294" y="529" on="0"/>
        <pt x="1207" y="253" on="0"/>
        <pt x="1059" y="84" on="0"/>
        <pt x="839" y="-20" on="0"/>
        <pt x="705" y="-20" on="1"/>
        <pt x="660" y="-20" on="1"/>
        <pt x="535" y="-20" on="0"/>
        <pt x="317" y="89" on="0"/>
        <pt x="179" y="265" on="0"/>
        <pt x="105" y="542" on="0"/>
        <pt x="105" y="691" on="1"/>
        <pt x="106" y="714" on="1"/>
        <pt x="106" y="864" on="0"/>
        <pt x="146" y="999" on="1"/>
        <pt x="225" y="1270" on="0"/>
        <pt x="444" y="1371" on="1"/>
        <pt x="557" y="1423" on="0"/>
        <pt x="690" y="1423" on="1"/>
        <pt x="735" y="1423" on="1"/>
        <pt x="853" y="1423" on="0"/>
        <pt x="960" y="1374" on="1"/>
        <pt x="1168" y="1279" on="0"/>
        <pt x="1245" y="1039" on="1"/>
        <pt x="1294" y="888" on="0"/>
      </contour>
    </TTGlyph>
    <TTGlyph name="Oslash" xMin="113" yMin="-44" xMax="1281" yMax="1443">
      <contour>
        <pt x="301" y="735" on="1"/>
        <pt x="301" y="664" on="1"/>
        <pt x="301" y="543" on="0"/>
        <pt x="370" y="296" on="0"/>
        <pt x="401" y="296" on="1"/>
        <pt x="440" y="296" on="0"/>
        <pt x="621" y="602" on="1"/>
        <pt x="916" y="1101" on="0"/>
        <pt x="916" y="1179" on="1"/>
        <pt x="916" y="1190" on="1"/>
        <pt x="916" y="1235" on="0"/>
        <pt x="797" y="1303" on="0"/>
        <pt x="713" y="1303" on="1"/>
        <pt x="672" y="1303" on="1"/>
        <pt x="588" y="1303" on="0"/>
        <pt x="444" y="1213" on="0"/>
        <pt x="400" y="1143" on="1"/>
        <pt x="301" y="983" on="0"/>
      </contour>
      <contour>
        <pt x="1064" y="783" on="1"/>
        <pt x="1064" y="863" on="1"/>
        <pt x="1064" y="1029" on="0"/>
        <pt x="1025" y="1107" on="1"/>
        <pt x="1018" y="1121" on="0"/>
        <pt x="1000" y="1121" on="0"/>
        <pt x="781" y="701" on="0"/>
        <pt x="503" y="209" on="0"/>
        <pt x="503" y="157" on="0"/>
        <pt x="575" y="99" on="0"/>
        <pt x="636" y="99" on="1"/>
        <pt x="659" y="99" on="1"/>
        <pt x="746" y="99" on="0"/>
        <pt x="824" y="149" on="1"/>
        <pt x="972" y="244" on="0"/>
        <pt x="1027" y="484" on="1"/>
        <pt x="1064" y="644" on="0"/>
      </contour>
      <contour>
        <pt x="274" y="-44" on="1"/>
        <pt x="224" y="-44" on="0"/>
        <pt x="224" y="17" on="1"/>
        <pt x="233" y="129" on="1"/>
        <pt x="233" y="171" on="0"/>
        <pt x="169" y="326" on="0"/>
        <pt x="153" y="378" on="1"/>
        <pt x="113" y="509" on="0"/>
        <pt x="113" y="676" on="1"/>
        <pt x="114" y="702" on="1"/>
        <pt x="114" y="858" on="0"/>
        <pt x="161" y="1002" on="1"/>
        <pt x="255" y="1289" on="0"/>
        <pt x="506" y="1380" on="1"/>
        <pt x="609" y="1418" on="0"/>
        <pt x="775" y="1418" on="1"/>
        <pt x="809" y="1418" on="0"/>
        <pt x="944" y="1394" on="0"/>
        <pt x="994" y="1394" on="0"/>
        <pt x="1086" y="1443" on="0"/>
        <pt x="1105" y="1443" on="1"/>
        <pt x="1120" y="1443" on="1"/>
        <pt x="1172" y="1443" on="0"/>
        <pt x="1172" y="1384" on="1"/>
        <pt x="1164" y="1274" on="1"/>
        <pt x="1164" y="1268" on="0"/>
        <pt x="1281" y="909" on="0"/>
        <pt x="1281" y="751" on="1"/>
        <pt x="1281" y="698" on="1"/>
        <pt x="1281" y="548" on="0"/>
        <pt x="1232" y="404" on="1"/>
        <pt x="1090" y="-11" on="0"/>
        <pt x="638" y="-11" on="1"/>
        <pt x="455" y="9" on="1"/>
        <pt x="405" y="9" on="0"/>
        <pt x="299" y="-44" on="0"/>
      </contour>
    </TTGlyph>
    <TTGlyph name="Otilde" xMin="109" yMin="-18" xMax="1298" yMax="1755">
      <contour>
        <pt x="301" y="786" on="1"/>
        <pt x="301" y="699" on="1"/>
        <pt x="301" y="599" on="0"/>
        <pt x="361" y="368" on="0"/>
        <pt x="448" y="240" on="0"/>
        <pt x="593" y="150" on="0"/>
        <pt x="683" y="150" on="1"/>
        <pt x="718" y="150" on="1"/>
        <pt x="894" y="150" on="0"/>
        <pt x="997" y="297" on="1"/>
        <pt x="1037" y="353" on="0"/>
        <pt x="1098" y="564" on="0"/>
        <pt x="1098" y="712" on="1"/>
        <pt x="1098" y="747" on="1"/>
        <pt x="1098" y="862" on="0"/>
        <pt x="1035" y="1096" on="0"/>
        <pt x="950" y="1221" on="0"/>
        <pt x="803" y="1312" on="0"/>
        <pt x="719" y="1312" on="1"/>
        <pt x="668" y="1312" on="1"/>
        <pt x="599" y="1312" on="0"/>
        <pt x="528" y="1278" on="1"/>
        <pt x="393" y="1213" on="0"/>
        <pt x="334" y="1014" on="1"/>
        <pt x="301" y="900" on="0"/>
      </contour>
      <contour>
        <pt x="1019" y="1708" on="1"/>
        <pt x="1019" y="1692" on="1"/>
        <pt x="1019" y="1631" on="0"/>
        <pt x="944" y="1568" on="1"/>
        <pt x="897" y="1528" on="0"/>
        <pt x="834" y="1528" on="1"/>
        <pt x="818" y="1528" on="1"/>
        <pt x="771" y="1528" on="0"/>
        <pt x="591" y="1618" on="0"/>
        <pt x="520" y="1618" on="0"/>
        <pt x="417" y="1541" on="0"/>
        <pt x="403" y="1541" on="1"/>
        <pt x="369" y="1541" on="0"/>
        <pt x="369" y="1642" on="0"/>
        <pt x="492" y="1755" on="0"/>
        <pt x="568" y="1755" on="1"/>
        <pt x="576" y="1754" on="1"/>
        <pt x="628" y="1754" on="0"/>
        <pt x="808" y="1664" on="0"/>
        <pt x="880" y="1664" on="0"/>
        <pt x="965" y="1741" on="0"/>
        <pt x="979" y="1741" on="1"/>
        <pt x="1019" y="1741" on="0"/>
      </contour>
      <contour>
        <pt x="1298" y="725" on="1"/>
        <pt x="1298" y="678" on="1"/>
        <pt x="1298" y="529" on="0"/>
        <pt x="1211" y="260" on="0"/>
        <pt x="1064" y="85" on="0"/>
        <pt x="833" y="-18" on="0"/>
        <pt x="715" y="-18" on="1"/>
        <pt x="693" y="-18" on="1"/>
        <pt x="424" y="-18" on="0"/>
        <pt x="266" y="164" on="1"/>
        <pt x="199" y="241" on="0"/>
        <pt x="109" y="518" on="0"/>
        <pt x="109" y="687" on="1"/>
        <pt x="109" y="710" on="1"/>
        <pt x="109" y="856" on="0"/>
        <pt x="145" y="990" on="1"/>
        <pt x="216" y="1254" on="0"/>
        <pt x="423" y="1362" on="1"/>
        <pt x="544" y="1426" on="0"/>
        <pt x="687" y="1426" on="1"/>
        <pt x="732" y="1426" on="1"/>
        <pt x="845" y="1426" on="0"/>
        <pt x="959" y="1378" on="1"/>
        <pt x="1176" y="1287" on="0"/>
        <pt x="1259" y="1007" on="1"/>
        <pt x="1298" y="877" on="0"/>
      </contour>
    </TTGlyph>
    <TTGlyph name="P" xMin="176" yMin="34" xMax="1122" yMax="1418">
      <contour>
        <pt x="424" y="755" on="1"/>
        <pt x="424" y="702" on="0"/>
        <pt x="478" y="666" on="0"/>
        <pt x="540" y="666" on="1"/>
        <pt x="587" y="666" on="1"/>
        <pt x="614" y="669" on="0"/>
        <pt x="623" y="669" on="1"/>
        <pt x="735" y="669" on="0"/>
        <pt x="832" y="773" on="1"/>
        <pt x="902" y="848" on="0"/>
        <pt x="902" y="971" on="1"/>
        <pt x="904" y="993" on="1"/>
        <pt x="904" y="1016" on="1"/>
        <pt x="903" y="1027" on="1"/>
        <pt x="903" y="1154" on="0"/>
        <pt x="745" y="1300" on="0"/>
        <pt x="609" y="1300" on="1"/>
        <pt x="581" y="1300" on="1"/>
        <pt x="554" y="1297" on="0"/>
        <pt x="536" y="1297" on="1"/>
        <pt x="454" y="1297" on="0"/>
        <pt x="438" y="1247" on="1"/>
        <pt x="427" y="1212" on="0"/>
        <pt x="427" y="967" on="1"/>
        <pt x="426" y="936" on="1"/>
        <pt x="426" y="895" on="1"/>
        <pt x="425" y="874" on="1"/>
        <pt x="425" y="854" on="0"/>
        <pt x="425" y="834" on="1"/>
        <pt x="424" y="804" on="1"/>
      </contour>
      <contour>
        <pt x="1122" y="1006" on="1"/>
        <pt x="1122" y="826" on="0"/>
        <pt x="977" y="694" on="1"/>
        <pt x="902" y="626" on="0"/>
        <pt x="586" y="547" on="0"/>
        <pt x="473" y="471" on="0"/>
        <pt x="432" y="386" on="0"/>
        <pt x="432" y="298" on="0"/>
        <pt x="461" y="195" on="0"/>
        <pt x="461" y="118" on="0"/>
        <pt x="368" y="34" on="0"/>
        <pt x="308" y="34" on="1"/>
        <pt x="289" y="34" on="1"/>
        <pt x="234" y="34" on="0"/>
        <pt x="176" y="90" on="0"/>
        <pt x="176" y="138" on="1"/>
        <pt x="176" y="149" on="0"/>
        <pt x="232" y="300" on="0"/>
        <pt x="232" y="390" on="1"/>
        <pt x="235" y="459" on="1"/>
        <pt x="237" y="550" on="1"/>
        <pt x="237" y="550" on="0"/>
        <pt x="237" y="793" on="1"/>
        <pt x="237" y="946" on="0"/>
        <pt x="225" y="1191" on="0"/>
        <pt x="222" y="1254" on="0"/>
        <pt x="203" y="1326" on="0"/>
        <pt x="203" y="1341" on="1"/>
        <pt x="203" y="1379" on="0"/>
        <pt x="273" y="1392" on="1"/>
        <pt x="418" y="1418" on="0"/>
        <pt x="645" y="1418" on="1"/>
        <pt x="669" y="1418" on="1"/>
        <pt x="880" y="1418" on="0"/>
        <pt x="1122" y="1206" on="0"/>
        <pt x="1122" y="1030" on="1"/>
      </contour>
    </TTGlyph>
    <TTGlyph name="Q" xMin="94" yMin="-226" xMax="1318" yMax="1424">
      <contour>
        <pt x="1103" y="686" on="1"/>
        <pt x="1103" y="739" on="1"/>
        <pt x="1103" y="849" on="0"/>
        <pt x="1038" y="1074" on="0"/>
        <pt x="946" y="1207" on="0"/>
        <pt x="794" y="1288" on="0"/>
        <pt x="713" y="1288" on="1"/>
        <pt x="695" y="1288" on="1"/>
        <pt x="512" y="1288" on="0"/>
        <pt x="399" y="1124" on="1"/>
        <pt x="360" y="1068" on="0"/>
        <pt x="298" y="846" on="0"/>
        <pt x="298" y="721" on="1"/>
        <pt x="298" y="684" on="1"/>
        <pt x="299" y="666" on="1"/>
        <pt x="299" y="438" on="0"/>
        <pt x="401" y="282" on="1"/>
        <pt x="446" y="213" on="0"/>
        <pt x="592" y="132" on="0"/>
        <pt x="651" y="132" on="1"/>
        <pt x="679" y="132" on="1"/>
        <pt x="848" y="132" on="0"/>
        <pt x="1103" y="447" on="0"/>
      </contour>
      <contour>
        <pt x="1126" y="42" on="1"/>
        <pt x="1126" y="-5" on="0"/>
        <pt x="1318" y="-160" on="0"/>
        <pt x="1318" y="-165" on="1"/>
        <pt x="1318" y="-173" on="1"/>
        <pt x="1318" y="-183" on="0"/>
        <pt x="1253" y="-226" on="0"/>
        <pt x="1073" y="-226" on="0"/>
        <pt x="453" y="25" on="0"/>
        <pt x="231" y="217" on="0"/>
        <pt x="94" y="538" on="0"/>
        <pt x="94" y="720" on="1"/>
        <pt x="94" y="1057" on="0"/>
        <pt x="423" y="1424" on="0"/>
        <pt x="685" y="1424" on="1"/>
        <pt x="832" y="1424" on="0"/>
        <pt x="946" y="1370" on="1"/>
        <pt x="1168" y="1266" on="0"/>
        <pt x="1245" y="1026" on="1"/>
        <pt x="1282" y="910" on="0"/>
        <pt x="1282" y="709" on="1"/>
        <pt x="1282" y="393" on="0"/>
        <pt x="1180" y="183" on="1"/>
        <pt x="1126" y="72" on="0"/>
      </contour>
    </TTGlyph>
    <TTGlyph name="R" xMin="160" yMin="30" xMax="1157" yMax="1412">
      <contour>
        <pt x="487" y="708" on="1"/>
        <pt x="522" y="708" on="1"/>
        <pt x="687" y="708" on="0"/>
        <pt x="878" y="870" on="0"/>
        <pt x="878" y="1021" on="1"/>
        <pt x="875" y="1051" on="0"/>
        <pt x="875" y="1070" on="1"/>
        <pt x="875" y="1156" on="0"/>
        <pt x="735" y="1286" on="0"/>
        <pt x="624" y="1286" on="1"/>
        <pt x="560" y="1286" on="1"/>
        <pt x="472" y="1286" on="0"/>
        <pt x="407" y="1242" on="0"/>
        <pt x="407" y="1158" on="1"/>
        <pt x="405" y="1138" on="0"/>
        <pt x="405" y="1129" on="1"/>
        <pt x="404" y="1110" on="1"/>
        <pt x="404" y="1091" on="1"/>
        <pt x="403" y="1063" on="1"/>
        <pt x="403" y="1044" on="1"/>
        <pt x="402" y="1014" on="1"/>
        <pt x="402" y="985" on="1"/>
        <pt x="403" y="975" on="1"/>
        <pt x="403" y="951" on="0"/>
        <pt x="403" y="927" on="1"/>
        <pt x="402" y="897" on="1"/>
        <pt x="402" y="801" on="1"/>
        <pt x="402" y="746" on="0"/>
        <pt x="436" y="708" on="0"/>
      </contour>
      <contour>
        <pt x="1075" y="1032" on="1"/>
        <pt x="1075" y="946" on="0"/>
        <pt x="1004" y="809" on="0"/>
        <pt x="860" y="658" on="0"/>
        <pt x="860" y="545" on="0"/>
        <pt x="993" y="316" on="1"/>
        <pt x="1029" y="254" on="0"/>
        <pt x="1157" y="115" on="0"/>
        <pt x="1157" y="94" on="1"/>
        <pt x="1157" y="76" on="1"/>
        <pt x="1157" y="30" on="0"/>
        <pt x="1092" y="30" on="1"/>
        <pt x="1069" y="30" on="1"/>
        <pt x="1006" y="30" on="0"/>
        <pt x="956" y="96" on="1"/>
        <pt x="949" y="105" on="0"/>
        <pt x="702" y="488" on="0"/>
        <pt x="696" y="494" on="1"/>
        <pt x="632" y="561" on="0"/>
        <pt x="487" y="561" on="0"/>
        <pt x="440" y="489" on="1"/>
        <pt x="413" y="448" on="0"/>
        <pt x="413" y="317" on="1"/>
        <pt x="413" y="276" on="0"/>
        <pt x="443" y="156" on="0"/>
        <pt x="443" y="98" on="0"/>
        <pt x="361" y="35" on="0"/>
        <pt x="238" y="35" on="0"/>
        <pt x="209" y="55" on="1"/>
        <pt x="160" y="89" on="0"/>
        <pt x="160" y="154" on="1"/>
        <pt x="160" y="177" on="0"/>
        <pt x="208" y="281" on="0"/>
        <pt x="217" y="362" on="0"/>
        <pt x="217" y="817" on="0"/>
        <pt x="207" y="1112" on="0"/>
        <pt x="207" y="1252" on="0"/>
        <pt x="190" y="1332" on="0"/>
        <pt x="190" y="1338" on="1"/>
        <pt x="190" y="1381" on="0"/>
        <pt x="329" y="1412" on="0"/>
        <pt x="527" y="1412" on="1"/>
        <pt x="589" y="1412" on="1"/>
        <pt x="831" y="1412" on="0"/>
        <pt x="1075" y="1218" on="0"/>
      </contour>
    </TTGlyph>
    <TTGlyph name="S" xMin="126" yMin="-6" xMax="1026" yMax="1416">
      <contour>
        <pt x="1026" y="354" on="1"/>
        <pt x="1026" y="295" on="0"/>
        <pt x="994" y="223" on="1"/>
        <pt x="932" y="82" on="0"/>
        <pt x="757" y="24" on="1"/>
        <pt x="667" y="-6" on="0"/>
        <pt x="590" y="-6" on="1"/>
        <pt x="555" y="-6" on="1"/>
        <pt x="371" y="-6" on="0"/>
        <pt x="240" y="56" on="1"/>
        <pt x="190" y="80" on="0"/>
        <pt x="126" y="182" on="0"/>
        <pt x="126" y="211" on="1"/>
        <pt x="126" y="239" on="1"/>
        <pt x="126" y="281" on="0"/>
        <pt x="169" y="317" on="0"/>
        <pt x="218" y="317" on="0"/>
        <pt x="350" y="195" on="0"/>
        <pt x="486" y="141" on="0"/>
        <pt x="697" y="141" on="0"/>
        <pt x="826" y="258" on="0"/>
        <pt x="826" y="457" on="0"/>
        <pt x="718" y="537" on="1"/>
        <pt x="661" y="580" on="0"/>
        <pt x="328" y="730" on="0"/>
        <pt x="196" y="862" on="0"/>
        <pt x="152" y="991" on="0"/>
        <pt x="152" y="1062" on="1"/>
        <pt x="152" y="1220" on="0"/>
        <pt x="398" y="1416" on="0"/>
        <pt x="784" y="1416" on="0"/>
        <pt x="873" y="1374" on="1"/>
        <pt x="906" y="1358" on="0"/>
        <pt x="972" y="1263" on="0"/>
        <pt x="972" y="1216" on="1"/>
        <pt x="972" y="1133" on="0"/>
        <pt x="902" y="1133" on="1"/>
        <pt x="881" y="1133" on="0"/>
        <pt x="770" y="1224" on="0"/>
        <pt x="659" y="1275" on="0"/>
        <pt x="575" y="1275" on="1"/>
        <pt x="450" y="1275" on="0"/>
        <pt x="384" y="1199" on="1"/>
        <pt x="341" y="1149" on="0"/>
        <pt x="341" y="1094" on="1"/>
        <pt x="341" y="964" on="0"/>
        <pt x="470" y="886" on="1"/>
        <pt x="514" y="859" on="0"/>
        <pt x="833" y="715" on="0"/>
        <pt x="961" y="595" on="0"/>
        <pt x="1026" y="472" on="0"/>
        <pt x="1026" y="387" on="1"/>
      </contour>
    </TTGlyph>
    <TTGlyph name="Scaron" xMin="112" yMin="-1" xMax="1020" yMax="1832">
      <contour>
        <pt x="568" y="1516" on="1"/>
        <pt x="553" y="1516" on="1"/>
        <pt x="504" y="1516" on="0"/>
        <pt x="426" y="1618" on="1"/>
        <pt x="285" y="1801" on="0"/>
        <pt x="285" y="1802" on="1"/>
        <pt x="285" y="1832" on="0"/>
        <pt x="389" y="1832" on="0"/>
        <pt x="515" y="1706" on="1"/>
        <pt x="564" y="1657" on="0"/>
        <pt x="572" y="1657" on="0"/>
        <pt x="746" y="1831" on="0"/>
        <pt x="845" y="1831" on="0"/>
        <pt x="845" y="1805" on="1"/>
        <pt x="845" y="1798" on="1"/>
        <pt x="845" y="1771" on="0"/>
        <pt x="611" y="1516" on="0"/>
      </contour>
      <contour>
        <pt x="564" y="-1" on="1"/>
        <pt x="349" y="-1" on="0"/>
        <pt x="215" y="62" on="1"/>
        <pt x="179" y="79" on="0"/>
        <pt x="112" y="180" on="0"/>
        <pt x="112" y="227" on="1"/>
        <pt x="112" y="333" on="0"/>
        <pt x="168" y="333" on="1"/>
        <pt x="195" y="333" on="0"/>
        <pt x="321" y="194" on="0"/>
        <pt x="470" y="129" on="0"/>
        <pt x="712" y="129" on="0"/>
        <pt x="839" y="262" on="0"/>
        <pt x="839" y="351" on="1"/>
        <pt x="839" y="468" on="0"/>
        <pt x="741" y="543" on="1"/>
        <pt x="674" y="595" on="0"/>
        <pt x="309" y="735" on="0"/>
        <pt x="170" y="868" on="0"/>
        <pt x="130" y="996" on="0"/>
        <pt x="129" y="1072" on="1"/>
        <pt x="129" y="1223" on="0"/>
        <pt x="355" y="1413" on="0"/>
        <pt x="736" y="1413" on="0"/>
        <pt x="846" y="1375" on="1"/>
        <pt x="894" y="1358" on="0"/>
        <pt x="960" y="1251" on="0"/>
        <pt x="960" y="1219" on="1"/>
        <pt x="960" y="1116" on="0"/>
        <pt x="901" y="1116" on="1"/>
        <pt x="874" y="1116" on="0"/>
        <pt x="768" y="1224" on="0"/>
        <pt x="650" y="1288" on="0"/>
        <pt x="428" y="1288" on="0"/>
        <pt x="304" y="1170" on="0"/>
        <pt x="304" y="986" on="0"/>
        <pt x="394" y="917" on="1"/>
        <pt x="443" y="879" on="0"/>
        <pt x="820" y="732" on="0"/>
        <pt x="968" y="596" on="0"/>
        <pt x="1020" y="462" on="0"/>
        <pt x="1020" y="297" on="0"/>
        <pt x="984" y="220" on="1"/>
        <pt x="921" y="83" on="0"/>
        <pt x="767" y="31" on="1"/>
        <pt x="671" y="-1" on="0"/>
      </contour>
    </TTGlyph>
    <TTGlyph name="T" xMin="74" yMin="4" xMax="1137" yMax="1405">
      <contour>
        <pt x="697" y="608" on="1"/>
        <pt x="697" y="580" on="0"/>
        <pt x="697" y="552" on="1"/>
        <pt x="694" y="413" on="1"/>
        <pt x="694" y="413" on="0"/>
        <pt x="694" y="313" on="1"/>
        <pt x="694" y="254" on="0"/>
        <pt x="710" y="205" on="0"/>
        <pt x="739" y="130" on="0"/>
        <pt x="739" y="113" on="1"/>
        <pt x="739" y="64" on="0"/>
        <pt x="658" y="4" on="0"/>
        <pt x="587" y="4" on="1"/>
        <pt x="562" y="4" on="1"/>
        <pt x="511" y="4" on="0"/>
        <pt x="433" y="64" on="0"/>
        <pt x="433" y="134" on="0"/>
        <pt x="478" y="235" on="0"/>
        <pt x="497" y="353" on="0"/>
        <pt x="497" y="524" on="1"/>
        <pt x="499" y="581" on="1"/>
        <pt x="502" y="806" on="1"/>
        <pt x="502" y="1113" on="0"/>
        <pt x="477" y="1167" on="1"/>
        <pt x="447" y="1233" on="0"/>
        <pt x="315" y="1233" on="1"/>
        <pt x="270" y="1233" on="0"/>
        <pt x="142" y="1176" on="0"/>
        <pt x="128" y="1176" on="1"/>
        <pt x="74" y="1176" on="0"/>
        <pt x="74" y="1359" on="0"/>
        <pt x="206" y="1404" on="0"/>
        <pt x="782" y="1404" on="1"/>
        <pt x="866" y="1405" on="1"/>
        <pt x="894" y="1405" on="1"/>
        <pt x="921" y="1404" on="1"/>
        <pt x="1002" y="1405" on="1"/>
        <pt x="1027" y="1405" on="1"/>
        <pt x="1076" y="1405" on="0"/>
        <pt x="1137" y="1346" on="0"/>
        <pt x="1137" y="1304" on="1"/>
        <pt x="1137" y="1282" on="1"/>
        <pt x="1137" y="1208" on="0"/>
        <pt x="1078" y="1208" on="1"/>
        <pt x="1066" y="1208" on="0"/>
        <pt x="948" y="1240" on="0"/>
        <pt x="824" y="1240" on="0"/>
        <pt x="740" y="1192" on="0"/>
        <pt x="725" y="1152" on="1"/>
        <pt x="697" y="1075" on="0"/>
      </contour>
    </TTGlyph>
    <TTGlyph name="Thorn" xMin="161" yMin="15" xMax="1092" yMax="1393">
      <contour>
        <pt x="548" y="420" on="1"/>
        <pt x="566" y="420" on="1"/>
        <pt x="712" y="420" on="0"/>
        <pt x="876" y="584" on="0"/>
        <pt x="876" y="733" on="1"/>
        <pt x="876" y="755" on="1"/>
        <pt x="876" y="893" on="0"/>
        <pt x="727" y="1053" on="0"/>
        <pt x="590" y="1053" on="1"/>
        <pt x="534" y="1053" on="1"/>
        <pt x="430" y="1053" on="0"/>
        <pt x="413" y="1010" on="1"/>
        <pt x="406" y="992" on="0"/>
        <pt x="406" y="719" on="1"/>
        <pt x="405" y="688" on="1"/>
        <pt x="405" y="598" on="1"/>
        <pt x="404" y="567" on="1"/>
        <pt x="404" y="499" on="1"/>
        <pt x="404" y="454" on="0"/>
        <pt x="468" y="420" on="0"/>
      </contour>
      <contour>
        <pt x="354" y="15" on="0"/>
        <pt x="162" y="15" on="0"/>
        <pt x="162" y="84" on="1"/>
        <pt x="162" y="117" on="0"/>
        <pt x="198" y="191" on="0"/>
        <pt x="220" y="256" on="0"/>
        <pt x="220" y="379" on="1"/>
        <pt x="223" y="448" on="1"/>
        <pt x="224" y="472" on="0"/>
        <pt x="224" y="514" on="1"/>
        <pt x="224" y="637" on="1"/>
        <pt x="225" y="685" on="1"/>
        <pt x="225" y="744" on="0"/>
        <pt x="225" y="803" on="1"/>
        <pt x="223" y="873" on="1"/>
        <pt x="222" y="897" on="0"/>
        <pt x="222" y="921" on="0"/>
        <pt x="220" y="967" on="1"/>
        <pt x="218" y="1013" on="1"/>
        <pt x="215" y="1084" on="0"/>
        <pt x="215" y="1186" on="0"/>
        <pt x="161" y="1305" on="0"/>
        <pt x="161" y="1327" on="1"/>
        <pt x="161" y="1393" on="0"/>
        <pt x="273" y="1393" on="1"/>
        <pt x="293" y="1393" on="1"/>
        <pt x="352" y="1393" on="0"/>
        <pt x="457" y="1310" on="0"/>
        <pt x="502" y="1183" on="0"/>
        <pt x="637" y="1164" on="1"/>
        <pt x="858" y="1135" on="0"/>
        <pt x="958" y="1058" on="1"/>
        <pt x="1019" y="1011" on="0"/>
        <pt x="1092" y="854" on="0"/>
        <pt x="1092" y="754" on="1"/>
        <pt x="1092" y="729" on="1"/>
        <pt x="1092" y="550" on="0"/>
        <pt x="967" y="441" on="1"/>
        <pt x="904" y="386" on="0"/>
        <pt x="761" y="337" on="0"/>
        <pt x="573" y="309" on="0"/>
        <pt x="550" y="297" on="1"/>
        <pt x="465" y="253" on="0"/>
        <pt x="465" y="210" on="1"/>
        <pt x="471" y="165" on="1"/>
        <pt x="471" y="101" on="0"/>
        <pt x="395" y="45" on="1"/>
      </contour>
    </TTGlyph>
    <TTGlyph name="U" xMin="134" yMin="11" xMax="1261" yMax="1374">
      <contour>
        <pt x="1048" y="1029" on="1"/>
        <pt x="1049" y="1064" on="0"/>
        <pt x="1049" y="1181" on="0"/>
        <pt x="1032" y="1287" on="0"/>
        <pt x="1032" y="1314" on="1"/>
        <pt x="1032" y="1374" on="0"/>
        <pt x="1142" y="1374" on="1"/>
        <pt x="1190" y="1374" on="0"/>
        <pt x="1216" y="1346" on="1"/>
        <pt x="1261" y="1297" on="0"/>
        <pt x="1261" y="1249" on="1"/>
        <pt x="1261" y="1219" on="1"/>
        <pt x="1261" y="1193" on="0"/>
        <pt x="1218" y="1070" on="0"/>
        <pt x="1211" y="950" on="0"/>
        <pt x="1211" y="462" on="0"/>
        <pt x="1178" y="260" on="0"/>
        <pt x="1056" y="95" on="0"/>
        <pt x="850" y="11" on="0"/>
        <pt x="534" y="11" on="0"/>
        <pt x="432" y="56" on="1"/>
        <pt x="246" y="138" on="0"/>
        <pt x="207" y="391" on="1"/>
        <pt x="189" y="507" on="0"/>
        <pt x="189" y="1055" on="0"/>
        <pt x="134" y="1215" on="0"/>
        <pt x="134" y="1237" on="1"/>
        <pt x="134" y="1308" on="0"/>
        <pt x="185" y="1349" on="1"/>
        <pt x="212" y="1371" on="0"/>
        <pt x="348" y="1371" on="0"/>
        <pt x="401" y="1313" on="0"/>
        <pt x="401" y="1274" on="1"/>
        <pt x="398" y="1252" on="1"/>
        <pt x="390" y="1204" on="1"/>
        <pt x="385" y="1167" on="0"/>
        <pt x="385" y="1084" on="1"/>
        <pt x="386" y="1051" on="1"/>
        <pt x="386" y="1016" on="0"/>
        <pt x="386" y="981" on="1"/>
        <pt x="387" y="909" on="1"/>
        <pt x="387" y="836" on="1"/>
        <pt x="387" y="408" on="0"/>
        <pt x="436" y="301" on="1"/>
        <pt x="508" y="141" on="0"/>
        <pt x="702" y="141" on="1"/>
        <pt x="914" y="141" on="0"/>
        <pt x="999" y="357" on="1"/>
        <pt x="1046" y="477" on="0"/>
        <pt x="1046" y="958" on="1"/>
      </contour>
    </TTGlyph>
    <TTGlyph name="Uacute" xMin="111" yMin="10" xMax="1269" yMax="1827">
      <contour>
        <pt x="639" y="1519" on="1"/>
        <pt x="624" y="1519" on="1"/>
        <pt x="580" y="1519" on="0"/>
        <pt x="580" y="1553" on="1"/>
        <pt x="580" y="1557" on="1"/>
        <pt x="580" y="1614" on="0"/>
        <pt x="780" y="1770" on="1"/>
        <pt x="853" y="1827" on="0"/>
        <pt x="896" y="1827" on="1"/>
        <pt x="922" y="1827" on="1"/>
        <pt x="972" y="1827" on="0"/>
        <pt x="972" y="1794" on="1"/>
        <pt x="972" y="1780" on="1"/>
        <pt x="972" y="1720" on="0"/>
        <pt x="713" y="1519" on="0"/>
      </contour>
      <contour>
        <pt x="270" y="1399" on="1"/>
        <pt x="414" y="1399" on="0"/>
        <pt x="414" y="1309" on="1"/>
        <pt x="414" y="1299" on="0"/>
        <pt x="377" y="1176" on="0"/>
        <pt x="377" y="1076" on="1"/>
        <pt x="377" y="833" on="1"/>
        <pt x="377" y="407" on="0"/>
        <pt x="433" y="300" on="1"/>
        <pt x="513" y="147" on="0"/>
        <pt x="925" y="147" on="0"/>
        <pt x="1001" y="310" on="1"/>
        <pt x="1052" y="417" on="0"/>
        <pt x="1052" y="887" on="1"/>
        <pt x="1052" y="1146" on="0"/>
        <pt x="1004" y="1325" on="0"/>
        <pt x="1004" y="1333" on="1"/>
        <pt x="1004" y="1402" on="0"/>
        <pt x="1133" y="1402" on="1"/>
        <pt x="1166" y="1402" on="1"/>
        <pt x="1199" y="1402" on="0"/>
        <pt x="1269" y="1319" on="0"/>
        <pt x="1269" y="1253" on="0"/>
        <pt x="1216" y="1143" on="0"/>
        <pt x="1204" y="1023" on="0"/>
        <pt x="1204" y="495" on="0"/>
        <pt x="1188" y="388" on="1"/>
        <pt x="1151" y="148" on="0"/>
        <pt x="944" y="56" on="1"/>
        <pt x="840" y="10" on="0"/>
        <pt x="684" y="10" on="1"/>
        <pt x="386" y="10" on="0"/>
        <pt x="261" y="200" on="1"/>
        <pt x="210" y="277" on="0"/>
        <pt x="174" y="515" on="0"/>
        <pt x="174" y="1064" on="0"/>
        <pt x="158" y="1144" on="0"/>
        <pt x="111" y="1243" on="0"/>
        <pt x="111" y="1250" on="1"/>
        <pt x="111" y="1280" on="1"/>
        <pt x="111" y="1342" on="0"/>
        <pt x="181" y="1383" on="1"/>
        <pt x="208" y="1399" on="0"/>
      </contour>
    </TTGlyph>
    <TTGlyph name="Ucircumflex" xMin="104" yMin="-17" xMax="1273" yMax="1838">
      <contour>
        <pt x="997" y="1557" on="1"/>
        <pt x="997" y="1551" on="1"/>
        <pt x="997" y="1526" on="0"/>
        <pt x="894" y="1526" on="0"/>
        <pt x="706" y="1699" on="0"/>
        <pt x="698" y="1699" on="0"/>
        <pt x="508" y="1525" on="0"/>
        <pt x="409" y="1525" on="0"/>
        <pt x="409" y="1551" on="1"/>
        <pt x="409" y="1594" on="0"/>
        <pt x="607" y="1792" on="1"/>
        <pt x="653" y="1838" on="0"/>
        <pt x="705" y="1838" on="1"/>
        <pt x="712" y="1837" on="1"/>
        <pt x="720" y="1837" on="1"/>
        <pt x="766" y="1837" on="0"/>
        <pt x="861" y="1725" on="1"/>
        <pt x="997" y="1564" on="0"/>
      </contour>
      <contour>
        <pt x="263" y="1394" on="1"/>
        <pt x="410" y="1394" on="0"/>
        <pt x="410" y="1302" on="1"/>
        <pt x="410" y="1291" on="0"/>
        <pt x="375" y="1180" on="0"/>
        <pt x="371" y="1083" on="0"/>
        <pt x="371" y="963" on="1"/>
        <pt x="372" y="890" on="1"/>
        <pt x="372" y="853" on="0"/>
        <pt x="372" y="816" on="1"/>
        <pt x="372" y="382" on="0"/>
        <pt x="428" y="274" on="1"/>
        <pt x="508" y="118" on="0"/>
        <pt x="926" y="118" on="0"/>
        <pt x="1003" y="283" on="1"/>
        <pt x="1054" y="392" on="0"/>
        <pt x="1054" y="1128" on="0"/>
        <pt x="1005" y="1312" on="0"/>
        <pt x="1005" y="1322" on="1"/>
        <pt x="1005" y="1395" on="0"/>
        <pt x="1134" y="1395" on="1"/>
        <pt x="1167" y="1395" on="1"/>
        <pt x="1203" y="1395" on="0"/>
        <pt x="1273" y="1312" on="0"/>
        <pt x="1273" y="1243" on="0"/>
        <pt x="1220" y="1133" on="0"/>
        <pt x="1209" y="1023" on="0"/>
        <pt x="1209" y="755" on="1"/>
        <pt x="1209" y="739" on="0"/>
        <pt x="1209" y="724" on="1"/>
        <pt x="1209" y="480" on="0"/>
        <pt x="1194" y="375" on="1"/>
        <pt x="1159" y="122" on="0"/>
        <pt x="949" y="30" on="1"/>
        <pt x="842" y="-17" on="0"/>
        <pt x="696" y="-17" on="1"/>
        <pt x="656" y="-17" on="1"/>
        <pt x="522" y="-17" on="0"/>
        <pt x="312" y="86" on="0"/>
        <pt x="204" y="256" on="0"/>
        <pt x="169" y="487" on="0"/>
        <pt x="169" y="1045" on="0"/>
        <pt x="152" y="1142" on="0"/>
        <pt x="104" y="1229" on="0"/>
        <pt x="104" y="1272" on="1"/>
        <pt x="104" y="1337" on="0"/>
        <pt x="173" y="1378" on="1"/>
        <pt x="200" y="1394" on="0"/>
      </contour>
    </TTGlyph>
    <TTGlyph name="Udieresis" xMin="96" yMin="-6" xMax="1262" yMax="1768">
      <contour>
        <pt x="395" y="1675" on="1"/>
        <pt x="395" y="1752" on="0"/>
        <pt x="457" y="1752" on="1"/>
        <pt x="461" y="1753" on="1"/>
        <pt x="467" y="1755" on="1"/>
        <pt x="504" y="1758" on="1"/>
        <pt x="515" y="1758" on="1"/>
        <pt x="561" y="1758" on="0"/>
        <pt x="609" y="1719" on="0"/>
        <pt x="609" y="1669" on="1"/>
        <pt x="609" y="1665" on="1"/>
        <pt x="607" y="1647" on="1"/>
        <pt x="607" y="1640" on="1"/>
        <pt x="605" y="1632" on="0"/>
        <pt x="605" y="1602" on="0"/>
        <pt x="559" y="1556" on="0"/>
        <pt x="535" y="1556" on="1"/>
        <pt x="529" y="1554" on="1"/>
        <pt x="522" y="1552" on="1"/>
        <pt x="499" y="1550" on="1"/>
        <pt x="495" y="1551" on="1"/>
        <pt x="488" y="1551" on="1"/>
        <pt x="460" y="1556" on="1"/>
        <pt x="399" y="1556" on="0"/>
        <pt x="399" y="1626" on="1"/>
        <pt x="397" y="1632" on="0"/>
        <pt x="397" y="1637" on="1"/>
        <pt x="395" y="1651" on="1"/>
      </contour>
      <contour>
        <pt x="779" y="1665" on="1"/>
        <pt x="779" y="1710" on="0"/>
        <pt x="821" y="1763" on="0"/>
        <pt x="851" y="1763" on="1"/>
        <pt x="855" y="1764" on="1"/>
        <pt x="858" y="1765" on="1"/>
        <pt x="887" y="1768" on="1"/>
        <pt x="898" y="1768" on="1"/>
        <pt x="990" y="1768" on="0"/>
        <pt x="990" y="1682" on="1"/>
        <pt x="990" y="1653" on="1"/>
        <pt x="989" y="1650" on="1"/>
        <pt x="989" y="1643" on="1"/>
        <pt x="987" y="1635" on="0"/>
        <pt x="987" y="1607" on="0"/>
        <pt x="941" y="1561" on="0"/>
        <pt x="911" y="1561" on="1"/>
        <pt x="890" y="1558" on="1"/>
        <pt x="865" y="1558" on="1"/>
        <pt x="841" y="1562" on="1"/>
        <pt x="783" y="1562" on="0"/>
        <pt x="783" y="1626" on="1"/>
        <pt x="781" y="1634" on="0"/>
        <pt x="781" y="1637" on="1"/>
        <pt x="779" y="1654" on="1"/>
      </contour>
      <contour>
        <pt x="255" y="1396" on="1"/>
        <pt x="398" y="1396" on="0"/>
        <pt x="398" y="1301" on="1"/>
        <pt x="398" y="1290" on="0"/>
        <pt x="360" y="1174" on="0"/>
        <pt x="356" y="1082" on="0"/>
        <pt x="356" y="1004" on="1"/>
        <pt x="356" y="888" on="1"/>
        <pt x="357" y="815" on="1"/>
        <pt x="357" y="793" on="0"/>
        <pt x="357" y="773" on="1"/>
        <pt x="357" y="527" on="0"/>
        <pt x="368" y="439" on="1"/>
        <pt x="483" y="194" on="0"/>
        <pt x="713" y="124" on="1"/>
        <pt x="896" y="124" on="0"/>
        <pt x="980" y="258" on="1"/>
        <pt x="1046" y="363" on="0"/>
        <pt x="1046" y="612" on="1"/>
        <pt x="1047" y="650" on="1"/>
        <pt x="1048" y="688" on="0"/>
        <pt x="1048" y="734" on="1"/>
        <pt x="1048" y="835" on="1"/>
        <pt x="1048" y="1132" on="0"/>
        <pt x="997" y="1319" on="0"/>
        <pt x="997" y="1325" on="1"/>
        <pt x="997" y="1398" on="0"/>
        <pt x="1127" y="1398" on="1"/>
        <pt x="1160" y="1398" on="1"/>
        <pt x="1193" y="1398" on="0"/>
        <pt x="1262" y="1317" on="0"/>
        <pt x="1262" y="1249" on="0"/>
        <pt x="1213" y="1151" on="0"/>
        <pt x="1195" y="1055" on="0"/>
        <pt x="1195" y="768" on="1"/>
        <pt x="1195" y="482" on="0"/>
        <pt x="1181" y="378" on="1"/>
        <pt x="1166" y="274" on="0"/>
        <pt x="1108" y="182" on="1"/>
        <pt x="989" y="-5" on="0"/>
        <pt x="681" y="-6" on="1"/>
        <pt x="372" y="-6" on="0"/>
        <pt x="248" y="189" on="1"/>
        <pt x="195" y="272" on="0"/>
        <pt x="164" y="497" on="0"/>
        <pt x="164" y="1052" on="0"/>
        <pt x="145" y="1148" on="0"/>
        <pt x="96" y="1237" on="0"/>
        <pt x="96" y="1280" on="1"/>
        <pt x="96" y="1347" on="0"/>
        <pt x="164" y="1383" on="1"/>
        <pt x="188" y="1396" on="0"/>
      </contour>
    </TTGlyph>
    <TTGlyph name="Ugrave" xMin="106" yMin="-14" xMax="1272" yMax="1841">
      <contour>
        <pt x="758" y="1525" on="1"/>
        <pt x="717" y="1525" on="0"/>
        <pt x="507" y="1688" on="1"/>
        <pt x="436" y="1743" on="0"/>
        <pt x="436" y="1785" on="1"/>
        <pt x="436" y="1789" on="1"/>
        <pt x="436" y="1841" on="0"/>
        <pt x="507" y="1841" on="1"/>
        <pt x="523" y="1841" on="1"/>
        <pt x="583" y="1841" on="0"/>
        <pt x="642" y="1789" on="1"/>
        <pt x="823" y="1631" on="0"/>
        <pt x="823" y="1559" on="1"/>
        <pt x="823" y="1554" on="1"/>
        <pt x="823" y="1523" on="0"/>
        <pt x="789" y="1523" on="1"/>
        <pt x="773" y="1523" on="1"/>
        <pt x="763" y="1525" on="0"/>
      </contour>
      <contour>
        <pt x="264" y="1395" on="1"/>
        <pt x="408" y="1395" on="0"/>
        <pt x="408" y="1300" on="1"/>
        <pt x="408" y="1286" on="0"/>
        <pt x="372" y="1177" on="0"/>
        <pt x="368" y="1082" on="0"/>
        <pt x="368" y="1004" on="1"/>
        <pt x="368" y="888" on="1"/>
        <pt x="369" y="814" on="1"/>
        <pt x="369" y="380" on="0"/>
        <pt x="427" y="271" on="1"/>
        <pt x="510" y="117" on="0"/>
        <pt x="925" y="117" on="0"/>
        <pt x="1004" y="281" on="1"/>
        <pt x="1055" y="386" on="0"/>
        <pt x="1055" y="1136" on="0"/>
        <pt x="1008" y="1308" on="0"/>
        <pt x="1008" y="1322" on="1"/>
        <pt x="1008" y="1396" on="0"/>
        <pt x="1136" y="1396" on="1"/>
        <pt x="1169" y="1396" on="1"/>
        <pt x="1204" y="1396" on="0"/>
        <pt x="1272" y="1313" on="0"/>
        <pt x="1272" y="1246" on="0"/>
        <pt x="1220" y="1142" on="0"/>
        <pt x="1206" y="1024" on="0"/>
        <pt x="1206" y="452" on="0"/>
        <pt x="1186" y="344" on="1"/>
        <pt x="1145" y="120" on="0"/>
        <pt x="947" y="32" on="1"/>
        <pt x="844" y="-14" on="0"/>
        <pt x="694" y="-14" on="1"/>
        <pt x="383" y="-14" on="0"/>
        <pt x="258" y="181" on="1"/>
        <pt x="205" y="264" on="0"/>
        <pt x="173" y="499" on="0"/>
        <pt x="173" y="1046" on="0"/>
        <pt x="154" y="1144" on="0"/>
        <pt x="106" y="1233" on="0"/>
        <pt x="106" y="1275" on="1"/>
        <pt x="106" y="1339" on="0"/>
        <pt x="175" y="1379" on="1"/>
        <pt x="203" y="1395" on="0"/>
      </contour>
    </TTGlyph>
    <TTGlyph name="V" xMin="65" yMin="13" xMax="1230" yMax="1395">
      <contour>
        <pt x="672" y="291" on="1"/>
        <pt x="713" y="291" on="0"/>
        <pt x="934" y="988" on="1"/>
        <pt x="986" y="1154" on="0"/>
        <pt x="995" y="1304" on="0"/>
        <pt x="1004" y="1322" on="1"/>
        <pt x="1039" y="1395" on="0"/>
        <pt x="1145" y="1395" on="1"/>
        <pt x="1230" y="1395" on="0"/>
        <pt x="1230" y="1321" on="1"/>
        <pt x="1230" y="1270" on="0"/>
        <pt x="1156" y="1149" on="0"/>
        <pt x="857" y="317" on="0"/>
        <pt x="752" y="78" on="0"/>
        <pt x="696" y="13" on="0"/>
        <pt x="660" y="13" on="1"/>
        <pt x="633" y="13" on="1"/>
        <pt x="566" y="13" on="0"/>
        <pt x="496" y="174" on="1"/>
        <pt x="486" y="197" on="0"/>
        <pt x="184" y="1075" on="0"/>
        <pt x="98" y="1199" on="1"/>
        <pt x="65" y="1247" on="0"/>
        <pt x="65" y="1340" on="0"/>
        <pt x="117" y="1373" on="0"/>
        <pt x="188" y="1373" on="1"/>
        <pt x="289" y="1373" on="0"/>
        <pt x="330" y="1296" on="1"/>
        <pt x="343" y="1272" on="0"/>
        <pt x="365" y="1152" on="0"/>
        <pt x="456" y="889" on="0"/>
        <pt x="476" y="825" on="1"/>
        <pt x="645" y="291" on="0"/>
      </contour>
    </TTGlyph>
    <TTGlyph name="W" xMin="136" yMin="111" xMax="1746" yMax="1344">
      <contour>
        <pt x="1288" y="408" on="0"/>
        <pt x="1361" y="408" on="0"/>
        <pt x="1465" y="756" on="1"/>
        <pt x="1515" y="920" on="0"/>
        <pt x="1577" y="1227" on="0"/>
        <pt x="1590" y="1262" on="1"/>
        <pt x="1620" y="1344" on="0"/>
        <pt x="1673" y="1344" on="1"/>
        <pt x="1702" y="1344" on="0"/>
        <pt x="1746" y="1303" on="0"/>
        <pt x="1746" y="1261" on="1"/>
        <pt x="1746" y="1231" on="1"/>
        <pt x="1746" y="1194" on="0"/>
        <pt x="1683" y="972" on="0"/>
        <pt x="1515" y="349" on="0"/>
        <pt x="1454" y="185" on="0"/>
        <pt x="1389" y="135" on="1"/>
        <pt x="1358" y="111" on="0"/>
        <pt x="1334" y="111" on="1"/>
        <pt x="1259" y="111" on="0"/>
        <pt x="1193" y="226" on="1"/>
        <pt x="1145" y="309" on="0"/>
        <pt x="943" y="829" on="0"/>
        <pt x="925" y="829" on="0"/>
        <pt x="706" y="299" on="0"/>
        <pt x="666" y="233" on="1"/>
        <pt x="601" y="127" on="0"/>
        <pt x="530" y="127" on="1"/>
        <pt x="508" y="127" on="0"/>
        <pt x="480" y="148" on="1"/>
        <pt x="419" y="193" on="0"/>
        <pt x="335" y="434" on="0"/>
        <pt x="186" y="996" on="1"/>
        <pt x="136" y="1185" on="0"/>
        <pt x="136" y="1242" on="1"/>
        <pt x="136" y="1327" on="0"/>
        <pt x="285" y="1327" on="0"/>
        <pt x="333" y="1217" on="1"/>
        <pt x="351" y="1176" on="0"/>
        <pt x="421" y="898" on="0"/>
        <pt x="464" y="758" on="1"/>
        <pt x="574" y="397" on="0"/>
        <pt x="650" y="397" on="0"/>
        <pt x="794" y="963" on="0"/>
        <pt x="809" y="1176" on="0"/>
        <pt x="820" y="1205" on="1"/>
        <pt x="854" y="1290" on="0"/>
        <pt x="945" y="1290" on="1"/>
        <pt x="1048" y="1290" on="0"/>
        <pt x="1086" y="1185" on="1"/>
        <pt x="1106" y="1132" on="0"/>
        <pt x="1133" y="932" on="0"/>
        <pt x="1229" y="609" on="1"/>
      </contour>
    </TTGlyph>
    <TTGlyph name="X" xMin="113" yMin="6" xMax="1183" yMax="1396">
      <contour>
        <pt x="1183" y="85" on="1"/>
        <pt x="1183" y="20" on="0"/>
        <pt x="1032" y="20" on="1"/>
        <pt x="939" y="20" on="0"/>
        <pt x="899" y="73" on="1"/>
        <pt x="890" y="85" on="0"/>
        <pt x="872" y="152" on="0"/>
        <pt x="857" y="190" on="0"/>
        <pt x="647" y="534" on="0"/>
        <pt x="628" y="534" on="1"/>
        <pt x="587" y="534" on="0"/>
        <pt x="432" y="267" on="1"/>
        <pt x="391" y="196" on="0"/>
        <pt x="338" y="45" on="0"/>
        <pt x="331" y="39" on="1"/>
        <pt x="295" y="6" on="0"/>
        <pt x="164" y="6" on="0"/>
        <pt x="113" y="39" on="0"/>
        <pt x="113" y="107" on="0"/>
        <pt x="228" y="230" on="0"/>
        <pt x="309" y="341" on="0"/>
        <pt x="509" y="669" on="0"/>
        <pt x="509" y="729" on="1"/>
        <pt x="509" y="769" on="0"/>
        <pt x="251" y="1157" on="0"/>
        <pt x="227" y="1184" on="1"/>
        <pt x="130" y="1295" on="0"/>
        <pt x="130" y="1320" on="1"/>
        <pt x="130" y="1378" on="0"/>
        <pt x="382" y="1378" on="0"/>
        <pt x="424" y="1319" on="1"/>
        <pt x="425" y="1317" on="0"/>
        <pt x="460" y="1192" on="0"/>
        <pt x="508" y="1115" on="1"/>
        <pt x="641" y="899" on="0"/>
        <pt x="663" y="899" on="1"/>
        <pt x="695" y="899" on="0"/>
        <pt x="843" y="1132" on="1"/>
        <pt x="886" y="1199" on="0"/>
        <pt x="900" y="1245" on="1"/>
        <pt x="912" y="1293" on="1"/>
        <pt x="920" y="1326" on="0"/>
        <pt x="929" y="1339" on="1"/>
        <pt x="966" y="1396" on="0"/>
        <pt x="1062" y="1396" on="1"/>
        <pt x="1094" y="1396" on="1"/>
        <pt x="1171" y="1396" on="0"/>
        <pt x="1171" y="1331" on="1"/>
        <pt x="1171" y="1310" on="0"/>
        <pt x="1044" y="1172" on="0"/>
        <pt x="970" y="1061" on="1"/>
        <pt x="790" y="791" on="0"/>
        <pt x="790" y="683" on="0"/>
        <pt x="977" y="362" on="0"/>
        <pt x="1078" y="222" on="0"/>
        <pt x="1183" y="123" on="0"/>
      </contour>
    </TTGlyph>
    <TTGlyph name="Y" xMin="92" yMin="-11" xMax="1153" yMax="1394">
      <contour>
        <pt x="1033" y="1394" on="1"/>
        <pt x="1058" y="1394" on="1"/>
        <pt x="1153" y="1394" on="0"/>
        <pt x="1153" y="1342" on="1"/>
        <pt x="1153" y="1325" on="0"/>
        <pt x="1037" y="1144" on="0"/>
        <pt x="936" y="931" on="0"/>
        <pt x="811" y="676" on="0"/>
        <pt x="798" y="645" on="1"/>
        <pt x="709" y="432" on="0"/>
        <pt x="709" y="238" on="1"/>
        <pt x="709" y="196" on="0"/>
        <pt x="736" y="107" on="0"/>
        <pt x="736" y="95" on="1"/>
        <pt x="736" y="49" on="0"/>
        <pt x="660" y="-11" on="0"/>
        <pt x="598" y="-11" on="1"/>
        <pt x="462" y="-11" on="0"/>
        <pt x="462" y="83" on="1"/>
        <pt x="462" y="90" on="0"/>
        <pt x="506" y="212" on="1"/>
        <pt x="529" y="276" on="0"/>
        <pt x="529" y="528" on="0"/>
        <pt x="412" y="767" on="0"/>
        <pt x="218" y="1127" on="0"/>
        <pt x="182" y="1174" on="1"/>
        <pt x="92" y="1292" on="0"/>
        <pt x="92" y="1309" on="1"/>
        <pt x="92" y="1326" on="1"/>
        <pt x="92" y="1373" on="0"/>
        <pt x="327" y="1373" on="0"/>
        <pt x="367" y="1311" on="1"/>
        <pt x="377" y="1296" on="0"/>
        <pt x="390" y="1217" on="0"/>
        <pt x="399" y="1191" on="0"/>
        <pt x="461" y="1057" on="1"/>
        <pt x="595" y="766" on="0"/>
        <pt x="677" y="766" on="0"/>
        <pt x="822" y="1062" on="1"/>
        <pt x="866" y="1151" on="0"/>
        <pt x="907" y="1330" on="0"/>
        <pt x="916" y="1342" on="1"/>
        <pt x="954" y="1394" on="0"/>
      </contour>
    </TTGlyph>
    <TTGlyph name="Yacute" xMin="57" yMin="27" xMax="1147" yMax="1831">
      <contour>
        <pt x="892" y="1782" on="1"/>
        <pt x="892" y="1769" on="1"/>
        <pt x="892" y="1741" on="0"/>
        <pt x="778" y="1652" on="1"/>
        <pt x="586" y="1503" on="0"/>
        <pt x="539" y="1503" on="1"/>
        <pt x="534" y="1504" on="1"/>
        <pt x="507" y="1504" on="0"/>
        <pt x="507" y="1531" on="1"/>
        <pt x="508" y="1535" on="1"/>
        <pt x="508" y="1569" on="0"/>
        <pt x="673" y="1755" on="1"/>
        <pt x="741" y="1831" on="0"/>
        <pt x="804" y="1831" on="1"/>
        <pt x="820" y="1831" on="1"/>
        <pt x="892" y="1831" on="0"/>
      </contour>
      <contour>
        <pt x="1048" y="1399" on="1"/>
        <pt x="1074" y="1399" on="1"/>
        <pt x="1147" y="1399" on="0"/>
        <pt x="1147" y="1353" on="1"/>
        <pt x="1147" y="1348" on="0"/>
        <pt x="1052" y="1213" on="1"/>
        <pt x="1021" y="1169" on="0"/>
        <pt x="781" y="690" on="0"/>
        <pt x="766" y="649" on="1"/>
        <pt x="716" y="516" on="0"/>
        <pt x="716" y="318" on="1"/>
        <pt x="716" y="260" on="0"/>
        <pt x="732" y="216" on="0"/>
        <pt x="770" y="150" on="0"/>
        <pt x="770" y="84" on="0"/>
        <pt x="693" y="27" on="0"/>
        <pt x="621" y="27" on="1"/>
        <pt x="567" y="27" on="1"/>
        <pt x="519" y="27" on="0"/>
        <pt x="443" y="90" on="0"/>
        <pt x="443" y="148" on="0"/>
        <pt x="459" y="184" on="1"/>
        <pt x="469" y="204" on="1"/>
        <pt x="484" y="234" on="0"/>
        <pt x="502" y="284" on="0"/>
        <pt x="502" y="545" on="0"/>
        <pt x="430" y="692" on="1"/>
        <pt x="400" y="752" on="0"/>
        <pt x="266" y="1000" on="0"/>
        <pt x="186" y="1155" on="0"/>
        <pt x="138" y="1223" on="0"/>
        <pt x="57" y="1309" on="0"/>
        <pt x="57" y="1337" on="1"/>
        <pt x="57" y="1354" on="1"/>
        <pt x="57" y="1398" on="0"/>
        <pt x="290" y="1398" on="0"/>
        <pt x="352" y="1345" on="1"/>
        <pt x="384" y="1318" on="0"/>
        <pt x="384" y="1169" on="0"/>
        <pt x="551" y="865" on="1"/>
        <pt x="609" y="759" on="0"/>
        <pt x="626" y="759" on="1"/>
        <pt x="674" y="759" on="0"/>
        <pt x="813" y="1049" on="1"/>
        <pt x="873" y="1174" on="0"/>
        <pt x="873" y="1280" on="1"/>
        <pt x="873" y="1339" on="0"/>
        <pt x="952" y="1399" on="0"/>
      </contour>
    </TTGlyph>
    <TTGlyph name="Ydieresis" xMin="91" yMin="9" xMax="1123" yMax="1763">
      <contour>
        <pt x="335" y="1649" on="1"/>
        <pt x="337" y="1669" on="1"/>
        <pt x="337" y="1742" on="0"/>
        <pt x="382" y="1742" on="1"/>
        <pt x="406" y="1747" on="1"/>
        <pt x="428" y="1747" on="1"/>
        <pt x="432" y="1746" on="1"/>
        <pt x="448" y="1747" on="1"/>
        <pt x="461" y="1747" on="1"/>
        <pt x="515" y="1747" on="0"/>
        <pt x="515" y="1701" on="1"/>
        <pt x="521" y="1683" on="0"/>
        <pt x="521" y="1671" on="1"/>
        <pt x="523" y="1651" on="1"/>
        <pt x="523" y="1623" on="1"/>
        <pt x="519" y="1597" on="1"/>
        <pt x="519" y="1573" on="0"/>
        <pt x="472" y="1526" on="0"/>
        <pt x="446" y="1526" on="1"/>
        <pt x="434" y="1522" on="0"/>
        <pt x="429" y="1522" on="1"/>
        <pt x="417" y="1522" on="1"/>
        <pt x="390" y="1522" on="0"/>
        <pt x="334" y="1567" on="0"/>
        <pt x="334" y="1610" on="1"/>
        <pt x="334" y="1645" on="1"/>
      </contour>
      <contour>
        <pt x="698" y="1667" on="1"/>
        <pt x="698" y="1706" on="0"/>
        <pt x="739" y="1757" on="0"/>
        <pt x="765" y="1757" on="1"/>
        <pt x="779" y="1761" on="0"/>
        <pt x="782" y="1761" on="1"/>
        <pt x="807" y="1763" on="1"/>
        <pt x="811" y="1763" on="1"/>
        <pt x="899" y="1763" on="0"/>
        <pt x="899" y="1703" on="1"/>
        <pt x="901" y="1697" on="1"/>
        <pt x="903" y="1690" on="1"/>
        <pt x="905" y="1669" on="1"/>
        <pt x="905" y="1651" on="1"/>
        <pt x="899" y="1627" on="0"/>
        <pt x="899" y="1616" on="1"/>
        <pt x="899" y="1555" on="0"/>
        <pt x="831" y="1555" on="1"/>
        <pt x="823" y="1553" on="0"/>
        <pt x="820" y="1553" on="1"/>
        <pt x="806" y="1551" on="1"/>
        <pt x="785" y="1551" on="1"/>
        <pt x="751" y="1557" on="1"/>
        <pt x="702" y="1557" on="0"/>
        <pt x="702" y="1617" on="1"/>
        <pt x="700" y="1623" on="0"/>
        <pt x="700" y="1627" on="1"/>
        <pt x="698" y="1642" on="1"/>
      </contour>
      <contour>
        <pt x="91" y="1308" on="1"/>
        <pt x="91" y="1370" on="0"/>
        <pt x="220" y="1370" on="1"/>
        <pt x="222" y="1370" on="1"/>
        <pt x="353" y="1370" on="0"/>
        <pt x="369" y="1268" on="1"/>
        <pt x="374" y="1227" on="0"/>
        <pt x="382" y="1196" on="0"/>
        <pt x="440" y="1072" on="1"/>
        <pt x="583" y="769" on="0"/>
        <pt x="612" y="769" on="1"/>
        <pt x="659" y="769" on="0"/>
        <pt x="805" y="1074" on="1"/>
        <pt x="840" y="1146" on="0"/>
        <pt x="879" y="1319" on="0"/>
        <pt x="889" y="1335" on="1"/>
        <pt x="928" y="1398" on="0"/>
        <pt x="1123" y="1398" on="0"/>
        <pt x="1123" y="1352" on="1"/>
        <pt x="1123" y="1315" on="0"/>
        <pt x="1008" y="1146" on="0"/>
        <pt x="929" y="971" on="0"/>
        <pt x="781" y="664" on="0"/>
        <pt x="760" y="610" on="1"/>
        <pt x="684" y="415" on="0"/>
        <pt x="684" y="240" on="1"/>
        <pt x="684" y="214" on="0"/>
        <pt x="716" y="115" on="0"/>
        <pt x="716" y="103" on="1"/>
        <pt x="716" y="59" on="0"/>
        <pt x="639" y="9" on="0"/>
        <pt x="585" y="9" on="1"/>
        <pt x="562" y="9" on="1"/>
        <pt x="511" y="9" on="0"/>
        <pt x="448" y="65" on="0"/>
        <pt x="448" y="137" on="0"/>
        <pt x="490" y="228" on="0"/>
        <pt x="494" y="240" on="1"/>
        <pt x="515" y="304" on="0"/>
        <pt x="515" y="539" on="0"/>
        <pt x="448" y="676" on="1"/>
        <pt x="424" y="724" on="0"/>
        <pt x="357" y="844" on="1"/>
        <pt x="344" y="868" on="1"/>
        <pt x="326" y="904" on="0"/>
        <pt x="319" y="916" on="1"/>
        <pt x="268" y="1013" on="1"/>
        <pt x="214" y="1114" on="0"/>
        <pt x="91" y="1284" on="0"/>
      </contour>
    </TTGlyph>
    <TTGlyph name="Z" xMin="128" yMin="3" xMax="1115" yMax="1407">
      <contour>
        <pt x="1071" y="1306" on="1"/>
        <pt x="1071" y="1214" on="0"/>
        <pt x="420" y="270" on="0"/>
        <pt x="420" y="171" on="0"/>
        <pt x="497" y="148" on="0"/>
        <pt x="778" y="148" on="0"/>
        <pt x="885" y="167" on="0"/>
        <pt x="1029" y="222" on="0"/>
        <pt x="1054" y="222" on="1"/>
        <pt x="1115" y="222" on="0"/>
        <pt x="1115" y="168" on="1"/>
        <pt x="1115" y="141" on="1"/>
        <pt x="1115" y="60" on="0"/>
        <pt x="1011" y="26" on="1"/>
        <pt x="941" y="3" on="0"/>
        <pt x="637" y="3" on="1"/>
        <pt x="496" y="3" on="1"/>
        <pt x="269" y="3" on="0"/>
        <pt x="128" y="38" on="0"/>
        <pt x="128" y="88" on="1"/>
        <pt x="128" y="220" on="0"/>
        <pt x="577" y="856" on="1"/>
        <pt x="785" y="1150" on="0"/>
        <pt x="785" y="1238" on="0"/>
        <pt x="685" y="1261" on="0"/>
        <pt x="413" y="1261" on="0"/>
        <pt x="348" y="1241" on="1"/>
        <pt x="202" y="1196" on="0"/>
        <pt x="199" y="1196" on="1"/>
        <pt x="136" y="1196" on="0"/>
        <pt x="136" y="1354" on="0"/>
        <pt x="209" y="1385" on="1"/>
        <pt x="261" y="1407" on="0"/>
        <pt x="508" y="1407" on="1"/>
        <pt x="652" y="1407" on="1"/>
        <pt x="935" y="1407" on="0"/>
        <pt x="1019" y="1381" on="1"/>
        <pt x="1071" y="1365" on="0"/>
      </contour>
    </TTGlyph>
    <TTGlyph name="Zcaron" xMin="126" yMin="21" xMax="1103" yMax="1840">
      <contour>
        <pt x="381" y="1840" on="1"/>
        <pt x="396" y="1840" on="1"/>
        <pt x="452" y="1840" on="0"/>
        <pt x="565" y="1716" on="1"/>
        <pt x="615" y="1662" on="0"/>
        <pt x="627" y="1662" on="0"/>
        <pt x="801" y="1836" on="0"/>
        <pt x="907" y="1836" on="0"/>
        <pt x="907" y="1810" on="1"/>
        <pt x="907" y="1804" on="1"/>
        <pt x="907" y="1753" on="0"/>
        <pt x="712" y="1558" on="1"/>
        <pt x="664" y="1510" on="0"/>
        <pt x="620" y="1510" on="1"/>
        <pt x="612" y="1511" on="1"/>
        <pt x="605" y="1511" on="1"/>
        <pt x="570" y="1511" on="0"/>
        <pt x="336" y="1787" on="0"/>
        <pt x="336" y="1808" on="1"/>
        <pt x="336" y="1840" on="0"/>
      </contour>
      <contour>
        <pt x="414" y="217" on="1"/>
        <pt x="414" y="180" on="0"/>
        <pt x="470" y="168" on="1"/>
        <pt x="507" y="160" on="0"/>
        <pt x="778" y="160" on="0"/>
        <pt x="891" y="182" on="0"/>
        <pt x="1026" y="235" on="0"/>
        <pt x="1054" y="235" on="1"/>
        <pt x="1055" y="235" on="0"/>
        <pt x="1056" y="235" on="1"/>
        <pt x="1103" y="235" on="0"/>
        <pt x="1103" y="180" on="1"/>
        <pt x="1103" y="70" on="0"/>
        <pt x="987" y="39" on="1"/>
        <pt x="919" y="21" on="0"/>
        <pt x="615" y="21" on="1"/>
        <pt x="580" y="21" on="1"/>
        <pt x="291" y="21" on="0"/>
        <pt x="126" y="47" on="0"/>
        <pt x="126" y="114" on="1"/>
        <pt x="126" y="171" on="0"/>
        <pt x="381" y="594" on="0"/>
        <pt x="779" y="1147" on="0"/>
        <pt x="779" y="1232" on="0"/>
        <pt x="691" y="1261" on="0"/>
        <pt x="398" y="1261" on="0"/>
        <pt x="329" y="1239" on="1"/>
        <pt x="321" y="1236" on="0"/>
        <pt x="213" y="1193" on="0"/>
        <pt x="186" y="1193" on="1"/>
        <pt x="131" y="1193" on="0"/>
        <pt x="131" y="1286" on="1"/>
        <pt x="131" y="1351" on="0"/>
        <pt x="215" y="1383" on="1"/>
        <pt x="257" y="1399" on="0"/>
        <pt x="409" y="1399" on="1"/>
        <pt x="692" y="1399" on="1"/>
        <pt x="907" y="1399" on="0"/>
        <pt x="1058" y="1367" on="0"/>
        <pt x="1058" y="1320" on="1"/>
        <pt x="1058" y="1258" on="0"/>
        <pt x="888" y="972" on="0"/>
        <pt x="414" y="279" on="0"/>
      </contour>
    </TTGlyph>
    <TTGlyph name="a" xMin="86" yMin="-5" xMax="919" yMax="1002">
      <contour>
        <pt x="426" y="113" on="1"/>
        <pt x="459" y="113" on="1"/>
        <pt x="556" y="113" on="0"/>
        <pt x="627" y="193" on="1"/>
        <pt x="672" y="244" on="0"/>
        <pt x="672" y="365" on="1"/>
        <pt x="673" y="378" on="1"/>
        <pt x="673" y="426" on="1"/>
        <pt x="671" y="438" on="0"/>
        <pt x="671" y="445" on="1"/>
        <pt x="671" y="489" on="0"/>
        <pt x="621" y="489" on="1"/>
        <pt x="608" y="491" on="1"/>
        <pt x="580" y="491" on="1"/>
        <pt x="573" y="490" on="1"/>
        <pt x="538" y="488" on="1"/>
        <pt x="511" y="486" on="1"/>
        <pt x="403" y="486" on="0"/>
        <pt x="270" y="383" on="0"/>
        <pt x="270" y="299" on="1"/>
        <pt x="270" y="270" on="1"/>
        <pt x="272" y="256" on="0"/>
        <pt x="272" y="249" on="1"/>
        <pt x="272" y="199" on="0"/>
        <pt x="358" y="113" on="0"/>
      </contour>
      <contour>
        <pt x="205" y="768" on="1"/>
        <pt x="144" y="768" on="0"/>
        <pt x="144" y="904" on="0"/>
        <pt x="227" y="945" on="1"/>
        <pt x="341" y="1002" on="0"/>
        <pt x="465" y="1002" on="1"/>
        <pt x="489" y="1002" on="1"/>
        <pt x="799" y="1002" on="0"/>
        <pt x="839" y="737" on="1"/>
        <pt x="849" y="671" on="0"/>
        <pt x="849" y="274" on="0"/>
        <pt x="862" y="187" on="0"/>
        <pt x="919" y="101" on="0"/>
        <pt x="919" y="58" on="0"/>
        <pt x="866" y="16" on="0"/>
        <pt x="781" y="16" on="0"/>
        <pt x="660" y="62" on="0"/>
        <pt x="619" y="62" on="0"/>
        <pt x="518" y="24" on="0"/>
        <pt x="429" y="-5" on="0"/>
        <pt x="361" y="-5" on="1"/>
        <pt x="237" y="-5" on="0"/>
        <pt x="86" y="136" on="0"/>
        <pt x="86" y="244" on="1"/>
        <pt x="86" y="267" on="1"/>
        <pt x="86" y="495" on="0"/>
        <pt x="389" y="562" on="1"/>
        <pt x="408" y="566" on="0"/>
        <pt x="572" y="592" on="0"/>
        <pt x="604" y="605" on="1"/>
        <pt x="663" y="629" on="0"/>
        <pt x="663" y="786" on="0"/>
        <pt x="565" y="874" on="0"/>
        <pt x="422" y="874" on="0"/>
        <pt x="244" y="768" on="0"/>
      </contour>
    </TTGlyph>
    <TTGlyph name="aacute" xMin="79" yMin="-5" xMax="916" yMax="1457">
      <contour>
        <pt x="401" y="145" on="1"/>
        <pt x="436" y="145" on="1"/>
        <pt x="533" y="145" on="0"/>
        <pt x="665" y="263" on="0"/>
        <pt x="665" y="339" on="1"/>
        <pt x="666" y="345" on="1"/>
        <pt x="667" y="352" on="1"/>
        <pt x="670" y="412" on="1"/>
        <pt x="670" y="459" on="1"/>
        <pt x="670" y="525" on="0"/>
        <pt x="610" y="525" on="1"/>
        <pt x="597" y="525" on="1"/>
        <pt x="590" y="524" on="1"/>
        <pt x="549" y="522" on="1"/>
        <pt x="521" y="518" on="0"/>
        <pt x="515" y="518" on="1"/>
        <pt x="403" y="518" on="0"/>
        <pt x="264" y="395" on="0"/>
        <pt x="264" y="309" on="1"/>
        <pt x="264" y="275" on="1"/>
        <pt x="264" y="218" on="0"/>
        <pt x="347" y="145" on="0"/>
      </contour>
      <contour>
        <pt x="435" y="1107" on="1"/>
        <pt x="420" y="1107" on="1"/>
        <pt x="379" y="1107" on="0"/>
        <pt x="379" y="1140" on="1"/>
        <pt x="379" y="1145" on="1"/>
        <pt x="379" y="1213" on="0"/>
        <pt x="550" y="1408" on="1"/>
        <pt x="593" y="1457" on="0"/>
        <pt x="648" y="1457" on="1"/>
        <pt x="676" y="1457" on="1"/>
        <pt x="749" y="1457" on="0"/>
        <pt x="749" y="1409" on="1"/>
        <pt x="749" y="1399" on="1"/>
        <pt x="749" y="1346" on="0"/>
        <pt x="480" y="1107" on="0"/>
      </contour>
      <contour>
        <pt x="470" y="860" on="1"/>
        <pt x="419" y="860" on="0"/>
        <pt x="245" y="759" on="0"/>
        <pt x="213" y="759" on="1"/>
        <pt x="148" y="759" on="0"/>
        <pt x="148" y="888" on="0"/>
        <pt x="222" y="930" on="1"/>
        <pt x="328" y="990" on="0"/>
        <pt x="456" y="990" on="1"/>
        <pt x="504" y="990" on="1"/>
        <pt x="595" y="990" on="0"/>
        <pt x="756" y="915" on="0"/>
        <pt x="843" y="751" on="0"/>
        <pt x="843" y="435" on="1"/>
        <pt x="843" y="271" on="0"/>
        <pt x="859" y="181" on="0"/>
        <pt x="916" y="96" on="0"/>
        <pt x="916" y="57" on="0"/>
        <pt x="870" y="14" on="0"/>
        <pt x="771" y="14" on="0"/>
        <pt x="648" y="63" on="0"/>
        <pt x="616" y="63" on="0"/>
        <pt x="434" y="-5" on="0"/>
        <pt x="367" y="-5" on="1"/>
        <pt x="345" y="-5" on="1"/>
        <pt x="223" y="-5" on="0"/>
        <pt x="79" y="144" on="0"/>
        <pt x="79" y="328" on="0"/>
        <pt x="106" y="383" on="1"/>
        <pt x="173" y="520" on="0"/>
        <pt x="413" y="562" on="1"/>
        <pt x="611" y="597" on="0"/>
        <pt x="637" y="633" on="1"/>
        <pt x="649" y="649" on="0"/>
        <pt x="649" y="754" on="0"/>
        <pt x="619" y="798" on="1"/>
        <pt x="576" y="860" on="0"/>
      </contour>
    </TTGlyph>
    <TTGlyph name="acircumflex" xMin="77" yMin="-8" xMax="919" yMax="1459">
      <contour>
        <pt x="397" y="137" on="1"/>
        <pt x="437" y="137" on="1"/>
        <pt x="533" y="137" on="0"/>
        <pt x="667" y="256" on="0"/>
        <pt x="667" y="330" on="1"/>
        <pt x="669" y="342" on="0"/>
        <pt x="669" y="349" on="1"/>
        <pt x="671" y="381" on="1"/>
        <pt x="671" y="433" on="1"/>
        <pt x="671" y="503" on="0"/>
        <pt x="597" y="503" on="1"/>
        <pt x="570" y="503" on="1"/>
        <pt x="563" y="502" on="1"/>
        <pt x="542" y="502" on="1"/>
        <pt x="501" y="499" on="1"/>
        <pt x="461" y="495" on="1"/>
        <pt x="378" y="495" on="0"/>
        <pt x="259" y="376" on="0"/>
        <pt x="259" y="294" on="1"/>
        <pt x="259" y="287" on="1"/>
        <pt x="259" y="222" on="0"/>
        <pt x="335" y="137" on="0"/>
      </contour>
      <contour>
        <pt x="729" y="1116" on="1"/>
        <pt x="714" y="1116" on="1"/>
        <pt x="672" y="1116" on="0"/>
        <pt x="545" y="1254" on="1"/>
        <pt x="497" y="1306" on="0"/>
        <pt x="493" y="1306" on="0"/>
        <pt x="300" y="1129" on="0"/>
        <pt x="211" y="1129" on="0"/>
        <pt x="211" y="1154" on="1"/>
        <pt x="211" y="1206" on="0"/>
        <pt x="390" y="1401" on="1"/>
        <pt x="443" y="1459" on="0"/>
        <pt x="545" y="1459" on="0"/>
        <pt x="580" y="1421" on="1"/>
        <pt x="780" y="1203" on="0"/>
        <pt x="780" y="1152" on="1"/>
        <pt x="780" y="1145" on="1"/>
        <pt x="780" y="1116" on="0"/>
      </contour>
      <contour>
        <pt x="211" y="764" on="1"/>
        <pt x="144" y="764" on="0"/>
        <pt x="144" y="848" on="1"/>
        <pt x="144" y="902" on="0"/>
        <pt x="341" y="998" on="0"/>
        <pt x="454" y="998" on="1"/>
        <pt x="502" y="998" on="1"/>
        <pt x="602" y="998" on="0"/>
        <pt x="753" y="922" on="0"/>
        <pt x="789" y="864" on="1"/>
        <pt x="846" y="771" on="0"/>
        <pt x="846" y="439" on="1"/>
        <pt x="846" y="272" on="0"/>
        <pt x="862" y="181" on="0"/>
        <pt x="919" y="91" on="0"/>
        <pt x="919" y="82" on="1"/>
        <pt x="919" y="66" on="1"/>
        <pt x="919" y="54" on="0"/>
        <pt x="874" y="11" on="0"/>
        <pt x="797" y="11" on="1"/>
        <pt x="776" y="11" on="0"/>
        <pt x="651" y="61" on="0"/>
        <pt x="618" y="61" on="0"/>
        <pt x="434" y="-8" on="0"/>
        <pt x="366" y="-8" on="1"/>
        <pt x="344" y="-8" on="1"/>
        <pt x="235" y="-8" on="0"/>
        <pt x="77" y="130" on="0"/>
        <pt x="77" y="255" on="1"/>
        <pt x="77" y="491" on="0"/>
        <pt x="371" y="557" on="1"/>
        <pt x="425" y="569" on="0"/>
        <pt x="561" y="587" on="0"/>
        <pt x="588" y="598" on="1"/>
        <pt x="656" y="625" on="0"/>
        <pt x="656" y="772" on="0"/>
        <pt x="566" y="868" on="0"/>
        <pt x="420" y="868" on="0"/>
        <pt x="241" y="764" on="0"/>
      </contour>
    </TTGlyph>
    <TTGlyph name="acute" xMin="181" yMin="1134" xMax="549" yMax="1477">
      <contour>
        <pt x="482" y="1477" on="1"/>
        <pt x="549" y="1477" on="0"/>
        <pt x="549" y="1430" on="1"/>
        <pt x="549" y="1425" on="1"/>
        <pt x="549" y="1385" on="0"/>
        <pt x="267" y="1134" on="0"/>
        <pt x="227" y="1134" on="1"/>
        <pt x="222" y="1134" on="1"/>
        <pt x="181" y="1134" on="0"/>
        <pt x="181" y="1158" on="1"/>
        <pt x="181" y="1171" on="1"/>
        <pt x="181" y="1227" on="0"/>
        <pt x="345" y="1414" on="1"/>
        <pt x="398" y="1475" on="0"/>
        <pt x="446" y="1475" on="1"/>
        <pt x="456" y="1477" on="1"/>
      </contour>
    </TTGlyph>
    <TTGlyph name="adieresis" xMin="77" yMin="-8" xMax="909" yMax="1391">
      <contour>
        <pt x="391" y="140" on="1"/>
        <pt x="430" y="140" on="1"/>
        <pt x="444" y="142" on="0"/>
        <pt x="478" y="142" on="0"/>
        <pt x="589" y="198" on="0"/>
        <pt x="653" y="289" on="0"/>
        <pt x="653" y="406" on="1"/>
        <pt x="654" y="432" on="1"/>
        <pt x="654" y="439" on="1"/>
        <pt x="654" y="513" on="0"/>
        <pt x="602" y="513" on="1"/>
        <pt x="569" y="513" on="1"/>
        <pt x="551" y="510" on="0"/>
        <pt x="536" y="510" on="1"/>
        <pt x="509" y="507" on="1"/>
        <pt x="489" y="504" on="0"/>
        <pt x="482" y="504" on="1"/>
        <pt x="389" y="504" on="0"/>
        <pt x="253" y="398" on="0"/>
        <pt x="253" y="317" on="1"/>
        <pt x="253" y="275" on="1"/>
        <pt x="253" y="215" on="0"/>
        <pt x="337" y="140" on="0"/>
      </contour>
      <contour>
        <pt x="213" y="1318" on="1"/>
        <pt x="213" y="1385" on="0"/>
        <pt x="275" y="1385" on="1"/>
        <pt x="284" y="1388" on="0"/>
        <pt x="288" y="1388" on="1"/>
        <pt x="309" y="1391" on="1"/>
        <pt x="323" y="1391" on="1"/>
        <pt x="411" y="1391" on="0"/>
        <pt x="411" y="1319" on="1"/>
        <pt x="414" y="1305" on="1"/>
        <pt x="414" y="1298" on="1"/>
        <pt x="415" y="1287" on="1"/>
        <pt x="415" y="1283" on="1"/>
        <pt x="414" y="1279" on="1"/>
        <pt x="414" y="1268" on="1"/>
        <pt x="411" y="1253" on="0"/>
        <pt x="411" y="1251" on="1"/>
        <pt x="411" y="1221" on="0"/>
        <pt x="357" y="1178" on="0"/>
        <pt x="315" y="1178" on="1"/>
        <pt x="301" y="1178" on="1"/>
        <pt x="274" y="1182" on="1"/>
        <pt x="213" y="1182" on="0"/>
        <pt x="213" y="1251" on="1"/>
        <pt x="210" y="1264" on="1"/>
        <pt x="210" y="1301" on="1"/>
        <pt x="213" y="1316" on="0"/>
      </contour>
      <contour>
        <pt x="564" y="1286" on="1"/>
        <pt x="567" y="1304" on="1"/>
        <pt x="567" y="1365" on="0"/>
        <pt x="663" y="1365" on="1"/>
        <pt x="679" y="1365" on="1"/>
        <pt x="712" y="1360" on="1"/>
        <pt x="776" y="1360" on="0"/>
        <pt x="776" y="1287" on="1"/>
        <pt x="779" y="1270" on="1"/>
        <pt x="779" y="1241" on="1"/>
        <pt x="776" y="1232" on="0"/>
        <pt x="776" y="1200" on="0"/>
        <pt x="730" y="1154" on="0"/>
        <pt x="694" y="1154" on="1"/>
        <pt x="665" y="1154" on="1"/>
        <pt x="640" y="1158" on="1"/>
        <pt x="615" y="1158" on="0"/>
        <pt x="567" y="1206" on="0"/>
        <pt x="567" y="1234" on="1"/>
        <pt x="565" y="1242" on="0"/>
        <pt x="565" y="1244" on="1"/>
        <pt x="563" y="1258" on="1"/>
        <pt x="563" y="1282" on="1"/>
      </contour>
      <contour>
        <pt x="206" y="766" on="1"/>
        <pt x="138" y="766" on="0"/>
        <pt x="138" y="898" on="0"/>
        <pt x="212" y="937" on="1"/>
        <pt x="324" y="996" on="0"/>
        <pt x="448" y="996" on="1"/>
        <pt x="496" y="996" on="1"/>
        <pt x="591" y="996" on="0"/>
        <pt x="745" y="925" on="0"/>
        <pt x="783" y="863" on="1"/>
        <pt x="838" y="773" on="0"/>
        <pt x="838" y="439" on="1"/>
        <pt x="838" y="270" on="0"/>
        <pt x="851" y="186" on="0"/>
        <pt x="909" y="93" on="0"/>
        <pt x="909" y="84" on="1"/>
        <pt x="909" y="68" on="1"/>
        <pt x="909" y="56" on="0"/>
        <pt x="864" y="11" on="0"/>
        <pt x="769" y="11" on="0"/>
        <pt x="647" y="60" on="0"/>
        <pt x="599" y="60" on="0"/>
        <pt x="565" y="45" on="1"/>
        <pt x="445" y="-8" on="0"/>
        <pt x="220" y="-8" on="0"/>
        <pt x="77" y="140" on="0"/>
        <pt x="77" y="253" on="1"/>
        <pt x="77" y="396" on="0"/>
        <pt x="189" y="480" on="1"/>
        <pt x="269" y="539" on="0"/>
        <pt x="617" y="601" on="0"/>
        <pt x="641" y="637" on="1"/>
        <pt x="653" y="655" on="0"/>
        <pt x="653" y="690" on="1"/>
        <pt x="654" y="702" on="0"/>
        <pt x="652" y="716" on="1"/>
        <pt x="637" y="870" on="0"/>
        <pt x="468" y="870" on="1"/>
        <pt x="419" y="870" on="0"/>
        <pt x="234" y="766" on="0"/>
      </contour>
    </TTGlyph>
    <TTGlyph name="ae" xMin="93" yMin="-4" xMax="1475" yMax="996">
      <contour>
        <pt x="644" y="503" on="1"/>
        <pt x="597" y="503" on="1"/>
        <pt x="590" y="502" on="1"/>
        <pt x="576" y="502" on="1"/>
        <pt x="432" y="502" on="0"/>
        <pt x="287" y="400" on="0"/>
        <pt x="287" y="311" on="1"/>
        <pt x="287" y="291" on="1"/>
        <pt x="287" y="232" on="0"/>
        <pt x="313" y="199" on="1"/>
        <pt x="353" y="147" on="0"/>
        <pt x="431" y="147" on="1"/>
        <pt x="479" y="147" on="1"/>
        <pt x="586" y="147" on="0"/>
        <pt x="660" y="221" on="1"/>
        <pt x="701" y="262" on="0"/>
        <pt x="701" y="384" on="1"/>
        <pt x="702" y="404" on="1"/>
        <pt x="702" y="424" on="1"/>
        <pt x="702" y="503" on="0"/>
      </contour>
      <contour>
        <pt x="1132" y="557" on="0"/>
        <pt x="1207" y="557" on="0"/>
        <pt x="1250" y="581" on="1"/>
        <pt x="1273" y="594" on="0"/>
        <pt x="1273" y="631" on="1"/>
        <pt x="1273" y="650" on="1"/>
        <pt x="1273" y="742" on="0"/>
        <pt x="1166" y="862" on="0"/>
        <pt x="1083" y="862" on="1"/>
        <pt x="1063" y="862" on="1"/>
        <pt x="965" y="862" on="0"/>
        <pt x="837" y="718" on="0"/>
        <pt x="837" y="616" on="1"/>
        <pt x="835" y="603" on="1"/>
        <pt x="835" y="583" on="1"/>
        <pt x="835" y="543" on="0"/>
        <pt x="926" y="543" on="1"/>
        <pt x="933" y="543" on="1"/>
        <pt x="939" y="544" on="1"/>
        <pt x="1111" y="554" on="1"/>
      </contour>
      <contour>
        <pt x="1452" y="165" on="1"/>
        <pt x="1452" y="99" on="0"/>
        <pt x="1226" y="-4" on="0"/>
        <pt x="955" y="-4" on="0"/>
        <pt x="815" y="86" on="1"/>
        <pt x="756" y="125" on="0"/>
        <pt x="740" y="125" on="1"/>
        <pt x="724" y="124" on="0"/>
        <pt x="674" y="92" on="1"/>
        <pt x="458" y="-1" on="0"/>
        <pt x="400" y="-1" on="1"/>
        <pt x="400" y="-1" on="0"/>
        <pt x="399" y="-1" on="1"/>
        <pt x="395" y="-1" on="0"/>
        <pt x="392" y="-1" on="1"/>
        <pt x="252" y="-1" on="0"/>
        <pt x="93" y="142" on="0"/>
        <pt x="93" y="243" on="1"/>
        <pt x="93" y="277" on="1"/>
        <pt x="93" y="411" on="0"/>
        <pt x="216" y="494" on="1"/>
        <pt x="286" y="541" on="0"/>
        <pt x="399" y="565" on="1"/>
        <pt x="612" y="610" on="0"/>
        <pt x="615" y="611" on="1"/>
        <pt x="664" y="637" on="0"/>
        <pt x="664" y="695" on="1"/>
        <pt x="664" y="783" on="0"/>
        <pt x="564" y="875" on="0"/>
        <pt x="413" y="875" on="0"/>
        <pt x="245" y="768" on="0"/>
        <pt x="216" y="768" on="1"/>
        <pt x="157" y="768" on="0"/>
        <pt x="157" y="892" on="0"/>
        <pt x="344" y="992" on="0"/>
        <pt x="570" y="992" on="0"/>
        <pt x="640" y="966" on="1"/>
        <pt x="654" y="961" on="0"/>
        <pt x="755" y="906" on="0"/>
        <pt x="805" y="906" on="0"/>
        <pt x="845" y="924" on="1"/>
        <pt x="873" y="938" on="1"/>
        <pt x="910" y="957" on="0"/>
        <pt x="1016" y="996" on="0"/>
        <pt x="1100" y="996" on="1"/>
        <pt x="1136" y="996" on="1"/>
        <pt x="1276" y="996" on="0"/>
        <pt x="1475" y="793" on="0"/>
        <pt x="1475" y="654" on="1"/>
        <pt x="1475" y="621" on="1"/>
        <pt x="1475" y="530" on="0"/>
        <pt x="1401" y="506" on="1"/>
        <pt x="1349" y="489" on="0"/>
        <pt x="953" y="460" on="0"/>
        <pt x="940" y="457" on="1"/>
        <pt x="869" y="441" on="0"/>
        <pt x="869" y="267" on="0"/>
        <pt x="1010" y="130" on="0"/>
        <pt x="1145" y="130" on="1"/>
        <pt x="1214" y="130" on="0"/>
        <pt x="1399" y="207" on="0"/>
        <pt x="1408" y="207" on="1"/>
        <pt x="1452" y="207" on="0"/>
      </contour>
    </TTGlyph>
    <TTGlyph name="agrave" xMin="80" yMin="-8" xMax="917" yMax="1469">
      <contour>
        <pt x="262" y="286" on="1"/>
        <pt x="262" y="210" on="0"/>
        <pt x="355" y="127" on="0"/>
        <pt x="429" y="127" on="1"/>
        <pt x="436" y="127" on="1"/>
        <pt x="562" y="127" on="0"/>
        <pt x="626" y="209" on="1"/>
        <pt x="666" y="260" on="0"/>
        <pt x="666" y="371" on="1"/>
        <pt x="666" y="409" on="1"/>
        <pt x="666" y="496" on="0"/>
        <pt x="617" y="496" on="1"/>
        <pt x="604" y="498" on="1"/>
        <pt x="549" y="498" on="1"/>
        <pt x="529" y="496" on="1"/>
        <pt x="501" y="494" on="1"/>
        <pt x="483" y="491" on="0"/>
        <pt x="474" y="491" on="1"/>
        <pt x="396" y="491" on="0"/>
        <pt x="264" y="399" on="0"/>
        <pt x="264" y="328" on="1"/>
        <pt x="262" y="314" on="1"/>
      </contour>
      <contour>
        <pt x="248" y="1409" on="1"/>
        <pt x="248" y="1419" on="1"/>
        <pt x="249" y="1423" on="1"/>
        <pt x="249" y="1469" on="0"/>
        <pt x="321" y="1469" on="1"/>
        <pt x="337" y="1469" on="1"/>
        <pt x="401" y="1469" on="0"/>
        <pt x="449" y="1414" on="1"/>
        <pt x="618" y="1221" on="0"/>
        <pt x="618" y="1152" on="1"/>
        <pt x="618" y="1148" on="1"/>
        <pt x="618" y="1118" on="0"/>
        <pt x="568" y="1118" on="1"/>
        <pt x="563" y="1119" on="1"/>
        <pt x="557" y="1119" on="0"/>
        <pt x="248" y="1359" on="0"/>
      </contour>
      <contour>
        <pt x="209" y="768" on="1"/>
        <pt x="141" y="768" on="0"/>
        <pt x="141" y="899" on="0"/>
        <pt x="215" y="941" on="1"/>
        <pt x="319" y="1000" on="0"/>
        <pt x="453" y="1000" on="1"/>
        <pt x="501" y="1000" on="1"/>
        <pt x="602" y="1000" on="0"/>
        <pt x="752" y="927" on="0"/>
        <pt x="790" y="866" on="1"/>
        <pt x="845" y="778" on="0"/>
        <pt x="845" y="464" on="1"/>
        <pt x="845" y="268" on="0"/>
        <pt x="860" y="180" on="0"/>
        <pt x="917" y="95" on="0"/>
        <pt x="917" y="56" on="0"/>
        <pt x="870" y="11" on="0"/>
        <pt x="782" y="11" on="0"/>
        <pt x="644" y="60" on="0"/>
        <pt x="622" y="60" on="0"/>
        <pt x="427" y="-8" on="0"/>
        <pt x="366" y="-8" on="1"/>
        <pt x="344" y="-8" on="1"/>
        <pt x="234" y="-8" on="0"/>
        <pt x="80" y="131" on="0"/>
        <pt x="80" y="255" on="1"/>
        <pt x="80" y="278" on="1"/>
        <pt x="80" y="344" on="0"/>
        <pt x="117" y="402" on="1"/>
        <pt x="195" y="524" on="0"/>
        <pt x="396" y="564" on="1"/>
        <pt x="411" y="567" on="0"/>
        <pt x="567" y="591" on="0"/>
        <pt x="591" y="601" on="1"/>
        <pt x="659" y="628" on="0"/>
        <pt x="659" y="777" on="0"/>
        <pt x="567" y="873" on="0"/>
        <pt x="420" y="873" on="0"/>
        <pt x="244" y="768" on="0"/>
      </contour>
    </TTGlyph>
    <TTGlyph name="ampersand" xMin="122" yMin="-1" xMax="1220" yMax="1346">
      <contour>
        <pt x="576" y="845" on="1"/>
        <pt x="580" y="845" on="1"/>
        <pt x="632" y="845" on="0"/>
        <pt x="694" y="957" on="1"/>
        <pt x="735" y="1031" on="0"/>
        <pt x="735" y="1110" on="1"/>
        <pt x="735" y="1129" on="1"/>
        <pt x="735" y="1191" on="0"/>
        <pt x="661" y="1286" on="0"/>
        <pt x="618" y="1286" on="1"/>
        <pt x="597" y="1286" on="1"/>
        <pt x="541" y="1286" on="0"/>
        <pt x="458" y="1180" on="0"/>
        <pt x="458" y="1118" on="1"/>
        <pt x="458" y="1112" on="1"/>
        <pt x="459" y="1106" on="1"/>
        <pt x="459" y="1100" on="0"/>
        <pt x="459" y="1094" on="1"/>
        <pt x="461" y="1070" on="1"/>
        <pt x="461" y="997" on="0"/>
        <pt x="537" y="888" on="1"/>
        <pt x="567" y="845" on="0"/>
      </contour>
      <contour>
        <pt x="295" y="423" on="1"/>
        <pt x="295" y="398" on="1"/>
        <pt x="295" y="284" on="0"/>
        <pt x="442" y="137" on="0"/>
        <pt x="538" y="137" on="1"/>
        <pt x="563" y="137" on="1"/>
        <pt x="632" y="137" on="0"/>
        <pt x="795" y="219" on="0"/>
        <pt x="795" y="258" on="1"/>
        <pt x="795" y="270" on="1"/>
        <pt x="795" y="273" on="0"/>
        <pt x="494" y="664" on="0"/>
        <pt x="479" y="664" on="1"/>
        <pt x="473" y="664" on="1"/>
        <pt x="422" y="664" on="0"/>
        <pt x="295" y="481" on="0"/>
      </contour>
      <contour>
        <pt x="1188" y="50" on="1"/>
        <pt x="1016" y="69" on="1"/>
        <pt x="982" y="69" on="0"/>
        <pt x="783" y="44" on="0"/>
        <pt x="580" y="-1" on="0"/>
        <pt x="538" y="-1" on="1"/>
        <pt x="482" y="-1" on="1"/>
        <pt x="339" y="-1" on="0"/>
        <pt x="233" y="102" on="1"/>
        <pt x="186" y="147" on="0"/>
        <pt x="122" y="284" on="0"/>
        <pt x="122" y="347" on="1"/>
        <pt x="122" y="375" on="1"/>
        <pt x="122" y="524" on="0"/>
        <pt x="281" y="680" on="1"/>
        <pt x="354" y="752" on="0"/>
        <pt x="354" y="790" on="1"/>
        <pt x="354" y="806" on="0"/>
        <pt x="278" y="989" on="0"/>
        <pt x="278" y="1047" on="1"/>
        <pt x="278" y="1167" on="0"/>
        <pt x="444" y="1346" on="0"/>
        <pt x="580" y="1346" on="1"/>
        <pt x="607" y="1346" on="1"/>
        <pt x="699" y="1346" on="0"/>
        <pt x="849" y="1208" on="0"/>
        <pt x="849" y="1104" on="1"/>
        <pt x="849" y="1077" on="0"/>
        <pt x="768" y="731" on="0"/>
        <pt x="768" y="633" on="0"/>
        <pt x="793" y="609" on="1"/>
        <pt x="848" y="557" on="0"/>
        <pt x="908" y="557" on="1"/>
        <pt x="930" y="555" on="0"/>
        <pt x="945" y="555" on="0"/>
        <pt x="1099" y="680" on="0"/>
        <pt x="1145" y="680" on="1"/>
        <pt x="1179" y="680" on="0"/>
        <pt x="1179" y="632" on="1"/>
        <pt x="1179" y="622" on="0"/>
        <pt x="1090" y="397" on="0"/>
        <pt x="1090" y="362" on="1"/>
        <pt x="1090" y="281" on="0"/>
        <pt x="1129" y="204" on="0"/>
        <pt x="1220" y="97" on="0"/>
        <pt x="1220" y="79" on="1"/>
        <pt x="1220" y="50" on="0"/>
      </contour>
    </TTGlyph>
    <TTGlyph name="aring" xMin="70" yMin="-3" xMax="916" yMax="1512">
      <contour>
        <pt x="381" y="1321" on="1"/>
        <pt x="381" y="1321" on="0"/>
        <pt x="384" y="1293" on="1"/>
        <pt x="384" y="1268" on="0"/>
        <pt x="449" y="1216" on="0"/>
        <pt x="485" y="1216" on="1"/>
        <pt x="493" y="1216" on="1"/>
        <pt x="496" y="1217" on="1"/>
        <pt x="504" y="1217" on="1"/>
        <pt x="518" y="1219" on="1"/>
        <pt x="540" y="1219" on="0"/>
        <pt x="596" y="1275" on="0"/>
        <pt x="596" y="1310" on="1"/>
        <pt x="596" y="1339" on="1"/>
        <pt x="592" y="1360" on="1"/>
        <pt x="592" y="1377" on="0"/>
        <pt x="536" y="1433" on="0"/>
        <pt x="499" y="1433" on="1"/>
        <pt x="473" y="1433" on="1"/>
        <pt x="452" y="1429" on="1"/>
        <pt x="429" y="1429" on="0"/>
        <pt x="380" y="1367" on="0"/>
        <pt x="380" y="1329" on="1"/>
        <pt x="380" y="1325" on="1"/>
      </contour>
      <contour>
        <pt x="410" y="125" on="1"/>
        <pt x="430" y="125" on="1"/>
        <pt x="531" y="125" on="0"/>
        <pt x="654" y="248" on="0"/>
        <pt x="654" y="315" on="1"/>
        <pt x="656" y="329" on="0"/>
        <pt x="656" y="335" on="1"/>
        <pt x="660" y="394" on="1"/>
        <pt x="660" y="407" on="1"/>
        <pt x="661" y="427" on="1"/>
        <pt x="661" y="440" on="1"/>
        <pt x="661" y="500" on="0"/>
        <pt x="604" y="500" on="1"/>
        <pt x="563" y="500" on="1"/>
        <pt x="542" y="497" on="0"/>
        <pt x="528" y="497" on="1"/>
        <pt x="507" y="494" on="1"/>
        <pt x="486" y="491" on="0"/>
        <pt x="480" y="491" on="1"/>
        <pt x="389" y="491" on="0"/>
        <pt x="260" y="391" on="0"/>
        <pt x="260" y="306" on="1"/>
        <pt x="260" y="284" on="1"/>
        <pt x="260" y="214" on="0"/>
        <pt x="340" y="125" on="0"/>
      </contour>
      <contour>
        <pt x="289" y="1340" on="1"/>
        <pt x="289" y="1409" on="0"/>
        <pt x="404" y="1512" on="0"/>
        <pt x="488" y="1512" on="1"/>
        <pt x="495" y="1512" on="1"/>
        <pt x="502" y="1511" on="1"/>
        <pt x="576" y="1511" on="0"/>
        <pt x="693" y="1407" on="0"/>
        <pt x="693" y="1322" on="1"/>
        <pt x="693" y="1308" on="1"/>
        <pt x="693" y="1231" on="0"/>
        <pt x="583" y="1121" on="0"/>
        <pt x="510" y="1121" on="1"/>
        <pt x="483" y="1121" on="1"/>
        <pt x="471" y="1123" on="0"/>
        <pt x="464" y="1123" on="1"/>
        <pt x="409" y="1123" on="0"/>
        <pt x="291" y="1229" on="0"/>
        <pt x="291" y="1294" on="1"/>
        <pt x="289" y="1307" on="1"/>
      </contour>
      <contour>
        <pt x="203" y="765" on="1"/>
        <pt x="137" y="765" on="0"/>
        <pt x="137" y="899" on="0"/>
        <pt x="211" y="940" on="1"/>
        <pt x="321" y="1001" on="0"/>
        <pt x="448" y="1001" on="1"/>
        <pt x="496" y="1001" on="1"/>
        <pt x="595" y="1001" on="0"/>
        <pt x="744" y="929" on="0"/>
        <pt x="784" y="867" on="1"/>
        <pt x="841" y="780" on="0"/>
        <pt x="841" y="464" on="1"/>
        <pt x="841" y="279" on="0"/>
        <pt x="859" y="182" on="0"/>
        <pt x="916" y="99" on="0"/>
        <pt x="916" y="86" on="1"/>
        <pt x="916" y="70" on="1"/>
        <pt x="916" y="59" on="0"/>
        <pt x="869" y="15" on="0"/>
        <pt x="777" y="15" on="0"/>
        <pt x="645" y="66" on="0"/>
        <pt x="626" y="66" on="1"/>
        <pt x="608" y="66" on="0"/>
        <pt x="564" y="48" on="1"/>
        <pt x="438" y="-3" on="0"/>
        <pt x="341" y="-3" on="1"/>
        <pt x="339" y="-3" on="0"/>
        <pt x="337" y="-3" on="1"/>
        <pt x="228" y="-3" on="0"/>
        <pt x="156" y="60" on="1"/>
        <pt x="70" y="135" on="0"/>
        <pt x="70" y="406" on="0"/>
        <pt x="183" y="486" on="1"/>
        <pt x="275" y="552" on="0"/>
        <pt x="480" y="582" on="1"/>
        <pt x="564" y="595" on="0"/>
        <pt x="584" y="603" on="1"/>
        <pt x="650" y="630" on="0"/>
        <pt x="650" y="779" on="0"/>
        <pt x="560" y="873" on="0"/>
        <pt x="416" y="873" on="0"/>
        <pt x="234" y="765" on="0"/>
      </contour>
    </TTGlyph>
    <TTGlyph name="asciicircum" xMin="130" yMin="772" xMax="897" yMax="1372">
      <contour>
        <pt x="897" y="814" on="1"/>
        <pt x="897" y="803" on="1"/>
        <pt x="897" y="775" on="0"/>
        <pt x="830" y="775" on="1"/>
        <pt x="789" y="775" on="0"/>
        <pt x="737" y="843" on="1"/>
        <pt x="711" y="878" on="0"/>
        <pt x="522" y="1188" on="0"/>
        <pt x="502" y="1188" on="0"/>
        <pt x="350" y="926" on="0"/>
        <pt x="232" y="772" on="0"/>
        <pt x="191" y="772" on="1"/>
        <pt x="130" y="772" on="0"/>
        <pt x="130" y="806" on="1"/>
        <pt x="130" y="872" on="0"/>
        <pt x="414" y="1289" on="1"/>
        <pt x="471" y="1372" on="0"/>
        <pt x="573" y="1372" on="0"/>
        <pt x="626" y="1290" on="1"/>
        <pt x="897" y="874" on="0"/>
      </contour>
    </TTGlyph>
    <TTGlyph name="asciitilde" xMin="116" yMin="590" xMax="966" yMax="854">
      <contour>
        <pt x="966" y="798" on="1"/>
        <pt x="966" y="777" on="1"/>
        <pt x="966" y="714" on="0"/>
        <pt x="813" y="590" on="0"/>
        <pt x="728" y="590" on="1"/>
        <pt x="717" y="590" on="1"/>
        <pt x="644" y="590" on="0"/>
        <pt x="400" y="712" on="0"/>
        <pt x="302" y="712" on="0"/>
        <pt x="174" y="610" on="0"/>
        <pt x="151" y="610" on="1"/>
        <pt x="116" y="610" on="0"/>
        <pt x="116" y="647" on="1"/>
        <pt x="116" y="657" on="1"/>
        <pt x="116" y="721" on="0"/>
        <pt x="259" y="854" on="0"/>
        <pt x="334" y="854" on="1"/>
        <pt x="376" y="854" on="1"/>
        <pt x="443" y="854" on="0"/>
        <pt x="663" y="733" on="0"/>
        <pt x="771" y="733" on="0"/>
        <pt x="919" y="835" on="0"/>
        <pt x="923" y="835" on="1"/>
        <pt x="966" y="835" on="0"/>
      </contour>
    </TTGlyph>
    <TTGlyph name="asterisk" xMin="192" yMin="770" xMax="824" yMax="1403">
      <contour>
        <pt x="192" y="1191" on="1"/>
        <pt x="192" y="1239" on="0"/>
        <pt x="266" y="1239" on="1"/>
        <pt x="296" y="1239" on="0"/>
        <pt x="390" y="1189" on="0"/>
        <pt x="414" y="1189" on="1"/>
        <pt x="430" y="1189" on="0"/>
        <pt x="430" y="1347" on="0"/>
        <pt x="464" y="1403" on="0"/>
        <pt x="515" y="1403" on="1"/>
        <pt x="531" y="1403" on="1"/>
        <pt x="575" y="1403" on="0"/>
        <pt x="575" y="1295" on="1"/>
        <pt x="575" y="1276" on="0"/>
        <pt x="572" y="1242" on="1"/>
        <pt x="566" y="1175" on="1"/>
        <pt x="566" y="1158" on="0"/>
        <pt x="573" y="1158" on="1"/>
        <pt x="585" y="1158" on="0"/>
        <pt x="711" y="1219" on="0"/>
        <pt x="824" y="1219" on="0"/>
        <pt x="824" y="1167" on="1"/>
        <pt x="824" y="1099" on="0"/>
        <pt x="722" y="1060" on="1"/>
        <pt x="653" y="1034" on="0"/>
        <pt x="653" y="1000" on="1"/>
        <pt x="653" y="993" on="0"/>
        <pt x="703" y="943" on="0"/>
        <pt x="738" y="900" on="0"/>
        <pt x="738" y="844" on="1"/>
        <pt x="738" y="805" on="0"/>
        <pt x="639" y="805" on="0"/>
        <pt x="577" y="838" on="0"/>
        <pt x="552" y="838" on="0"/>
        <pt x="477" y="770" on="0"/>
        <pt x="430" y="770" on="1"/>
        <pt x="421" y="770" on="1"/>
        <pt x="380" y="770" on="0"/>
        <pt x="264" y="860" on="1"/>
        <pt x="240" y="879" on="0"/>
        <pt x="240" y="933" on="1"/>
        <pt x="276" y="1059" on="1"/>
        <pt x="276" y="1061" on="0"/>
        <pt x="236" y="1089" on="0"/>
        <pt x="192" y="1166" on="0"/>
      </contour>
    </TTGlyph>
</ttFont>
